<svg id="svg" version="1.1" xmlns="http://www.w3.org/2000/svg" xmlns:xlink="http://www.w3.org/1999/xlink" width="400" height="400" viewBox="0, 0, 400,400"><g id="svgg"><path id="path0" d="M92.090 19.872 C 78.692 20.339,63.737 25.172,52.441 32.686 C 25.213 50.799,13.617 84.567,23.054 118.262 C 23.505 119.873,23.918 121.389,23.972 121.631 C 24.111 122.260,24.414 122.174,24.414 121.505 C 24.414 116.137,30.731 110.728,36.716 110.971 C 37.716 111.012,38.253 110.964,38.195 110.840 C 33.697 101.274,36.061 89.781,43.902 83.090 C 50.713 77.279,59.819 76.888,66.260 82.130 C 67.483 83.126,67.578 83.169,67.578 82.734 C 67.578 80.493,69.110 74.857,70.447 72.181 C 80.564 51.932,106.380 48.756,119.110 66.195 C 122.152 70.363,124.414 76.813,124.414 81.322 C 124.414 82.635,124.442 82.641,125.795 81.626 C 132.501 76.595,142.032 77.622,148.542 84.076 C 155.652 91.127,157.500 101.719,153.211 110.840 C 153.153 110.964,153.690 111.012,154.690 110.971 C 160.675 110.728,166.992 116.137,166.992 121.505 C 166.992 122.174,167.295 122.260,167.435 121.631 C 167.488 121.389,167.901 119.873,168.353 118.262 C 183.098 65.610,146.185 17.987,92.090 19.872 M91.602 163.771 C 81.656 165.976,73.838 175.186,72.992 185.693 L 72.909 186.719 95.927 186.719 L 118.945 186.719 118.945 186.084 C 118.933 176.915,110.713 166.545,101.465 164.034 C 99.433 163.482,93.605 163.327,91.602 163.771 M59.180 206.152 L 59.180 222.656 68.066 222.656 L 76.953 222.656 76.953 237.207 L 76.953 251.758 95.605 251.758 L 114.258 251.758 114.258 237.207 L 114.258 222.656 123.242 222.656 L 132.227 222.656 132.227 206.152 L 132.227 189.648 128.516 189.648 L 124.805 189.648 124.805 200.684 L 124.805 211.719 113.281 211.719 L 101.758 211.719 101.758 214.844 L 101.758 217.969 95.801 217.969 L 89.844 217.969 89.844 214.844 L 89.844 211.719 78.223 211.719 L 66.602 211.719 66.602 200.684 L 66.602 189.648 62.891 189.648 L 59.180 189.648 59.180 206.152 M76.227 254.247 C 74.521 258.491,70.447 268.479,67.069 276.701 C 64.986 281.772,63.281 285.995,63.281 286.085 C 63.281 286.176,64.475 287.080,65.935 288.096 C 67.394 289.111,69.743 290.797,71.154 291.844 C 73.139 293.315,73.769 293.691,73.937 293.504 C 74.056 293.371,75.768 290.713,77.741 287.598 C 79.714 284.482,83.802 278.066,86.825 273.340 C 96.371 258.412,95.465 259.606,96.355 260.791 C 96.915 261.537,101.391 268.499,110.699 283.105 C 114.396 288.906,117.505 293.629,117.608 293.600 C 117.710 293.571,118.838 292.780,120.114 291.842 C 122.058 290.413,127.270 286.736,127.929 286.328 C 128.043 286.258,127.323 284.268,126.195 281.532 C 122.578 272.756,118.585 262.995,116.532 257.910 L 114.482 252.832 95.659 252.782 L 76.835 252.732 76.227 254.247 " stroke="none" fill="#535343" fill-rule="evenodd"></path><path id="path1" d="M91.211 17.823 C 91.157 17.875,90.190 17.976,89.063 18.047 C 42.823 20.963,10.914 62.357,19.062 108.855 C 20.058 114.538,21.978 121.154,23.522 124.219 C 23.982 125.132,24.552 126.486,24.789 127.227 C 27.330 135.182,36.554 139.263,43.848 135.658 C 44.600 135.287,45.268 135.044,45.333 135.118 C 45.398 135.193,46.909 138.901,48.692 143.359 C 50.474 147.817,54.144 156.958,56.846 163.672 C 59.549 170.386,61.920 176.282,62.115 176.775 L 62.469 177.670 60.390 177.714 C 59.246 177.738,58.282 177.786,58.247 177.821 C 58.195 177.872,58.163 204.745,58.196 220.166 L 58.203 223.633 67.090 223.633 L 75.976 223.633 75.923 238.232 L 75.869 252.832 74.052 257.129 C 72.258 261.374,71.248 263.817,68.847 269.727 C 68.170 271.392,67.222 273.721,66.740 274.902 C 63.698 282.359,62.500 285.378,62.497 285.594 C 62.493 285.890,59.829 292.090,59.705 292.090 C 59.658 292.090,58.463 291.268,57.051 290.263 C 53.979 288.078,54.009 288.079,52.465 290.131 C 51.510 291.399,49.292 294.870,49.165 295.294 C 49.090 295.544,65.477 306.445,65.928 306.445 C 66.259 306.445,66.843 305.736,68.540 303.271 C 71.704 298.675,72.238 297.876,73.490 295.859 C 74.823 293.709,76.954 290.352,81.212 283.691 C 87.636 273.645,91.989 266.804,93.806 263.906 C 95.574 261.085,95.692 260.942,95.917 261.367 C 96.331 262.146,102.600 272.020,114.469 290.585 C 115.588 292.336,117.075 294.692,117.773 295.822 C 118.472 296.951,119.414 298.419,119.867 299.084 C 124.550 305.956,124.908 306.438,125.345 306.442 C 125.774 306.445,129.056 304.321,137.461 298.598 C 139.641 297.113,141.543 295.898,141.688 295.898 C 142.519 295.898,140.996 292.879,138.711 289.998 C 137.138 288.014,137.545 287.937,133.085 291.068 L 131.502 292.180 130.226 289.108 C 129.524 287.418,128.623 285.156,128.224 284.082 C 127.825 283.008,126.992 280.898,126.373 279.395 C 125.754 277.891,124.696 275.298,124.024 273.633 C 121.443 267.245,117.671 258.065,116.103 254.358 L 115.261 252.368 115.251 238.000 L 115.240 223.633 124.222 223.633 L 133.203 223.633 133.204 222.705 C 133.211 218.043,133.216 184.226,133.211 181.403 L 133.203 177.748 131.269 177.692 L 129.334 177.637 131.140 173.145 C 132.134 170.674,135.963 161.138,139.649 151.953 C 143.335 142.769,146.368 135.230,146.389 135.202 C 146.409 135.173,146.996 135.416,147.693 135.742 C 155.051 139.186,164.097 135.115,166.617 127.227 C 166.854 126.486,167.424 125.132,167.884 124.219 C 171.207 117.623,173.508 105.588,173.525 94.727 C 173.575 61.505,154.767 34.015,124.164 22.578 C 118.982 20.642,110.730 18.860,103.320 18.077 C 101.875 17.925,91.334 17.704,91.211 17.823 M105.957 20.288 C 154.171 26.928,181.856 71.123,168.124 119.526 L 167.100 123.134 166.872 121.772 C 165.758 115.131,161.241 111.133,154.850 111.133 L 152.946 111.133 153.539 109.814 C 161.914 91.200,141.519 70.536,125.854 81.763 L 124.457 82.764 124.340 82.056 C 124.276 81.666,124.222 80.963,124.221 80.493 C 124.196 70.741,115.649 59.645,105.646 56.380 C 88.622 50.823,69.350 63.825,67.844 81.885 C 67.707 83.518,67.639 83.616,67.071 82.985 C 64.838 80.501,60.058 78.654,55.859 78.652 C 41.675 78.646,31.653 96.003,37.867 109.814 L 38.460 111.133 36.556 111.133 C 30.165 111.133,25.648 115.131,24.535 121.772 L 24.306 123.134 23.283 119.526 C 19.037 104.561,18.557 89.899,21.865 76.270 C 29.530 44.697,55.171 23.324,89.551 19.849 C 91.987 19.603,103.151 19.901,105.957 20.288 M102.344 57.592 C 114.485 60.394,122.150 70.471,122.060 83.517 C 122.043 86.071,122.097 86.819,122.319 87.076 C 122.546 87.340,122.644 89.055,122.831 95.996 C 122.959 100.723,123.322 112.808,123.639 122.852 C 123.955 132.896,124.215 141.410,124.217 141.774 L 124.219 142.434 121.631 142.332 C 113.341 142.007,105.290 136.885,98.886 127.861 C 96.589 124.623,96.778 124.805,95.703 124.805 C 94.628 124.805,94.818 124.623,92.520 127.861 C 86.185 136.788,78.098 141.978,69.971 142.331 L 67.578 142.436 67.578 141.872 C 67.578 141.561,67.796 134.364,68.063 125.878 C 68.848 100.896,69.127 90.895,69.120 87.988 C 69.116 86.484,69.115 84.749,69.117 84.132 C 69.130 81.159,70.455 76.264,72.177 72.831 C 77.898 61.417,90.761 54.919,102.344 57.592 M58.825 80.557 C 61.829 81.194,64.024 82.424,66.531 84.877 L 68.341 86.649 68.071 93.666 C 67.923 97.526,67.529 109.561,67.195 120.410 C 66.861 131.260,66.525 140.630,66.448 141.234 L 66.309 142.331 64.483 141.960 C 59.637 140.975,55.666 138.554,50.869 133.659 C 49.360 132.119,47.997 130.859,47.842 130.859 C 47.649 130.859,47.004 129.317,45.821 126.025 C 42.688 117.306,40.878 112.628,39.870 110.645 C 32.544 96.228,44.350 77.489,58.825 80.557 M138.366 80.558 C 150.832 82.943,157.623 98.657,151.447 110.826 C 150.844 112.013,150.404 113.118,150.456 113.315 C 150.507 113.511,150.265 114.396,149.917 115.283 C 149.569 116.169,148.117 120.119,146.691 124.060 C 144.276 130.732,144.072 131.210,143.732 130.998 C 143.410 130.797,143.044 131.101,140.580 133.615 C 136.778 137.495,134.068 139.445,130.456 140.899 C 128.711 141.602,125.677 142.344,125.455 142.121 C 125.382 142.049,125.034 133.003,124.681 122.020 C 124.328 111.037,123.916 98.755,123.765 94.727 C 123.501 87.652,123.504 87.386,123.855 86.937 C 124.055 86.680,124.219 86.242,124.219 85.962 C 124.219 85.589,124.553 85.139,125.468 84.279 C 128.967 80.992,133.620 79.650,138.366 80.558 M39.885 113.136 C 40.222 113.478,40.658 114.402,41.085 115.675 C 41.454 116.775,42.826 120.680,44.135 124.352 L 46.514 131.029 45.699 131.774 C 40.979 136.091,34.225 135.944,29.707 131.426 C 23.677 125.396,25.816 115.520,33.691 113.026 C 36.040 112.282,39.099 112.336,39.885 113.136 M157.822 113.044 C 164.544 115.428,167.197 122.880,163.532 129.082 C 159.896 135.234,151.453 136.823,146.338 132.318 C 145.060 131.193,144.947 131.950,147.436 124.984 C 148.604 121.717,149.972 117.813,150.476 116.309 C 151.554 113.097,151.711 112.745,152.128 112.616 C 152.896 112.380,156.769 112.671,157.822 113.044 M96.918 129.248 C 97.507 130.188,99.289 133.506,100.879 136.621 C 104.406 143.535,114.989 164.064,120.540 174.763 C 124.330 182.067,124.828 183.208,124.101 182.930 C 123.880 182.844,123.828 183.164,123.825 184.625 C 123.824 185.616,123.821 191.845,123.819 198.468 C 123.816 209.160,123.782 210.523,123.513 210.626 C 123.346 210.690,121.460 210.742,119.320 210.742 L 115.430 210.742 115.430 202.270 C 115.430 195.006,115.471 193.763,115.720 193.557 C 115.880 193.424,116.908 192.132,118.004 190.686 L 119.996 188.057 120.068 186.362 C 120.579 174.266,108.400 161.952,95.898 161.924 C 84.072 161.898,72.248 173.263,71.916 184.975 L 71.830 188.016 73.323 189.955 C 74.145 191.022,75.075 192.215,75.391 192.607 L 75.964 193.319 75.972 202.025 L 75.980 210.731 71.779 210.734 L 67.578 210.736 67.578 196.886 C 67.578 185.116,67.537 183.027,67.302 182.973 C 67.108 182.929,68.180 180.688,70.930 175.391 C 77.518 162.700,88.146 142.074,91.939 134.619 C 93.920 130.725,95.610 127.539,95.694 127.539 C 95.779 127.539,96.329 128.308,96.918 129.248 M143.141 133.910 C 142.906 134.542,142.576 135.269,142.409 135.527 C 142.242 135.784,142.082 136.136,142.053 136.308 C 142.025 136.480,139.754 142.861,137.007 150.488 C 134.261 158.115,130.944 167.366,129.638 171.045 C 127.001 178.470,126.564 179.219,126.561 176.318 C 126.560 175.009,126.330 167.419,126.081 160.449 C 125.708 150.032,125.562 144.686,125.647 144.601 C 125.701 144.547,126.390 144.370,127.179 144.208 C 130.099 143.607,133.069 142.353,135.789 140.573 C 137.622 139.373,139.857 137.553,139.791 137.314 C 139.766 137.226,140.235 136.594,140.833 135.911 C 141.431 135.227,142.261 134.209,142.678 133.648 C 143.609 132.394,143.688 132.439,143.141 133.910 M52.557 148.327 C 54.369 153.369,55.819 157.527,55.780 157.567 C 55.740 157.607,54.106 153.620,52.150 148.706 C 50.193 143.793,48.065 138.508,47.420 136.962 L 46.249 134.150 46.697 133.673 L 47.145 133.196 48.203 136.178 C 48.785 137.818,50.744 143.285,52.557 148.327 M144.733 136.098 C 144.330 137.030,142.220 142.258,140.043 147.714 C 137.867 153.171,136.054 157.603,136.014 157.564 C 135.974 157.524,136.984 154.597,138.259 151.060 C 139.533 147.523,141.391 142.344,142.387 139.551 C 143.382 136.758,144.275 134.262,144.370 134.005 L 144.543 133.537 145.005 133.970 L 145.466 134.404 144.733 136.098 M89.487 136.572 C 88.315 138.784,84.095 146.939,74.606 165.332 C 71.779 170.811,68.823 176.523,68.037 178.027 L 66.608 180.762 66.605 178.892 C 66.602 177.152,67.044 162.493,67.273 156.738 C 67.329 155.342,67.433 152.068,67.505 149.463 L 67.636 144.727 69.511 144.726 C 76.454 144.723,83.477 141.516,89.155 135.756 C 89.904 134.997,90.547 134.375,90.584 134.375 C 90.621 134.375,90.127 135.364,89.487 136.572 M55.187 140.286 C 58.338 142.380,61.238 143.615,64.517 144.259 L 66.211 144.592 66.210 145.392 C 66.209 145.832,66.124 148.564,66.021 151.465 C 65.918 154.365,65.783 158.320,65.720 160.254 C 65.658 162.188,65.525 166.230,65.424 169.238 C 65.323 172.246,65.239 175.388,65.237 176.221 C 65.231 179.212,64.811 178.522,62.263 171.338 C 60.127 165.317,49.613 136.060,49.307 135.287 C 49.229 135.091,50.078 135.841,51.194 136.956 C 52.445 138.204,53.976 139.482,55.187 140.286 M105.664 138.794 C 107.055 139.878,108.771 141.001,109.793 141.497 C 110.346 141.766,110.390 141.768,110.070 141.513 C 109.495 141.054,109.742 141.136,111.739 142.063 C 112.748 142.532,113.914 143.026,114.330 143.160 C 114.890 143.342,115.016 143.451,114.818 143.583 C 114.645 143.699,114.749 143.716,115.117 143.630 C 115.557 143.527,115.648 143.555,115.524 143.755 C 115.412 143.937,115.454 143.978,115.667 143.896 C 115.832 143.833,116.045 143.858,116.140 143.952 C 116.453 144.265,119.989 144.725,122.090 144.726 L 124.161 144.727 124.292 149.463 C 124.364 152.068,124.468 155.342,124.524 156.738 C 124.753 162.493,125.195 177.152,125.192 178.892 L 125.189 180.762 123.760 178.027 C 122.974 176.523,120.018 170.811,117.191 165.332 C 106.403 144.422,103.249 138.326,102.391 136.719 L 101.505 135.059 102.950 136.432 C 103.744 137.187,104.966 138.250,105.664 138.794 M110.563 141.861 C 110.895 142.121,112.109 142.786,112.109 142.708 C 112.109 142.581,110.842 141.797,110.638 141.797 C 110.552 141.797,110.518 141.826,110.563 141.861 M113.281 143.131 C 113.442 143.231,113.794 143.371,114.063 143.443 C 114.402 143.534,114.461 143.518,114.258 143.392 C 114.097 143.293,113.745 143.153,113.477 143.081 C 113.137 142.990,113.078 143.005,113.281 143.131 M101.238 163.939 C 110.652 166.388,118.945 176.591,118.945 185.724 L 118.945 186.719 95.898 186.719 L 72.852 186.719 72.853 186.279 C 72.859 183.905,73.937 179.810,75.281 177.051 C 80.327 166.700,91.042 161.287,101.238 163.939 M63.651 180.225 C 64.135 181.427,64.260 182.024,64.259 183.129 L 64.258 184.520 65.051 184.647 C 65.923 184.787,66.211 184.692,66.211 184.266 C 66.211 184.111,66.299 183.984,66.406 183.984 C 66.526 183.984,66.602 184.896,66.602 186.328 L 66.602 188.672 62.891 188.672 L 59.180 188.672 59.180 183.691 L 59.180 178.711 61.111 178.711 L 63.042 178.711 63.651 180.225 M132.227 183.691 L 132.227 188.672 128.516 188.672 L 124.805 188.672 124.805 186.328 C 124.805 184.115,124.826 183.984,125.195 183.984 C 125.416 183.984,125.586 184.115,125.586 184.283 C 125.586 184.448,125.718 184.633,125.879 184.695 C 126.040 184.757,126.172 184.930,126.172 185.079 C 126.172 185.239,126.373 185.352,126.660 185.352 C 127.133 185.352,127.148 185.309,127.148 184.033 C 127.147 182.942,127.285 182.369,127.950 180.713 L 128.754 178.711 130.490 178.711 L 132.227 178.711 132.227 183.691 M134.233 181.836 C 134.233 182.319,134.271 182.517,134.318 182.275 C 134.364 182.034,134.364 181.638,134.318 181.396 C 134.271 181.155,134.233 181.353,134.233 181.836 M75.977 189.554 C 75.977 190.573,75.942 191.406,75.900 191.406 C 75.809 191.406,73.047 187.926,73.047 187.811 C 73.047 187.767,73.706 187.725,74.512 187.717 L 75.977 187.702 75.977 189.554 M114.453 190.686 L 114.453 193.676 110.715 198.352 C 108.659 200.923,106.184 204.038,105.215 205.273 C 104.247 206.509,102.831 208.244,102.069 209.130 L 100.684 210.741 95.898 210.728 L 91.113 210.715 90.137 209.524 C 89.600 208.869,86.416 204.898,83.061 200.700 L 76.962 193.066 76.957 190.381 L 76.953 187.695 95.703 187.695 L 114.453 187.695 114.453 190.686 M118.664 187.994 C 118.455 188.152,118.348 188.281,118.426 188.281 C 118.504 188.281,117.896 189.116,117.075 190.137 C 116.254 191.157,115.548 191.992,115.506 191.992 C 115.464 191.992,115.430 191.025,115.430 189.844 L 115.430 187.695 117.236 187.702 C 118.867 187.707,119.006 187.736,118.664 187.994 M66.602 200.684 L 66.602 211.719 78.223 211.719 L 89.844 211.719 89.844 214.844 L 89.844 217.969 95.801 217.969 L 101.758 217.969 101.758 214.844 L 101.758 211.719 113.281 211.719 L 124.805 211.719 124.805 200.684 L 124.805 189.648 128.516 189.648 L 132.227 189.648 132.227 206.152 L 132.227 222.656 123.242 222.656 L 114.258 222.656 114.258 237.207 L 114.258 251.758 95.605 251.758 L 76.953 251.758 76.953 237.207 L 76.953 222.656 68.066 222.656 L 59.180 222.656 59.180 206.152 L 59.180 189.648 62.891 189.648 L 66.602 189.648 66.602 200.684 M88.659 194.350 C 86.795 196.345,87.959 201.898,90.006 200.772 C 91.823 199.772,91.910 194.789,90.125 193.975 C 89.411 193.650,89.281 193.684,88.659 194.350 M101.605 194.055 C 100.454 194.861,100.024 198.138,100.879 199.589 C 102.296 201.994,104.102 200.911,104.100 197.656 C 104.099 194.675,102.994 193.082,101.605 194.055 M83.241 202.179 C 86.496 206.273,89.364 209.875,89.614 210.183 L 90.067 210.742 83.510 210.742 L 76.953 210.742 76.953 202.625 C 76.953 197.590,77.023 194.551,77.137 194.622 C 77.239 194.685,79.985 198.086,83.241 202.179 M114.388 210.678 C 114.349 210.716,111.521 210.725,108.103 210.696 L 101.889 210.645 102.857 209.473 C 103.390 208.828,106.195 205.315,109.091 201.666 L 114.355 195.031 114.407 202.819 C 114.435 207.103,114.426 210.639,114.388 210.678 M67.840 208.887 C 67.841 209.746,67.875 210.073,67.917 209.614 C 67.958 209.155,67.957 208.451,67.915 208.051 C 67.873 207.651,67.840 208.027,67.840 208.887 M100.781 214.355 L 100.781 216.992 95.801 216.992 L 90.820 216.992 90.820 214.355 L 90.820 211.719 95.801 211.719 L 100.781 211.719 100.781 214.355 M114.755 253.174 C 114.907 253.679,121.084 268.891,125.278 279.090 C 126.844 282.897,128.125 286.064,128.125 286.128 C 128.125 286.192,126.829 287.159,125.244 288.276 C 123.660 289.393,121.281 291.095,119.958 292.058 C 117.924 293.539,117.514 293.767,117.298 293.535 C 117.158 293.385,113.633 287.900,109.465 281.348 C 105.297 274.795,100.661 267.544,99.162 265.234 C 97.663 262.925,96.339 260.881,96.218 260.693 C 95.731 259.932,95.323 260.312,93.283 263.428 C 91.591 266.011,76.325 289.909,74.505 292.822 C 73.782 293.980,74.102 294.065,71.160 291.935 C 69.319 290.602,63.860 286.723,63.136 286.233 C 63.110 286.215,64.062 283.834,65.251 280.942 C 66.441 278.050,69.432 270.718,71.898 264.648 C 74.365 258.579,76.465 253.416,76.566 253.174 L 76.749 252.734 95.686 252.734 L 114.622 252.734 114.755 253.174 " stroke="none" fill="#141c1b" fill-rule="evenodd"></path><path id="path2" d="M250.673 175.048 C 250.883 176.902,251.102 176.897,251.297 175.033 C 251.418 173.873,251.406 173.828,250.979 173.828 C 250.550 173.828,250.540 173.869,250.673 175.048 M59.180 183.691 L 59.180 188.672 62.891 188.672 L 66.602 188.672 66.597 186.279 C 66.593 183.953,66.583 183.899,66.248 184.335 C 65.949 184.724,65.793 184.766,65.080 184.652 L 64.258 184.520 64.258 183.143 C 64.258 182.042,64.132 181.458,63.633 180.238 L 63.009 178.711 61.094 178.711 L 59.180 178.711 59.180 183.691 M127.969 180.713 C 127.282 182.386,127.147 182.931,127.148 184.033 C 127.148 185.309,127.133 185.352,126.660 185.352 C 126.392 185.352,126.172 185.268,126.172 185.166 C 126.172 184.897,125.287 183.984,125.026 183.984 C 124.873 183.984,124.805 184.710,124.805 186.328 L 124.805 188.672 128.516 188.672 L 132.227 188.672 132.227 183.691 L 132.227 178.711 130.508 178.711 L 128.790 178.711 127.969 180.713 M76.959 190.381 L 76.964 193.066 80.796 197.852 C 82.903 200.483,85.420 203.647,86.389 204.883 C 87.359 206.118,88.853 207.942,89.710 208.936 L 91.267 210.742 95.975 210.738 L 100.684 210.735 102.287 208.834 C 103.169 207.789,106.267 203.945,109.171 200.293 L 114.451 193.652 114.452 190.674 L 114.453 187.695 95.703 187.695 L 76.953 187.695 76.959 190.381 M90.501 194.231 C 91.219 194.896,91.432 195.572,91.439 197.194 C 91.455 201.419,88.198 202.417,87.770 198.318 C 87.440 195.157,88.993 192.833,90.501 194.231 M103.230 194.265 C 104.532 195.669,104.411 199.795,103.043 200.692 C 100.868 202.116,99.349 196.324,101.368 194.305 C 102.060 193.613,102.615 193.601,103.230 194.265 M76.953 202.593 L 76.953 210.742 83.493 210.742 L 90.033 210.742 83.861 202.979 C 80.466 198.708,77.523 195.042,77.321 194.830 C 76.961 194.452,76.953 194.608,76.953 202.593 M108.372 202.559 C 105.110 206.653,102.321 210.168,102.173 210.372 C 101.912 210.733,102.056 210.742,108.179 210.742 L 114.453 210.742 114.453 202.930 C 114.453 198.633,114.419 195.117,114.378 195.117 C 114.336 195.117,111.633 198.466,108.372 202.559 M90.820 214.355 L 90.820 216.992 95.801 216.992 L 100.781 216.992 100.781 214.355 L 100.781 211.719 95.801 211.719 L 90.820 211.719 90.820 214.355 " stroke="none" fill="#432b0c" fill-rule="evenodd"></path><path id="path3" d="M92.432 19.861 C 92.620 19.910,92.927 19.910,93.115 19.861 C 93.303 19.812,93.149 19.772,92.773 19.772 C 92.397 19.772,92.244 19.812,92.432 19.861 M98.291 19.861 C 98.479 19.910,98.787 19.910,98.975 19.861 C 99.163 19.812,99.009 19.772,98.633 19.772 C 98.257 19.772,98.103 19.812,98.291 19.861 M94.141 57.316 C 93.979 57.355,93.188 57.492,92.383 57.621 C 83.442 59.052,75.187 65.793,71.468 74.698 C 70.057 78.077,68.793 84.141,69.279 85.206 C 69.415 85.505,69.430 86.595,69.323 88.481 C 69.236 90.036,69.068 95.308,68.951 100.195 C 68.834 105.083,68.699 109.697,68.652 110.449 C 68.604 111.201,68.517 113.882,68.458 116.406 C 68.399 118.931,68.310 121.875,68.259 122.949 C 68.208 124.023,68.077 128.418,67.967 132.715 C 67.857 137.012,67.726 140.901,67.676 141.357 L 67.586 142.188 69.446 142.188 C 76.497 142.188,84.487 137.685,90.416 130.371 C 91.901 128.539,93.945 125.672,93.945 125.420 C 93.945 125.018,94.832 124.609,95.703 124.609 C 96.575 124.609,97.461 125.018,97.461 125.420 C 97.461 125.532,98.006 126.384,98.671 127.313 C 105.559 136.934,113.852 142.188,122.151 142.188 L 124.200 142.188 124.114 141.260 C 124.066 140.750,123.938 136.904,123.829 132.715 C 123.720 128.525,123.589 124.087,123.537 122.852 C 123.486 121.616,123.397 118.804,123.340 116.602 C 123.282 114.399,123.193 111.587,123.141 110.352 C 123.088 109.116,122.959 104.678,122.854 100.488 C 122.558 88.762,122.488 87.463,122.134 87.072 C 121.881 86.793,121.844 86.323,121.916 84.334 C 122.400 71.045,114.525 60.492,102.051 57.711 C 100.808 57.434,94.880 57.138,94.141 57.316 M55.618 78.458 C 55.860 78.505,56.212 78.503,56.399 78.455 C 56.585 78.406,56.387 78.367,55.957 78.370 C 55.527 78.372,55.375 78.412,55.618 78.458 M135.110 78.458 C 135.353 78.505,135.704 78.503,135.891 78.455 C 136.078 78.406,135.879 78.367,135.449 78.370 C 135.020 78.372,134.867 78.412,135.110 78.458 M52.246 80.878 C 40.316 83.785,34.094 99.218,40.137 110.917 C 40.620 111.853,41.016 112.713,41.016 112.828 C 41.016 112.943,41.245 113.554,41.525 114.185 C 41.948 115.135,45.272 124.164,47.121 129.379 C 47.448 130.303,47.710 130.747,47.948 130.782 C 48.140 130.810,49.493 132.055,50.955 133.549 C 55.873 138.576,59.767 140.877,65.057 141.885 L 66.356 142.133 66.484 138.400 C 66.554 136.348,66.782 129.263,66.991 122.656 C 67.200 116.050,67.418 109.370,67.476 107.813 C 67.534 106.255,67.716 101.025,67.880 96.191 C 68.045 91.357,68.198 87.286,68.221 87.144 C 68.282 86.757,65.890 84.253,64.551 83.301 C 60.897 80.704,56.508 79.839,52.246 80.878 M131.988 80.868 C 128.847 81.640,124.414 84.573,124.414 85.879 C 124.414 86.383,124.088 87.126,123.780 87.328 C 123.616 87.435,123.747 92.388,124.321 107.813 C 124.379 109.370,124.597 116.050,124.805 122.656 C 125.453 143.196,125.392 141.992,125.785 141.992 C 129.570 141.992,135.569 138.523,140.560 133.447 C 142.986 130.981,143.375 130.658,143.709 130.838 C 144.060 131.025,144.144 130.893,144.727 129.242 C 145.940 125.810,149.774 115.329,150.081 114.606 C 150.251 114.207,150.391 113.596,150.391 113.249 C 150.391 112.884,150.761 111.902,151.269 110.917 C 158.899 96.146,146.765 77.235,131.988 80.868 M19.776 96.973 C 19.778 97.402,19.818 97.555,19.865 97.312 C 19.911 97.069,19.910 96.718,19.861 96.531 C 19.812 96.344,19.774 96.543,19.776 96.973 M171.534 96.973 C 171.536 97.402,171.576 97.555,171.623 97.312 C 171.669 97.069,171.667 96.718,171.619 96.531 C 171.570 96.344,171.531 96.543,171.534 96.973 M34.082 113.060 C 28.546 114.652,25.313 120.205,26.683 125.769 C 28.742 134.135,39.036 137.591,45.201 131.987 L 46.360 130.933 43.613 123.133 C 42.102 118.842,40.754 114.982,40.618 114.555 C 40.019 112.678,37.452 112.091,34.082 113.060 M151.762 113.078 C 151.649 113.289,150.989 115.113,150.294 117.131 C 149.600 119.149,148.199 123.130,147.181 125.977 L 145.331 131.152 146.347 132.094 C 152.302 137.611,162.688 134.037,164.723 125.769 C 166.113 120.123,162.735 114.466,157.101 113.006 C 155.268 112.531,152.031 112.575,151.762 113.078 M142.242 134.434 C 141.794 134.992,141.142 135.790,140.792 136.207 L 140.156 136.965 140.758 136.653 C 141.849 136.089,142.539 135.359,142.853 134.437 C 143.262 133.236,143.202 133.236,142.242 134.434 M111.523 170.020 C 111.888 170.396,112.230 170.703,112.284 170.703 C 112.337 170.703,112.083 170.396,111.719 170.020 C 111.354 169.644,111.012 169.336,110.959 169.336 C 110.905 169.336,111.159 169.644,111.523 170.020 " stroke="none" fill="#444434" fill-rule="evenodd"></path><path id="path4" d="M96.533 55.023 C 96.829 55.067,97.312 55.067,97.607 55.023 C 97.903 54.978,97.661 54.941,97.070 54.941 C 96.479 54.941,96.238 54.978,96.533 55.023 M43.945 85.449 C 43.471 85.933,43.127 86.328,43.180 86.328 C 43.234 86.328,43.666 85.933,44.141 85.449 C 44.615 84.966,44.959 84.570,44.906 84.570 C 44.852 84.570,44.420 84.966,43.945 85.449 M147.257 85.400 C 147.736 85.911,148.154 86.328,148.185 86.328 C 148.332 86.328,148.177 86.153,147.314 85.343 L 146.387 84.473 147.257 85.400 M68.014 92.969 C 68.014 93.345,68.054 93.499,68.103 93.311 C 68.153 93.123,68.153 92.815,68.103 92.627 C 68.054 92.439,68.014 92.593,68.014 92.969 M123.678 92.969 C 123.678 93.345,123.718 93.499,123.767 93.311 C 123.817 93.123,123.817 92.815,123.767 92.627 C 123.718 92.439,123.678 92.593,123.678 92.969 M68.999 94.531 C 68.999 95.015,69.037 95.212,69.083 94.971 C 69.130 94.729,69.130 94.333,69.083 94.092 C 69.037 93.850,68.999 94.048,68.999 94.531 M122.709 94.531 C 122.709 95.015,122.748 95.212,122.794 94.971 C 122.841 94.729,122.841 94.333,122.794 94.092 C 122.748 93.850,122.709 94.048,122.709 94.531 M37.563 101.172 C 37.563 101.870,37.598 102.156,37.641 101.807 C 37.685 101.458,37.685 100.886,37.641 100.537 C 37.598 100.188,37.563 100.474,37.563 101.172 M153.773 101.172 C 153.773 101.870,153.809 102.156,153.852 101.807 C 153.896 101.458,153.896 100.886,153.852 100.537 C 153.809 100.188,153.773 100.474,153.773 101.172 M68.799 101.270 C 68.801 101.699,68.841 101.852,68.888 101.609 C 68.935 101.366,68.933 101.015,68.884 100.828 C 68.835 100.641,68.797 100.840,68.799 101.270 M122.901 101.270 C 122.903 101.699,122.943 101.852,122.990 101.609 C 123.036 101.366,123.035 101.015,122.986 100.828 C 122.937 100.641,122.899 100.840,122.901 101.270 M68.600 107.617 C 68.600 107.993,68.640 108.147,68.689 107.959 C 68.738 107.771,68.738 107.463,68.689 107.275 C 68.640 107.087,68.600 107.241,68.600 107.617 M123.092 107.617 C 123.092 107.993,123.132 108.147,123.182 107.959 C 123.231 107.771,123.231 107.463,123.182 107.275 C 123.132 107.087,123.092 107.241,123.092 107.617 M67.432 110.059 C 67.434 110.488,67.474 110.641,67.521 110.398 C 67.568 110.155,67.566 109.804,67.517 109.617 C 67.468 109.430,67.430 109.629,67.432 110.059 M124.268 110.059 C 124.270 110.488,124.310 110.641,124.357 110.398 C 124.404 110.155,124.402 109.804,124.353 109.617 C 124.304 109.430,124.266 109.629,124.268 110.059 M35.986 111.072 C 36.174 111.121,36.482 111.121,36.670 111.072 C 36.858 111.023,36.704 110.983,36.328 110.983 C 35.952 110.983,35.798 111.023,35.986 111.072 M154.836 111.076 C 155.079 111.122,155.431 111.121,155.618 111.072 C 155.804 111.023,155.605 110.985,155.176 110.987 C 154.746 110.989,154.593 111.029,154.836 111.076 M68.405 114.063 C 68.405 114.438,68.445 114.592,68.494 114.404 C 68.543 114.216,68.543 113.909,68.494 113.721 C 68.445 113.533,68.405 113.687,68.405 114.063 M123.288 114.063 C 123.288 114.438,123.328 114.592,123.377 114.404 C 123.426 114.216,123.426 113.909,123.377 113.721 C 123.328 113.533,123.288 113.687,123.288 114.063 M67.233 116.211 C 67.233 116.587,67.273 116.741,67.322 116.553 C 67.371 116.365,67.371 116.057,67.322 115.869 C 67.273 115.681,67.233 115.835,67.233 116.211 M124.459 116.211 C 124.459 116.587,124.500 116.741,124.549 116.553 C 124.598 116.365,124.598 116.057,124.549 115.869 C 124.500 115.681,124.459 115.835,124.459 116.211 M68.213 120.215 C 68.215 120.645,68.255 120.797,68.302 120.554 C 68.349 120.311,68.347 119.960,68.298 119.773 C 68.249 119.586,68.211 119.785,68.213 120.215 M123.487 120.215 C 123.489 120.645,123.529 120.797,123.576 120.554 C 123.622 120.311,123.621 119.960,123.572 119.773 C 123.523 119.586,123.485 119.785,123.487 120.215 M67.041 122.363 C 67.044 122.793,67.084 122.946,67.130 122.703 C 67.177 122.460,67.175 122.108,67.126 121.922 C 67.077 121.735,67.039 121.934,67.041 122.363 M124.659 122.363 C 124.661 122.793,124.701 122.946,124.748 122.703 C 124.794 122.460,124.792 122.108,124.744 121.922 C 124.695 121.735,124.656 121.934,124.659 122.363 M68.018 126.660 C 68.020 127.090,68.060 127.243,68.107 127.000 C 68.154 126.757,68.152 126.405,68.103 126.218 C 68.054 126.032,68.016 126.230,68.018 126.660 M123.682 126.660 C 123.684 127.090,123.724 127.243,123.771 127.000 C 123.818 126.757,123.816 126.405,123.767 126.218 C 123.718 126.032,123.680 126.230,123.682 126.660 M66.846 128.223 C 66.848 128.652,66.888 128.805,66.935 128.562 C 66.982 128.319,66.980 127.968,66.931 127.781 C 66.882 127.594,66.844 127.793,66.846 128.223 M124.854 128.223 C 124.856 128.652,124.896 128.805,124.943 128.562 C 124.990 128.319,124.988 127.968,124.939 127.781 C 124.890 127.594,124.852 127.793,124.854 128.223 M67.827 133.008 C 67.827 133.491,67.865 133.689,67.911 133.447 C 67.958 133.206,67.958 132.810,67.911 132.568 C 67.865 132.327,67.827 132.524,67.827 133.008 M123.881 133.008 C 123.881 133.491,123.919 133.689,123.966 133.447 C 124.013 133.206,124.013 132.810,123.966 132.568 C 123.919 132.327,123.881 132.524,123.881 133.008 M87.695 133.496 C 87.221 133.979,86.877 134.375,86.930 134.375 C 86.984 134.375,87.416 133.979,87.891 133.496 C 88.365 133.013,88.709 132.617,88.656 132.617 C 88.602 132.617,88.170 133.013,87.695 133.496 M103.507 133.447 C 103.986 133.958,104.404 134.375,104.435 134.375 C 104.582 134.375,104.427 134.200,103.564 133.390 L 102.637 132.520 103.507 133.447 M51.563 134.473 C 52.255 135.171,52.865 135.742,52.918 135.742 C 52.972 135.742,52.450 135.171,51.758 134.473 C 51.066 133.774,50.456 133.203,50.402 133.203 C 50.348 133.203,50.870 133.774,51.563 134.473 M139.643 134.521 L 138.379 135.840 139.697 134.576 C 140.422 133.881,141.016 133.288,141.016 133.258 C 141.016 133.114,140.817 133.297,139.643 134.521 M66.655 134.180 C 66.655 134.663,66.693 134.861,66.739 134.619 C 66.786 134.377,66.786 133.982,66.739 133.740 C 66.693 133.499,66.655 133.696,66.655 134.180 M125.053 134.180 C 125.053 134.663,125.091 134.861,125.138 134.619 C 125.184 134.377,125.184 133.982,125.138 133.740 C 125.091 133.499,125.053 133.696,125.053 134.180 M67.627 139.160 C 67.630 139.590,67.670 139.743,67.716 139.500 C 67.763 139.257,67.761 138.905,67.712 138.718 C 67.663 138.532,67.625 138.730,67.627 139.160 M124.073 139.160 C 124.075 139.590,124.115 139.743,124.162 139.500 C 124.208 139.257,124.207 138.905,124.158 138.718 C 124.109 138.532,124.071 138.730,124.073 139.160 M66.456 140.527 C 66.458 140.957,66.498 141.110,66.544 140.867 C 66.591 140.624,66.589 140.272,66.540 140.086 C 66.492 139.899,66.453 140.098,66.456 140.527 M125.245 140.527 C 125.247 140.957,125.287 141.110,125.333 140.867 C 125.380 140.624,125.378 140.272,125.330 140.086 C 125.281 139.899,125.242 140.098,125.245 140.527 M110.070 141.498 C 110.279 141.655,110.581 141.784,110.742 141.784 C 110.912 141.783,110.830 141.666,110.547 141.504 C 109.905 141.137,109.588 141.133,110.070 141.498 M113.960 143.156 C 114.084 143.357,115.417 143.828,115.533 143.711 C 115.576 143.669,115.215 143.487,114.732 143.308 C 114.248 143.129,113.901 143.060,113.960 143.156 " stroke="none" fill="#242c24" fill-rule="evenodd"></path><path id="path5" d="M96.826 57.169 C 97.068 57.216,97.463 57.216,97.705 57.169 C 97.947 57.123,97.749 57.084,97.266 57.084 C 96.782 57.084,96.584 57.123,96.826 57.169 " stroke="none" fill="#31352c" fill-rule="evenodd"></path><path id="path6" d="M114.551 64.453 C 115.080 64.990,115.557 65.430,115.610 65.430 C 115.664 65.430,115.275 64.990,114.746 64.453 C 114.217 63.916,113.740 63.477,113.687 63.477 C 113.633 63.477,114.022 63.916,114.551 64.453 M121.920 83.789 C 121.920 84.165,121.961 84.319,122.010 84.131 C 122.059 83.943,122.059 83.635,122.010 83.447 C 121.961 83.259,121.920 83.413,121.920 83.789 M69.190 88.965 C 69.192 89.395,69.232 89.547,69.279 89.304 C 69.325 89.061,69.324 88.710,69.275 88.523 C 69.226 88.336,69.188 88.535,69.190 88.965 M122.510 88.965 C 122.512 89.395,122.552 89.547,122.599 89.304 C 122.646 89.061,122.644 88.710,122.595 88.523 C 122.546 88.336,122.508 88.535,122.510 88.965 M68.991 96.680 C 68.991 97.056,69.031 97.209,69.080 97.021 C 69.129 96.833,69.129 96.526,69.080 96.338 C 69.031 96.150,68.991 96.304,68.991 96.680 M122.702 96.680 C 122.702 97.056,122.742 97.209,122.791 97.021 C 122.840 96.833,122.840 96.526,122.791 96.338 C 122.742 96.150,122.702 96.304,122.702 96.680 M68.799 103.418 C 68.801 103.848,68.841 104.000,68.888 103.757 C 68.935 103.515,68.933 103.163,68.884 102.976 C 68.835 102.790,68.797 102.988,68.799 103.418 M122.901 103.418 C 122.903 103.848,122.943 104.000,122.990 103.757 C 123.036 103.515,123.035 103.163,122.986 102.976 C 122.937 102.790,122.899 102.988,122.901 103.418 M29.286 115.771 L 28.613 116.504 29.346 115.831 C 30.027 115.204,30.168 115.039,30.019 115.039 C 29.986 115.039,29.657 115.369,29.286 115.771 M161.914 115.723 C 162.278 116.099,162.621 116.406,162.674 116.406 C 162.728 116.406,162.474 116.099,162.109 115.723 C 161.745 115.347,161.403 115.039,161.349 115.039 C 161.295 115.039,161.550 115.347,161.914 115.723 M29.590 131.250 C 30.009 131.680,30.397 132.031,30.450 132.031 C 30.504 132.031,30.205 131.680,29.785 131.250 C 29.366 130.820,28.978 130.469,28.925 130.469 C 28.871 130.469,29.170 130.820,29.590 131.250 M161.612 131.299 L 160.840 132.129 161.670 131.357 C 162.126 130.932,162.500 130.559,162.500 130.527 C 162.500 130.379,162.330 130.527,161.612 131.299 M66.647 132.227 C 66.647 132.603,66.687 132.756,66.736 132.568 C 66.785 132.380,66.785 132.073,66.736 131.885 C 66.687 131.697,66.647 131.851,66.647 132.227 M125.045 132.227 C 125.045 132.603,125.086 132.756,125.135 132.568 C 125.184 132.380,125.184 132.073,125.135 131.885 C 125.086 131.697,125.045 131.851,125.045 132.227 M88.562 132.471 L 87.988 133.105 88.623 132.532 C 89.215 131.997,89.348 131.836,89.197 131.836 C 89.163 131.836,88.877 132.122,88.562 132.471 M102.148 131.897 C 102.148 131.931,102.434 132.216,102.783 132.532 L 103.418 133.105 102.844 132.471 C 102.310 131.879,102.148 131.746,102.148 131.897 M86.708 134.326 L 86.035 135.059 86.768 134.386 C 87.449 133.759,87.590 133.594,87.441 133.594 C 87.408 133.594,87.078 133.923,86.708 134.326 M104.492 134.277 C 104.857 134.653,105.199 134.961,105.252 134.961 C 105.306 134.961,105.052 134.653,104.688 134.277 C 104.323 133.901,103.981 133.594,103.927 133.594 C 103.874 133.594,104.128 133.901,104.492 134.277 M67.819 135.156 C 67.819 135.532,67.859 135.686,67.908 135.498 C 67.957 135.310,67.957 135.002,67.908 134.814 C 67.859 134.626,67.819 134.780,67.819 135.156 M123.873 135.156 C 123.873 135.532,123.914 135.686,123.963 135.498 C 124.012 135.310,124.012 135.002,123.963 134.814 C 123.914 134.626,123.873 134.780,123.873 135.156 M140.350 136.504 C 140.130 136.747,140.085 136.920,140.222 137.004 C 140.336 137.075,140.441 137.083,140.454 137.023 C 140.468 136.963,140.491 136.848,140.506 136.768 C 140.521 136.687,140.603 136.511,140.688 136.377 C 140.920 136.012,140.731 136.083,140.350 136.504 M68.213 142.330 C 68.616 142.372,69.275 142.372,69.678 142.330 C 70.081 142.288,69.751 142.253,68.945 142.253 C 68.140 142.253,67.810 142.288,68.213 142.330 M121.831 142.331 C 122.291 142.372,122.994 142.371,123.394 142.329 C 123.794 142.288,123.418 142.254,122.559 142.254 C 121.699 142.255,121.372 142.290,121.831 142.331 " stroke="none" fill="#3c3b2c" fill-rule="evenodd"></path><path id="path7" d="M37.744 112.635 C 37.932 112.684,38.240 112.684,38.428 112.635 C 38.616 112.586,38.462 112.545,38.086 112.545 C 37.710 112.545,37.556 112.586,37.744 112.635 M152.979 112.635 C 153.167 112.684,153.474 112.684,153.662 112.635 C 153.850 112.586,153.696 112.545,153.320 112.545 C 152.944 112.545,152.791 112.586,152.979 112.635 M26.225 123.047 C 26.225 123.530,26.263 123.728,26.310 123.486 C 26.356 123.245,26.356 122.849,26.310 122.607 C 26.263 122.366,26.225 122.563,26.225 123.047 M165.084 123.242 C 165.084 123.618,165.125 123.772,165.174 123.584 C 165.223 123.396,165.223 123.088,165.174 122.900 C 165.125 122.712,165.084 122.866,165.084 123.242 " stroke="none" fill="#313424" fill-rule="evenodd"></path><path id="path8" d="" stroke="none" fill="#3c4434" fill-rule="evenodd"></path></g></svg>