<svg id="svg" version="1.1" xmlns="http://www.w3.org/2000/svg" xmlns:xlink="http://www.w3.org/1999/xlink" width="400" height="400" viewBox="0, 0, 400,400"><g id="svgg"><path id="path0" d="M91.309 19.846 C 43.529 23.619,13.264 62.167,21.017 109.375 C 21.789 114.076,24.344 123.740,24.395 122.150 C 24.589 116.049,30.734 110.562,36.881 111.003 C 37.938 111.078,38.286 111.045,38.211 110.875 C 33.435 100.066,36.645 87.851,45.886 81.670 C 52.335 77.356,59.988 77.456,65.921 81.930 L 67.555 83.163 67.675 82.060 C 68.961 70.223,77.555 59.658,88.672 56.249 C 106.030 50.926,122.809 62.520,124.367 80.912 L 124.512 82.625 125.864 81.638 C 132.733 76.626,142.177 77.734,148.723 84.321 C 155.607 91.249,157.335 101.506,153.196 110.875 C 153.120 111.045,153.468 111.078,154.525 111.003 C 160.672 110.562,166.817 116.049,167.011 122.150 C 167.039 123.014,167.774 120.721,168.947 116.113 C 179.309 75.421,159.148 36.667,120.996 23.940 C 111.425 20.748,99.942 19.164,91.309 19.846 M92.969 57.504 C 83.187 59.267,75.548 65.333,71.584 74.485 C 70.096 77.922,68.769 84.087,69.277 85.203 C 69.412 85.499,69.428 86.635,69.324 88.577 C 69.238 90.187,69.071 95.415,68.954 100.195 C 68.837 104.976,68.701 109.678,68.652 110.645 C 68.603 111.611,68.516 114.336,68.457 116.699 C 68.399 119.063,68.310 121.919,68.260 123.047 C 68.209 124.175,68.078 128.525,67.969 132.715 C 67.859 136.904,67.731 140.750,67.683 141.260 L 67.597 142.188 69.492 142.186 C 77.666 142.178,86.709 136.254,93.089 126.727 C 94.445 124.703,94.560 124.609,95.703 124.609 C 96.846 124.609,96.962 124.703,98.317 126.727 C 104.765 136.355,113.728 142.179,122.110 142.186 L 124.200 142.188 124.114 141.260 C 124.067 140.750,123.938 136.948,123.829 132.813 C 123.720 128.677,123.588 124.238,123.537 122.949 C 123.485 121.660,123.397 118.892,123.339 116.797 C 123.282 114.702,123.193 111.890,123.142 110.547 C 123.090 109.204,122.961 104.766,122.855 100.684 C 122.548 88.857,122.475 87.449,122.154 87.094 C 121.929 86.845,121.874 86.121,121.889 83.576 C 121.965 70.369,114.387 60.498,102.031 57.710 C 100.149 57.285,94.852 57.165,92.969 57.504 M52.246 80.878 C 40.505 83.738,34.200 98.900,39.940 110.467 C 40.532 111.659,41.016 112.719,41.016 112.823 C 41.016 112.927,41.185 113.363,41.391 113.790 C 41.598 114.218,43.042 118.080,44.600 122.372 C 46.158 126.664,47.493 130.329,47.565 130.516 C 47.638 130.704,47.785 130.803,47.893 130.736 C 48.001 130.669,49.200 131.751,50.558 133.139 C 55.889 138.589,59.651 140.855,65.082 141.890 L 66.406 142.142 66.410 140.553 C 66.412 139.680,66.458 138.086,66.511 137.012 C 66.564 135.938,66.737 130.840,66.896 125.684 C 67.054 120.527,67.227 115.122,67.280 113.672 C 67.334 112.222,67.424 109.409,67.481 107.422 C 67.539 105.435,67.627 102.886,67.678 101.758 C 67.729 100.630,67.869 96.851,67.991 93.359 C 68.112 89.868,68.231 86.989,68.254 86.962 C 68.355 86.843,65.439 83.949,64.565 83.301 C 61.150 80.768,56.472 79.848,52.246 80.878 M131.990 80.867 C 128.865 81.636,124.414 84.588,124.414 85.892 C 124.414 86.387,124.085 87.129,123.776 87.330 C 123.607 87.441,123.724 92.341,124.119 101.758 C 124.171 102.993,124.260 105.586,124.317 107.520 C 124.374 109.453,124.464 112.222,124.517 113.672 C 124.570 115.122,124.743 120.527,124.901 125.684 C 125.059 130.840,125.233 135.938,125.286 137.012 C 125.339 138.086,125.385 139.646,125.387 140.479 C 125.391 142.273,125.254 142.220,128.032 141.498 C 132.568 140.319,136.037 138.057,140.844 133.143 C 142.978 130.962,143.359 130.650,143.683 130.824 C 144.084 131.038,150.112 115.225,150.333 113.379 C 150.384 112.949,150.902 111.631,151.484 110.449 C 158.713 95.760,146.541 77.290,131.990 80.867 M34.082 113.065 C 26.214 115.359,23.821 124.924,29.589 131.022 C 34.052 135.740,41.417 135.990,45.682 131.568 L 46.345 130.881 44.345 125.255 C 43.245 122.161,41.898 118.311,41.351 116.699 C 40.024 112.787,39.924 112.690,37.235 112.709 C 35.964 112.718,34.834 112.846,34.082 113.065 M151.692 113.330 C 151.514 113.679,150.455 116.602,149.339 119.824 C 148.222 123.047,146.866 126.932,146.325 128.457 L 145.341 131.230 146.126 131.939 C 151.555 136.845,160.472 134.997,163.748 128.288 C 167.497 120.609,162.529 112.695,153.958 112.695 L 152.015 112.695 151.692 113.330 M142.714 133.855 C 142.545 134.113,141.912 134.908,141.307 135.621 C 140.355 136.743,140.281 136.885,140.757 136.673 C 141.698 136.254,142.543 135.348,142.859 134.418 C 143.209 133.392,143.155 133.182,142.714 133.855 M93.848 163.429 C 83.105 164.428,74.121 173.963,72.960 185.596 L 72.848 186.719 95.897 186.719 L 118.945 186.719 118.945 185.963 C 118.945 173.600,106.325 162.268,93.848 163.429 M73.486 187.830 C 73.674 187.879,73.982 187.879,74.170 187.830 C 74.358 187.781,74.204 187.741,73.828 187.741 C 73.452 187.741,73.298 187.781,73.486 187.830 M59.180 206.152 L 59.180 222.656 68.066 222.656 L 76.953 222.656 76.953 237.207 L 76.953 251.758 95.605 251.758 L 114.258 251.758 114.258 237.207 L 114.258 222.656 123.242 222.656 L 132.227 222.656 132.227 206.152 L 132.227 189.648 128.516 189.648 L 124.805 189.648 124.805 200.684 L 124.805 211.719 113.281 211.719 L 101.758 211.719 101.758 214.844 L 101.758 217.969 95.801 217.969 L 89.844 217.969 89.844 214.844 L 89.844 211.719 78.223 211.719 L 66.602 211.719 66.602 200.684 L 66.602 189.648 62.891 189.648 L 59.180 189.648 59.180 206.152 M75.493 256.005 C 74.774 257.805,71.733 265.262,68.734 272.577 C 65.735 279.892,63.281 285.964,63.281 286.071 C 63.281 286.178,64.446 287.088,65.869 288.094 C 67.292 289.099,69.643 290.781,71.093 291.830 C 73.136 293.310,73.778 293.685,73.953 293.500 C 74.076 293.369,75.711 290.845,77.585 287.891 C 90.590 267.389,95.293 260.156,95.618 260.156 C 96.006 260.156,98.566 264.076,112.393 285.840 C 115.055 290.029,117.297 293.527,117.376 293.613 C 117.454 293.699,118.521 293.038,119.746 292.146 C 120.971 291.253,123.335 289.565,125.000 288.394 C 126.665 287.223,128.052 286.248,128.082 286.226 C 128.112 286.204,125.724 280.308,122.776 273.122 C 119.827 265.937,116.765 258.433,115.972 256.445 L 114.530 252.832 95.664 252.782 L 76.799 252.732 75.493 256.005 " stroke="none" fill="#4d4d3d" fill-rule="evenodd"></path><path id="path1" d="M59.180 183.691 L 59.180 188.672 62.891 188.672 L 66.602 188.672 66.602 186.300 L 66.602 183.927 66.141 184.424 C 65.718 184.881,65.625 184.903,64.970 184.698 L 64.258 184.475 64.258 183.168 C 64.258 182.164,64.115 181.495,63.641 180.286 L 63.025 178.711 61.102 178.711 L 59.180 178.711 59.180 183.691 M127.962 180.771 C 127.304 182.437,127.148 183.074,127.148 184.092 C 127.148 185.305,127.131 185.352,126.660 185.352 C 126.392 185.352,126.172 185.268,126.172 185.166 C 126.172 184.897,125.287 183.984,125.026 183.984 C 124.873 183.984,124.805 184.710,124.805 186.328 L 124.805 188.672 128.516 188.672 L 132.227 188.672 132.227 183.691 L 132.227 178.711 130.501 178.711 L 128.776 178.711 127.962 180.771 M123.678 186.328 C 123.678 186.704,123.718 186.858,123.767 186.670 C 123.817 186.482,123.817 186.174,123.767 185.986 C 123.718 185.798,123.678 185.952,123.678 186.328 M76.953 190.353 L 76.953 193.011 81.573 198.800 C 87.110 205.739,89.589 208.797,90.581 209.912 L 91.319 210.742 96.002 210.742 L 100.685 210.742 102.972 207.959 C 104.230 206.428,107.326 202.583,109.853 199.414 L 114.447 193.652 114.450 190.674 L 114.453 187.695 95.703 187.695 L 76.953 187.695 76.953 190.353 M90.487 194.144 C 91.801 195.178,91.866 198.850,90.595 200.297 C 89.065 202.040,87.498 200.164,87.769 196.914 C 87.987 194.284,89.154 193.095,90.487 194.144 M103.427 194.510 C 104.834 196.636,104.158 200.977,102.420 200.977 C 101.818 200.977,100.904 200.008,100.624 199.072 C 99.630 195.756,101.855 192.135,103.427 194.510 M76.953 202.593 L 76.953 210.742 83.502 210.742 L 90.050 210.742 88.807 209.229 C 88.124 208.396,85.340 204.902,82.621 201.465 C 79.902 198.027,77.515 195.042,77.315 194.830 C 76.962 194.454,76.953 194.649,76.953 202.593 M109.731 200.908 C 107.188 204.115,104.396 207.617,103.526 208.691 L 101.944 210.645 108.131 210.696 C 111.533 210.725,114.349 210.716,114.388 210.678 C 114.426 210.639,114.435 207.113,114.407 202.843 L 114.355 195.078 109.731 200.908 M90.820 214.355 L 90.820 216.992 95.801 216.992 L 100.781 216.992 100.781 214.355 L 100.781 211.719 95.801 211.719 L 90.820 211.719 90.820 214.355 " stroke="none" fill="#fbdbb3" fill-rule="evenodd"></path><path id="path2" d="M91.211 17.823 C 91.157 17.875,90.190 17.976,89.063 18.047 C 42.823 20.963,10.914 62.357,19.062 108.855 C 20.058 114.538,21.978 121.154,23.522 124.219 C 23.982 125.132,24.552 126.486,24.789 127.227 C 27.330 135.182,36.554 139.263,43.848 135.658 C 44.600 135.287,45.268 135.044,45.333 135.118 C 45.398 135.193,46.909 138.901,48.692 143.359 C 50.474 147.817,54.144 156.958,56.846 163.672 C 59.549 170.386,61.920 176.282,62.115 176.775 L 62.469 177.670 60.390 177.714 C 59.246 177.738,58.282 177.786,58.247 177.821 C 58.195 177.872,58.163 204.745,58.196 220.166 L 58.203 223.633 67.090 223.633 L 75.976 223.633 75.923 238.232 L 75.869 252.832 74.052 257.129 C 72.258 261.374,71.248 263.817,68.847 269.727 C 68.170 271.392,67.222 273.721,66.740 274.902 C 63.698 282.359,62.500 285.378,62.497 285.594 C 62.493 285.890,59.829 292.090,59.705 292.090 C 59.658 292.090,58.463 291.268,57.051 290.263 C 53.979 288.078,54.009 288.079,52.465 290.131 C 51.510 291.399,49.292 294.870,49.165 295.294 C 49.090 295.544,65.477 306.445,65.928 306.445 C 66.259 306.445,66.843 305.736,68.540 303.271 C 71.704 298.675,72.238 297.876,73.490 295.859 C 74.823 293.709,76.954 290.352,81.212 283.691 C 87.636 273.645,91.989 266.804,93.806 263.906 C 95.574 261.085,95.692 260.942,95.917 261.367 C 96.331 262.146,102.600 272.020,114.469 290.585 C 115.588 292.336,117.075 294.692,117.773 295.822 C 118.472 296.951,119.414 298.419,119.867 299.084 C 124.550 305.956,124.908 306.438,125.345 306.442 C 125.774 306.445,129.056 304.321,137.461 298.598 C 139.641 297.113,141.543 295.898,141.688 295.898 C 142.519 295.898,140.996 292.879,138.711 289.998 C 137.138 288.014,137.545 287.937,133.085 291.068 L 131.502 292.180 130.226 289.108 C 129.524 287.418,128.623 285.156,128.224 284.082 C 127.825 283.008,126.992 280.898,126.373 279.395 C 125.754 277.891,124.696 275.298,124.024 273.633 C 121.443 267.245,117.671 258.065,116.103 254.358 L 115.261 252.368 115.251 238.000 L 115.240 223.633 124.222 223.633 L 133.203 223.633 133.204 222.705 C 133.211 218.043,133.216 184.226,133.211 181.403 L 133.203 177.748 131.269 177.692 L 129.334 177.637 131.140 173.145 C 132.134 170.674,135.963 161.138,139.649 151.953 C 143.335 142.769,146.368 135.230,146.389 135.202 C 146.409 135.173,146.996 135.416,147.693 135.742 C 155.051 139.186,164.097 135.115,166.617 127.227 C 166.854 126.486,167.424 125.132,167.884 124.219 C 171.207 117.623,173.508 105.588,173.525 94.727 C 173.575 61.505,154.767 34.015,124.164 22.578 C 118.982 20.642,110.730 18.860,103.320 18.077 C 101.875 17.925,91.334 17.704,91.211 17.823 M105.859 20.300 C 154.167 26.903,181.778 70.917,168.111 119.531 L 167.095 123.145 166.862 121.625 C 165.882 115.249,161.175 111.133,154.863 111.133 L 152.973 111.133 153.635 109.601 C 161.719 90.903,141.468 70.560,125.895 81.733 L 124.441 82.776 124.328 81.476 C 122.353 58.844,99.597 47.696,80.851 60.177 C 73.783 64.883,67.773 75.211,67.773 82.652 C 67.773 83.531,67.618 83.578,66.977 82.892 C 63.772 79.462,56.738 77.701,51.702 79.067 C 39.419 82.399,32.534 97.488,37.771 109.601 L 38.434 111.133 36.543 111.133 C 30.231 111.133,25.525 115.249,24.545 121.625 L 24.311 123.145 23.295 119.531 C 17.343 98.358,18.802 78.195,27.552 60.718 C 39.311 37.229,61.890 22.370,89.648 19.852 C 92.339 19.608,102.941 19.901,105.859 20.300 M100.586 57.315 C 113.336 59.252,121.802 69.324,121.998 82.789 C 122.043 85.821,122.121 86.846,122.326 87.086 C 122.538 87.335,122.645 89.287,122.830 96.289 C 122.959 101.177,123.323 113.394,123.640 123.438 C 123.956 133.481,124.216 141.853,124.217 142.041 C 124.219 142.342,124.002 142.383,122.385 142.383 C 113.835 142.383,104.935 136.711,98.326 127.051 C 96.751 124.748,96.824 124.811,95.703 124.811 C 94.582 124.811,94.655 124.748,93.080 127.051 C 86.537 136.615,77.560 142.383,69.217 142.383 C 68.036 142.383,67.578 142.315,67.578 142.139 C 67.578 142.004,67.796 134.951,68.061 126.465 C 69.155 91.545,69.291 85.960,69.066 85.156 C 68.897 84.549,69.383 81.019,69.933 78.863 C 73.528 64.771,87.058 55.261,100.586 57.315 M58.638 80.550 C 61.717 81.139,64.165 82.502,66.666 85.021 L 68.391 86.757 68.271 88.349 C 68.151 89.930,67.476 109.813,66.900 128.711 C 66.735 134.136,66.547 139.398,66.483 140.405 L 66.366 142.237 65.319 142.114 C 60.570 141.555,55.143 138.275,50.178 132.961 C 49.098 131.805,48.067 130.858,47.886 130.857 C 47.635 130.856,47.131 129.661,45.724 125.730 C 42.574 116.934,41.238 113.469,39.946 110.742 C 32.860 95.795,44.029 77.755,58.638 80.550 M138.656 80.658 C 150.819 83.168,157.398 98.374,151.566 110.494 C 150.934 111.808,150.418 113.126,150.420 113.424 C 150.422 113.721,149.857 115.459,149.165 117.285 C 148.474 119.111,147.049 122.994,145.999 125.914 C 144.193 130.940,144.071 131.210,143.706 130.992 C 143.360 130.785,143.099 130.994,141.143 133.041 C 136.022 138.399,131.166 141.368,126.338 142.090 L 125.430 142.226 125.314 140.400 C 125.250 139.396,125.064 134.180,124.900 128.809 C 124.303 109.233,123.644 89.719,123.543 88.604 C 123.457 87.657,123.506 87.377,123.829 86.966 C 124.043 86.694,124.219 86.243,124.219 85.965 C 124.219 85.333,126.035 83.552,127.729 82.523 C 131.131 80.456,134.714 79.845,138.656 80.658 M39.778 113.086 C 40.170 113.405,40.496 113.946,40.719 114.648 C 40.906 115.239,42.285 119.172,43.783 123.388 L 46.508 131.053 45.959 131.548 C 40.981 136.033,34.673 136.059,29.981 131.613 C 22.344 124.376,27.116 112.292,37.508 112.555 C 38.962 112.592,39.254 112.660,39.778 113.086 M156.738 112.795 C 161.912 113.886,165.599 118.792,165.146 123.983 C 164.304 133.626,153.149 138.286,145.978 131.989 C 145.122 131.238,144.918 132.099,148.025 123.355 C 149.517 119.157,150.896 115.195,151.090 114.551 C 151.730 112.421,153.037 112.015,156.738 112.795 M96.916 129.248 C 97.503 130.188,100.868 136.582,104.394 143.457 C 110.541 155.445,120.007 173.782,123.264 180.013 C 124.748 182.849,124.792 182.972,124.320 182.920 L 123.828 182.866 123.814 192.263 C 123.806 197.432,123.810 203.630,123.824 206.037 C 123.842 209.436,123.791 210.450,123.594 210.575 C 123.454 210.664,121.560 210.738,119.385 210.739 L 115.430 210.742 115.430 202.270 C 115.430 195.006,115.471 193.763,115.720 193.557 C 115.880 193.424,116.908 192.132,118.004 190.686 L 119.996 188.057 120.068 186.362 C 120.579 174.266,108.400 161.952,95.898 161.924 C 84.072 161.898,72.248 173.263,71.916 184.975 L 71.830 188.016 73.323 189.955 C 74.145 191.022,75.075 192.215,75.391 192.607 L 75.964 193.319 75.972 202.025 L 75.980 210.731 71.779 210.734 L 67.578 210.736 67.578 196.886 C 67.578 185.116,67.537 183.027,67.302 182.973 C 67.108 182.929,68.180 180.688,70.930 175.391 C 77.518 162.700,88.146 142.074,91.939 134.619 C 93.920 130.725,95.610 127.539,95.694 127.539 C 95.779 127.539,96.328 128.308,96.916 129.248 M143.446 133.057 C 143.371 133.298,143.045 134.067,142.720 134.766 C 142.396 135.464,142.101 136.167,142.066 136.328 C 142.030 136.489,139.754 142.861,137.007 150.488 C 134.261 158.115,130.944 167.366,129.638 171.045 C 126.978 178.534,126.566 179.228,126.559 176.221 C 126.558 175.388,126.474 172.246,126.373 169.238 C 126.272 166.230,126.139 162.188,126.077 160.254 C 126.014 158.320,125.879 154.365,125.776 151.465 C 125.516 144.146,125.501 144.556,126.025 144.451 C 131.288 143.401,139.001 139.414,139.800 137.332 C 139.865 137.162,140.597 136.216,141.427 135.229 C 142.256 134.243,143.034 133.251,143.154 133.026 C 143.444 132.486,143.616 132.504,143.446 133.057 M52.557 148.327 C 54.369 153.369,55.819 157.527,55.780 157.567 C 55.740 157.607,54.106 153.620,52.150 148.706 C 50.193 143.793,48.065 138.508,47.420 136.962 L 46.249 134.150 46.697 133.673 L 47.145 133.196 48.203 136.178 C 48.785 137.818,50.744 143.285,52.557 148.327 M144.733 136.098 C 144.330 137.030,142.220 142.258,140.043 147.714 C 137.867 153.171,136.054 157.603,136.014 157.564 C 135.974 157.524,136.984 154.597,138.259 151.060 C 139.533 147.523,141.391 142.344,142.387 139.551 C 143.382 136.758,144.275 134.262,144.370 134.005 L 144.543 133.537 145.005 133.970 L 145.466 134.404 144.733 136.098 M89.487 136.572 C 88.315 138.784,84.095 146.939,74.606 165.332 C 71.779 170.811,68.823 176.523,68.037 178.027 L 66.608 180.762 66.605 178.892 C 66.602 177.152,67.044 162.493,67.273 156.738 C 67.329 155.342,67.433 152.068,67.505 149.463 L 67.636 144.727 69.511 144.726 C 76.454 144.723,83.477 141.516,89.155 135.756 C 89.904 134.997,90.547 134.375,90.584 134.375 C 90.621 134.375,90.127 135.364,89.487 136.572 M55.187 140.286 C 58.338 142.380,61.238 143.615,64.517 144.259 L 66.211 144.592 66.210 145.392 C 66.209 145.832,66.124 148.564,66.021 151.465 C 65.918 154.365,65.783 158.320,65.720 160.254 C 65.658 162.188,65.525 166.230,65.424 169.238 C 65.323 172.246,65.239 175.388,65.237 176.221 C 65.231 179.212,64.811 178.522,62.263 171.338 C 60.127 165.317,49.613 136.060,49.307 135.287 C 49.229 135.091,50.078 135.841,51.194 136.956 C 52.445 138.204,53.976 139.482,55.187 140.286 M105.664 138.796 C 107.548 140.266,112.113 142.978,112.107 142.623 C 112.106 142.545,111.749 142.310,111.315 142.102 C 110.880 141.893,110.483 141.656,110.433 141.575 C 110.344 141.431,113.671 142.925,113.867 143.117 C 113.921 143.170,113.745 143.154,113.477 143.081 C 113.138 142.990,113.078 143.005,113.281 143.131 C 113.774 143.435,114.610 143.626,114.258 143.354 C 114.009 143.162,114.019 143.145,114.323 143.243 C 114.519 143.307,114.755 143.359,114.846 143.359 C 114.937 143.359,115.137 143.485,115.290 143.638 C 115.765 144.113,118.326 144.551,121.310 144.667 L 124.162 144.778 124.292 149.489 C 124.364 152.079,124.468 155.342,124.524 156.738 C 124.753 162.493,125.195 177.152,125.192 178.892 L 125.189 180.762 123.760 178.027 C 122.974 176.523,120.018 170.811,117.191 165.332 C 106.403 144.422,103.249 138.326,102.391 136.719 L 101.505 135.059 102.950 136.432 C 103.744 137.187,104.966 138.251,105.664 138.796 M101.226 163.941 C 110.630 166.367,118.945 176.590,118.945 185.724 L 118.945 186.719 95.876 186.719 L 72.806 186.719 72.941 185.400 C 74.438 170.795,87.978 160.522,101.226 163.941 M63.684 180.170 C 64.150 181.276,64.258 181.812,64.258 183.025 L 64.258 184.519 64.990 184.642 C 65.579 184.741,65.786 184.689,66.047 184.375 C 66.568 183.747,66.602 183.865,66.602 186.328 L 66.602 188.672 62.891 188.672 L 59.180 188.672 59.180 183.685 L 59.180 178.697 61.145 178.753 L 63.110 178.809 63.684 180.170 M132.227 183.691 L 132.227 188.672 128.516 188.672 L 124.805 188.672 124.805 186.328 C 124.805 184.316,124.849 183.984,125.115 183.984 C 125.460 183.984,126.155 184.727,126.165 185.107 C 126.169 185.242,126.392 185.352,126.660 185.352 C 127.137 185.352,127.148 185.318,127.148 183.907 C 127.148 182.735,127.260 182.200,127.742 181.069 C 128.068 180.302,128.417 179.458,128.518 179.193 C 128.694 178.730,128.769 178.711,130.464 178.711 L 132.227 178.711 132.227 183.691 M134.233 181.836 C 134.233 182.319,134.271 182.517,134.318 182.275 C 134.364 182.034,134.364 181.638,134.318 181.396 C 134.271 181.155,134.233 181.353,134.233 181.836 M75.977 189.551 C 75.977 191.789,76.119 191.780,74.435 189.649 C 72.751 187.516,72.744 187.695,74.512 187.695 L 75.977 187.695 75.977 189.551 M114.453 190.728 L 114.453 193.760 110.585 198.589 C 108.457 201.245,106.069 204.253,105.279 205.273 C 104.488 206.294,103.140 207.942,102.283 208.936 L 100.725 210.742 95.919 210.735 L 91.113 210.728 89.829 209.221 C 89.123 208.393,87.752 206.704,86.782 205.469 C 85.812 204.233,83.203 200.952,80.986 198.177 L 76.953 193.131 76.953 190.413 L 76.953 187.695 95.703 187.695 L 114.453 187.695 114.453 190.728 M118.664 187.994 C 118.455 188.152,118.348 188.281,118.426 188.281 C 118.504 188.281,117.896 189.116,117.075 190.137 C 116.254 191.157,115.548 191.992,115.506 191.992 C 115.464 191.992,115.430 191.025,115.430 189.844 L 115.430 187.695 117.236 187.702 C 118.867 187.707,119.006 187.736,118.664 187.994 M66.602 200.684 L 66.602 211.719 78.223 211.719 L 89.844 211.719 89.844 214.844 L 89.844 217.969 95.801 217.969 L 101.758 217.969 101.758 214.844 L 101.758 211.719 113.281 211.719 L 124.805 211.719 124.805 200.684 L 124.805 189.648 128.516 189.648 L 132.227 189.648 132.227 206.152 L 132.227 222.656 123.242 222.656 L 114.258 222.656 114.258 237.207 L 114.258 251.758 95.605 251.758 L 76.953 251.758 76.953 237.207 L 76.953 222.656 68.066 222.656 L 59.180 222.656 59.180 206.152 L 59.180 189.648 62.891 189.648 L 66.602 189.648 66.602 200.684 M89.012 193.962 C 87.450 194.872,87.358 199.503,88.881 200.629 C 91.009 202.203,92.496 196.007,90.411 194.253 C 89.761 193.705,89.534 193.658,89.012 193.962 M101.735 194.044 C 99.677 195.162,100.267 200.830,102.442 200.830 C 104.269 200.830,104.803 196.020,103.168 194.287 C 102.594 193.679,102.451 193.654,101.735 194.044 M82.311 200.987 C 84.989 204.365,87.716 207.788,88.370 208.594 C 89.025 209.399,89.679 210.212,89.823 210.400 C 90.073 210.724,89.744 210.742,83.520 210.742 L 76.953 210.742 76.959 202.490 C 76.964 195.967,77.015 194.302,77.203 194.541 C 77.334 194.708,79.633 197.608,82.311 200.987 M114.453 202.832 L 114.453 210.742 108.104 210.742 L 101.754 210.742 103.308 208.838 C 104.578 207.281,108.694 202.105,113.553 195.957 C 113.994 195.398,114.377 194.936,114.404 194.931 C 114.431 194.926,114.453 198.481,114.453 202.832 M67.840 208.887 C 67.841 209.746,67.875 210.073,67.917 209.614 C 67.958 209.155,67.957 208.451,67.915 208.051 C 67.873 207.651,67.840 208.027,67.840 208.887 M100.781 214.355 L 100.781 216.992 95.801 216.992 L 90.820 216.992 90.820 214.355 L 90.820 211.719 95.801 211.719 L 100.781 211.719 100.781 214.355 M116.246 256.986 C 117.179 259.320,120.201 266.724,122.963 273.438 C 125.724 280.151,127.993 285.789,128.005 285.965 C 128.019 286.169,126.755 287.188,124.512 288.779 C 122.578 290.151,120.220 291.842,119.272 292.538 C 117.824 293.601,117.508 293.760,117.298 293.533 C 117.161 293.384,114.957 289.966,112.401 285.938 C 96.123 260.286,95.811 259.831,95.085 260.693 C 94.699 261.151,77.619 287.812,74.503 292.822 C 73.785 293.976,74.063 294.039,71.453 292.136 C 69.844 290.964,63.836 286.700,63.139 286.235 C 63.114 286.219,63.669 284.805,64.373 283.093 C 69.746 270.025,75.832 255.104,76.578 253.174 L 76.748 252.734 95.649 252.738 L 114.551 252.741 116.246 256.986 " stroke="none" fill="#141c1c" fill-rule="evenodd"></path><path id="path3" d="M39.833 43.115 L 39.160 43.848 39.893 43.175 C 40.574 42.548,40.715 42.383,40.566 42.383 C 40.533 42.383,40.203 42.712,39.833 43.115 M151.367 43.066 C 151.732 43.442,152.074 43.750,152.127 43.750 C 152.181 43.750,151.927 43.442,151.563 43.066 C 151.198 42.690,150.856 42.383,150.802 42.383 C 150.749 42.383,151.003 42.690,151.367 43.066 M96.338 55.025 C 96.741 55.067,97.400 55.067,97.803 55.025 C 98.206 54.983,97.876 54.948,97.070 54.948 C 96.265 54.948,95.935 54.983,96.338 55.025 M115.918 62.695 C 116.338 63.125,116.725 63.477,116.778 63.477 C 116.832 63.477,116.533 63.125,116.113 62.695 C 115.694 62.266,115.306 61.914,115.253 61.914 C 115.199 61.914,115.498 62.266,115.918 62.695 M43.835 85.596 L 43.262 86.230 43.896 85.657 C 44.488 85.122,44.621 84.961,44.470 84.961 C 44.437 84.961,44.151 85.247,43.835 85.596 M146.875 85.022 C 146.875 85.056,147.161 85.341,147.510 85.657 L 148.145 86.230 147.571 85.596 C 147.036 85.004,146.875 84.871,146.875 85.022 M68.991 94.922 C 68.991 95.298,69.031 95.452,69.080 95.264 C 69.129 95.076,69.129 94.768,69.080 94.580 C 69.031 94.392,68.991 94.546,68.991 94.922 M122.702 94.922 C 122.702 95.298,122.742 95.452,122.791 95.264 C 122.840 95.076,122.840 94.768,122.791 94.580 C 122.742 94.392,122.702 94.546,122.702 94.922 M37.553 101.172 C 37.553 101.655,37.591 101.853,37.638 101.611 C 37.684 101.370,37.684 100.974,37.638 100.732 C 37.591 100.491,37.553 100.688,37.553 101.172 M153.764 101.172 C 153.764 101.655,153.802 101.853,153.849 101.611 C 153.895 101.370,153.895 100.974,153.849 100.732 C 153.802 100.491,153.764 100.688,153.764 101.172 M68.799 101.660 C 68.801 102.090,68.841 102.243,68.888 102.000 C 68.935 101.757,68.933 101.405,68.884 101.218 C 68.835 101.032,68.797 101.230,68.799 101.660 M122.901 101.660 C 122.903 102.090,122.943 102.243,122.990 102.000 C 123.036 101.757,123.035 101.405,122.986 101.218 C 122.937 101.032,122.899 101.230,122.901 101.660 M67.623 103.906 C 67.623 104.282,67.664 104.436,67.713 104.248 C 67.762 104.060,67.762 103.752,67.713 103.564 C 67.664 103.376,67.623 103.530,67.623 103.906 M124.069 103.906 C 124.069 104.282,124.109 104.436,124.158 104.248 C 124.207 104.060,124.207 103.752,124.158 103.564 C 124.109 103.376,124.069 103.530,124.069 103.906 M67.428 109.766 C 67.428 110.142,67.468 110.295,67.517 110.107 C 67.567 109.919,67.567 109.612,67.517 109.424 C 67.468 109.236,67.428 109.390,67.428 109.766 M124.264 109.766 C 124.264 110.142,124.304 110.295,124.353 110.107 C 124.403 109.919,124.403 109.612,124.353 109.424 C 124.304 109.236,124.264 109.390,124.264 109.766 M35.794 111.078 C 36.091 111.123,36.530 111.121,36.770 111.075 C 37.010 111.029,36.768 110.992,36.230 110.993 C 35.693 110.995,35.497 111.033,35.794 111.078 M154.739 111.078 C 155.036 111.123,155.475 111.121,155.716 111.075 C 155.956 111.029,155.713 110.992,155.176 110.993 C 154.639 110.995,154.442 111.033,154.739 111.078 M68.405 114.453 C 68.405 114.829,68.445 114.983,68.494 114.795 C 68.543 114.607,68.543 114.299,68.494 114.111 C 68.445 113.923,68.405 114.077,68.405 114.453 M123.288 114.453 C 123.288 114.829,123.328 114.983,123.377 114.795 C 123.426 114.607,123.426 114.299,123.377 114.111 C 123.328 113.923,123.288 114.077,123.288 114.453 M68.209 120.703 C 68.209 121.079,68.250 121.233,68.299 121.045 C 68.348 120.857,68.348 120.549,68.299 120.361 C 68.250 120.173,68.209 120.327,68.209 120.703 M123.483 120.703 C 123.483 121.079,123.523 121.233,123.572 121.045 C 123.621 120.857,123.621 120.549,123.572 120.361 C 123.523 120.173,123.483 120.327,123.483 120.703 M67.038 121.875 C 67.038 122.251,67.078 122.405,67.127 122.217 C 67.176 122.029,67.176 121.721,67.127 121.533 C 67.078 121.345,67.038 121.499,67.038 121.875 M124.655 121.875 C 124.655 122.251,124.695 122.405,124.744 122.217 C 124.793 122.029,124.793 121.721,124.744 121.533 C 124.695 121.345,124.655 121.499,124.655 121.875 M26.232 123.145 C 26.233 123.789,26.270 124.029,26.313 123.678 C 26.357 123.327,26.356 122.800,26.311 122.506 C 26.267 122.213,26.231 122.500,26.232 123.145 M165.100 123.145 C 165.101 123.789,165.137 124.029,165.181 123.678 C 165.224 123.327,165.223 122.800,165.179 122.506 C 165.134 122.213,165.098 122.500,165.100 123.145 M68.014 126.953 C 68.014 127.329,68.054 127.483,68.103 127.295 C 68.153 127.107,68.153 126.799,68.103 126.611 C 68.054 126.423,68.014 126.577,68.014 126.953 M123.678 126.953 C 123.678 127.329,123.718 127.483,123.767 127.295 C 123.817 127.107,123.817 126.799,123.767 126.611 C 123.718 126.423,123.678 126.577,123.678 126.953 M67.819 133.398 C 67.819 133.774,67.859 133.928,67.908 133.740 C 67.957 133.552,67.957 133.245,67.908 133.057 C 67.859 132.869,67.819 133.022,67.819 133.398 M123.873 133.398 C 123.873 133.774,123.914 133.928,123.963 133.740 C 124.012 133.552,124.012 133.245,123.963 133.057 C 123.914 132.869,123.873 133.022,123.873 133.398 M66.647 133.984 C 66.647 134.360,66.687 134.514,66.736 134.326 C 66.785 134.138,66.785 133.831,66.736 133.643 C 66.687 133.455,66.647 133.608,66.647 133.984 M125.045 133.984 C 125.045 134.360,125.086 134.514,125.135 134.326 C 125.184 134.138,125.184 133.831,125.135 133.643 C 125.086 133.455,125.045 133.608,125.045 133.984 M51.660 134.570 C 52.189 135.107,52.666 135.547,52.720 135.547 C 52.773 135.547,52.385 135.107,51.855 134.570 C 51.326 134.033,50.850 133.594,50.796 133.594 C 50.742 133.594,51.131 134.033,51.660 134.570 M139.543 134.619 L 138.574 135.645 139.600 134.675 C 140.552 133.775,140.715 133.594,140.569 133.594 C 140.538 133.594,140.077 134.055,139.543 134.619 M112.695 142.756 C 112.856 142.847,113.208 142.980,113.477 143.051 L 113.965 143.180 113.477 142.886 C 113.208 142.724,112.856 142.592,112.695 142.591 C 112.435 142.590,112.435 142.608,112.695 142.756 " stroke="none" fill="#2c342a" fill-rule="evenodd"></path><path id="path4" d="" stroke="none" fill="#8a7a68" fill-rule="evenodd"></path><path id="path5" d="" stroke="none" fill="#a4947c" fill-rule="evenodd"></path><path id="path6" d="M41.595 41.357 L 40.527 42.480 41.650 41.413 C 42.694 40.421,42.863 40.234,42.718 40.234 C 42.687 40.234,42.182 40.740,41.595 41.357 M149.609 41.309 C 150.193 41.899,150.714 42.383,150.768 42.383 C 150.822 42.383,150.388 41.899,149.805 41.309 C 149.221 40.718,148.700 40.234,148.646 40.234 C 148.592 40.234,149.026 40.718,149.609 41.309 M96.533 57.174 C 96.936 57.216,97.595 57.216,97.998 57.174 C 98.401 57.131,98.071 57.097,97.266 57.097 C 96.460 57.097,96.130 57.131,96.533 57.174 M99.658 57.361 C 99.846 57.410,100.154 57.410,100.342 57.361 C 100.530 57.312,100.376 57.272,100.000 57.272 C 99.624 57.272,99.470 57.312,99.658 57.361 M114.551 64.453 C 115.297 65.205,115.951 65.820,116.005 65.820 C 116.059 65.820,115.492 65.205,114.746 64.453 C 114.000 63.701,113.345 63.086,113.292 63.086 C 113.238 63.086,113.805 63.701,114.551 64.453 M77.734 65.137 C 77.260 65.620,76.916 66.016,76.969 66.016 C 77.023 66.016,77.455 65.620,77.930 65.137 C 78.404 64.653,78.748 64.258,78.695 64.258 C 78.641 64.258,78.209 64.653,77.734 65.137 M121.725 79.102 C 121.725 79.478,121.765 79.631,121.814 79.443 C 121.863 79.255,121.863 78.948,121.814 78.760 C 121.765 78.572,121.725 78.726,121.725 79.102 M55.420 80.415 C 55.769 80.458,56.340 80.458,56.689 80.415 C 57.039 80.371,56.753 80.336,56.055 80.336 C 55.356 80.336,55.071 80.371,55.420 80.415 M121.924 80.957 C 121.926 81.387,121.966 81.540,122.013 81.297 C 122.060 81.054,122.058 80.702,122.009 80.515 C 121.960 80.329,121.922 80.527,121.924 80.957 M134.717 80.415 C 135.066 80.458,135.637 80.458,135.986 80.415 C 136.335 80.371,136.050 80.336,135.352 80.336 C 134.653 80.336,134.368 80.371,134.717 80.415 M121.938 83.789 C 121.938 84.487,121.973 84.773,122.016 84.424 C 122.060 84.075,122.060 83.503,122.016 83.154 C 121.973 82.805,121.938 83.091,121.938 83.789 M69.210 88.184 C 69.209 89.150,69.242 89.571,69.283 89.117 C 69.324 88.664,69.325 87.873,69.284 87.359 C 69.244 86.846,69.211 87.217,69.210 88.184 M121.875 86.668 C 121.875 86.777,122.007 86.976,122.168 87.109 C 122.366 87.274,122.473 87.772,122.499 88.647 L 122.536 89.941 122.606 88.715 C 122.663 87.706,122.604 87.398,122.275 86.979 C 122.055 86.700,121.875 86.560,121.875 86.668 M19.772 91.016 C 19.772 91.392,19.812 91.545,19.861 91.357 C 19.910 91.169,19.910 90.862,19.861 90.674 C 19.812 90.486,19.772 90.640,19.772 91.016 M171.530 91.016 C 171.530 91.392,171.570 91.545,171.619 91.357 C 171.668 91.169,171.668 90.862,171.619 90.674 C 171.570 90.486,171.530 90.640,171.530 91.016 M68.014 91.602 C 68.014 91.978,68.054 92.131,68.103 91.943 C 68.153 91.755,68.153 91.448,68.103 91.260 C 68.054 91.072,68.014 91.226,68.014 91.602 M123.678 91.602 C 123.678 91.978,123.718 92.131,123.767 91.943 C 123.817 91.755,123.817 91.448,123.767 91.260 C 123.718 91.072,123.678 91.226,123.678 91.602 M69.004 96.484 C 69.004 97.075,69.040 97.317,69.085 97.021 C 69.130 96.726,69.130 96.243,69.085 95.947 C 69.040 95.652,69.004 95.894,69.004 96.484 M122.715 96.484 C 122.715 97.075,122.751 97.317,122.796 97.021 C 122.841 96.726,122.841 96.243,122.796 95.947 C 122.751 95.652,122.715 95.894,122.715 96.484 M67.829 97.168 C 67.831 97.705,67.869 97.902,67.914 97.605 C 67.958 97.308,67.957 96.868,67.911 96.628 C 67.865 96.388,67.828 96.631,67.829 97.168 M123.884 97.168 C 123.885 97.705,123.923 97.902,123.968 97.605 C 124.013 97.308,124.012 96.868,123.966 96.628 C 123.919 96.388,123.883 96.631,123.884 97.168 M19.772 98.242 C 19.772 98.618,19.812 98.772,19.861 98.584 C 19.910 98.396,19.910 98.088,19.861 97.900 C 19.812 97.712,19.772 97.866,19.772 98.242 M171.530 98.242 C 171.530 98.618,171.570 98.772,171.619 98.584 C 171.668 98.396,171.668 98.088,171.619 97.900 C 171.570 97.712,171.530 97.866,171.530 98.242 M37.741 98.828 C 37.741 99.204,37.781 99.358,37.830 99.170 C 37.879 98.982,37.879 98.674,37.830 98.486 C 37.781 98.298,37.741 98.452,37.741 98.828 M153.561 98.828 C 153.561 99.204,153.601 99.358,153.650 99.170 C 153.699 98.982,153.699 98.674,153.650 98.486 C 153.601 98.298,153.561 98.452,153.561 98.828 M67.627 102.637 C 67.630 103.066,67.670 103.219,67.716 102.976 C 67.763 102.733,67.761 102.382,67.712 102.195 C 67.663 102.008,67.625 102.207,67.627 102.637 M124.073 102.637 C 124.075 103.066,124.115 103.219,124.162 102.976 C 124.208 102.733,124.207 102.382,124.158 102.195 C 124.109 102.008,124.071 102.207,124.073 102.637 M68.806 103.223 C 68.807 103.760,68.845 103.956,68.890 103.659 C 68.935 103.363,68.934 102.923,68.887 102.683 C 68.841 102.443,68.804 102.686,68.806 103.223 M122.907 103.223 C 122.909 103.760,122.947 103.956,122.992 103.659 C 123.037 103.363,123.035 102.923,122.989 102.683 C 122.943 102.443,122.906 102.686,122.907 103.223 M67.432 108.496 C 67.434 108.926,67.474 109.079,67.521 108.836 C 67.568 108.593,67.566 108.241,67.517 108.054 C 67.468 107.868,67.430 108.066,67.432 108.496 M124.268 108.496 C 124.270 108.926,124.310 109.079,124.357 108.836 C 124.404 108.593,124.402 108.241,124.353 108.054 C 124.304 107.868,124.266 108.066,124.268 108.496 M68.604 109.473 C 68.606 109.902,68.646 110.055,68.693 109.812 C 68.740 109.569,68.738 109.218,68.689 109.031 C 68.640 108.844,68.602 109.043,68.604 109.473 M123.096 109.473 C 123.098 109.902,123.138 110.055,123.185 109.812 C 123.232 109.569,123.230 109.218,123.181 109.031 C 123.132 108.844,123.094 109.043,123.096 109.473 M36.572 112.640 C 36.868 112.685,37.351 112.685,37.646 112.640 C 37.942 112.595,37.700 112.559,37.109 112.559 C 36.519 112.559,36.277 112.595,36.572 112.640 M153.760 112.640 C 154.055 112.685,154.539 112.685,154.834 112.640 C 155.129 112.595,154.888 112.559,154.297 112.559 C 153.706 112.559,153.464 112.595,153.760 112.640 M67.241 114.648 C 67.241 115.132,67.279 115.330,67.325 115.088 C 67.372 114.846,67.372 114.451,67.325 114.209 C 67.279 113.967,67.241 114.165,67.241 114.648 M124.467 114.648 C 124.467 115.132,124.505 115.330,124.552 115.088 C 124.598 114.846,124.598 114.451,124.552 114.209 C 124.505 113.967,124.467 114.165,124.467 114.648 M29.297 115.723 C 28.822 116.206,28.478 116.602,28.532 116.602 C 28.586 116.602,29.018 116.206,29.492 115.723 C 29.967 115.239,30.311 114.844,30.257 114.844 C 30.203 114.844,29.771 115.239,29.297 115.723 M161.906 115.674 C 162.385 116.184,162.802 116.602,162.834 116.602 C 162.980 116.602,162.825 116.426,161.963 115.617 L 161.035 114.746 161.906 115.674 M68.415 115.918 C 68.417 116.455,68.455 116.652,68.500 116.355 C 68.544 116.058,68.543 115.618,68.497 115.378 C 68.451 115.138,68.414 115.381,68.415 115.918 M123.298 115.918 C 123.300 116.455,123.337 116.652,123.382 116.355 C 123.427 116.058,123.426 115.618,123.380 115.378 C 123.333 115.138,123.297 115.381,123.298 115.918 M67.045 120.508 C 67.045 120.991,67.083 121.189,67.130 120.947 C 67.177 120.706,67.177 120.310,67.130 120.068 C 67.083 119.827,67.045 120.024,67.045 120.508 M124.663 120.508 C 124.663 120.991,124.701 121.189,124.747 120.947 C 124.794 120.706,124.794 120.310,124.747 120.068 C 124.701 119.827,124.663 120.024,124.663 120.508 M68.213 121.973 C 68.215 122.402,68.255 122.555,68.302 122.312 C 68.349 122.069,68.347 121.718,68.298 121.531 C 68.249 121.344,68.211 121.543,68.213 121.973 M123.487 121.973 C 123.489 122.402,123.529 122.555,123.576 122.312 C 123.622 122.069,123.621 121.718,123.572 121.531 C 123.523 121.344,123.485 121.543,123.487 121.973 M95.166 124.749 C 95.461 124.794,95.945 124.794,96.240 124.749 C 96.536 124.705,96.294 124.668,95.703 124.668 C 95.112 124.668,94.871 124.705,95.166 124.749 M66.855 126.563 C 66.855 127.153,66.892 127.395,66.937 127.100 C 66.982 126.804,66.982 126.321,66.937 126.025 C 66.892 125.730,66.855 125.972,66.855 126.563 M124.863 126.563 C 124.863 127.153,124.900 127.395,124.945 127.100 C 124.989 126.804,124.989 126.321,124.945 126.025 C 124.900 125.730,124.863 125.972,124.863 126.563 M68.025 128.418 C 68.026 128.955,68.064 129.152,68.109 128.855 C 68.154 128.558,68.153 128.118,68.106 127.878 C 68.060 127.638,68.023 127.881,68.025 128.418 M123.689 128.418 C 123.690 128.955,123.728 129.152,123.773 128.855 C 123.818 128.558,123.817 128.118,123.770 127.878 C 123.724 127.638,123.687 127.881,123.689 128.418 M29.688 131.348 C 30.271 131.938,30.792 132.422,30.846 132.422 C 30.900 132.422,30.466 131.938,29.883 131.348 C 29.299 130.757,28.778 130.273,28.724 130.273 C 28.671 130.273,29.104 130.757,29.688 131.348 M161.517 131.396 L 160.449 132.520 161.572 131.452 C 162.616 130.460,162.785 130.273,162.640 130.273 C 162.609 130.273,162.104 130.779,161.517 131.396 M87.692 133.350 L 85.645 135.449 87.744 133.402 C 89.694 131.500,89.932 131.250,89.791 131.250 C 89.763 131.250,88.818 132.195,87.692 133.350 M103.512 133.252 C 105.414 135.202,105.664 135.440,105.664 135.299 C 105.664 135.270,104.719 134.326,103.564 133.200 L 101.465 131.152 103.512 133.252 M66.660 132.422 C 66.660 133.013,66.697 133.254,66.741 132.959 C 66.786 132.664,66.786 132.180,66.741 131.885 C 66.697 131.589,66.660 131.831,66.660 132.422 M125.059 132.422 C 125.059 133.013,125.095 133.254,125.140 132.959 C 125.185 132.664,125.185 132.180,125.140 131.885 C 125.095 131.589,125.059 131.831,125.059 132.422 M49.414 132.092 C 49.414 132.126,49.700 132.412,50.049 132.727 L 50.684 133.301 50.110 132.666 C 49.575 132.074,49.414 131.941,49.414 132.092 M141.296 132.666 L 140.723 133.301 141.357 132.727 C 141.949 132.192,142.082 132.031,141.931 132.031 C 141.897 132.031,141.612 132.317,141.296 132.666 M67.829 134.863 C 67.831 135.400,67.869 135.597,67.914 135.300 C 67.958 135.003,67.957 134.564,67.911 134.323 C 67.865 134.083,67.828 134.326,67.829 134.863 M123.884 134.863 C 123.885 135.400,123.923 135.597,123.968 135.300 C 124.013 135.003,124.012 134.564,123.966 134.323 C 123.919 134.083,123.883 134.326,123.884 134.863 M37.649 134.904 C 37.892 134.950,38.243 134.949,38.430 134.900 C 38.617 134.851,38.418 134.813,37.988 134.815 C 37.559 134.817,37.406 134.857,37.649 134.904 M153.078 134.904 C 153.321 134.950,153.673 134.949,153.860 134.900 C 154.046 134.851,153.848 134.813,153.418 134.815 C 152.988 134.817,152.835 134.857,153.078 134.904 M52.734 135.413 C 52.734 135.446,53.020 135.732,53.369 136.047 L 54.004 136.621 53.430 135.986 C 52.896 135.395,52.734 135.262,52.734 135.413 M137.976 135.986 L 137.402 136.621 138.037 136.047 C 138.386 135.732,138.672 135.446,138.672 135.413 C 138.672 135.262,138.511 135.395,137.976 135.986 M140.450 136.433 C 139.739 137.242,139.692 137.399,140.251 137.100 C 140.475 136.981,140.606 136.830,140.542 136.766 C 140.478 136.702,140.618 136.446,140.853 136.196 C 141.087 135.946,141.229 135.742,141.168 135.742 C 141.106 135.742,140.783 136.053,140.450 136.433 M55.991 138.102 C 56.233 138.395,57.422 139.143,57.422 139.002 C 57.422 138.956,57.048 138.673,56.592 138.372 C 56.135 138.071,55.865 137.949,55.991 138.102 M66.462 138.770 C 66.464 139.307,66.502 139.503,66.546 139.206 C 66.591 138.909,66.590 138.470,66.544 138.230 C 66.497 137.990,66.461 138.232,66.462 138.770 M125.251 138.770 C 125.253 139.307,125.291 139.503,125.335 139.206 C 125.380 138.909,125.379 138.470,125.333 138.230 C 125.286 137.990,125.250 138.232,125.251 138.770 M67.631 140.820 C 67.631 141.304,67.669 141.501,67.716 141.260 C 67.763 141.018,67.763 140.623,67.716 140.381 C 67.669 140.139,67.631 140.337,67.631 140.820 M124.077 140.820 C 124.077 141.304,124.115 141.501,124.161 141.260 C 124.208 141.018,124.208 140.623,124.161 140.381 C 124.115 140.139,124.077 140.337,124.077 140.820 M62.402 141.406 C 62.617 141.499,62.925 141.574,63.086 141.574 C 63.271 141.574,63.234 141.512,62.988 141.406 C 62.773 141.314,62.466 141.238,62.305 141.238 C 62.120 141.238,62.156 141.300,62.402 141.406 M128.418 141.406 C 128.172 141.512,128.136 141.574,128.320 141.574 C 128.481 141.574,128.789 141.499,129.004 141.406 C 129.250 141.300,129.286 141.238,129.102 141.238 C 128.940 141.238,128.633 141.314,128.418 141.406 M68.311 142.331 C 68.767 142.372,69.514 142.372,69.971 142.331 C 70.427 142.289,70.054 142.256,69.141 142.256 C 68.228 142.256,67.854 142.289,68.311 142.331 M121.533 142.331 C 122.043 142.371,122.878 142.371,123.389 142.331 C 123.899 142.291,123.481 142.258,122.461 142.258 C 121.440 142.258,121.023 142.291,121.533 142.331 " stroke="none" fill="#343424" fill-rule="evenodd"></path><path id="path7" d="" stroke="none" fill="#9c8474" fill-rule="evenodd"></path><path id="path8" d="" stroke="none" fill="#7c6c5c" fill-rule="evenodd"></path></g></svg>