<svg id="svg" version="1.1" xmlns="http://www.w3.org/2000/svg" xmlns:xlink="http://www.w3.org/1999/xlink" width="400" height="400" viewBox="0, 0, 400,400"><g id="svgg"><path id="path0" d="M281.250 13.722 C 281.196 13.774,280.229 13.875,279.102 13.946 C 232.862 16.862,200.953 58.256,209.101 104.753 C 210.097 110.437,212.017 117.052,213.561 120.117 C 214.021 121.030,214.591 122.384,214.828 123.125 C 217.370 131.081,226.593 135.161,233.887 131.557 C 234.639 131.185,235.307 130.942,235.372 131.017 C 235.437 131.091,236.948 134.800,238.731 139.258 C 240.513 143.716,244.183 152.856,246.886 159.570 C 249.588 166.284,251.959 172.180,252.154 172.673 L 252.508 173.569 250.429 173.612 C 249.285 173.636,248.319 173.686,248.282 173.723 C 248.184 173.822,248.211 219.370,248.310 219.469 C 248.357 219.515,252.361 219.548,257.208 219.542 L 266.022 219.530 265.995 233.935 L 265.969 248.340 264.606 251.660 C 263.857 253.486,263.129 255.244,262.989 255.566 C 262.415 256.888,260.547 261.498,260.547 261.593 C 260.547 261.650,260.063 262.705,259.473 263.939 C 258.882 265.173,258.398 266.341,258.398 266.536 C 258.398 266.731,257.961 267.946,257.426 269.236 C 254.755 275.680,253.045 279.945,252.533 281.445 C 251.949 283.155,249.931 287.883,249.756 287.950 C 249.702 287.971,248.502 287.166,247.090 286.162 C 244.018 283.977,244.048 283.978,242.504 286.029 C 241.549 287.298,239.331 290.768,239.204 291.192 C 239.129 291.442,255.516 302.344,255.967 302.344 C 256.298 302.344,256.882 301.634,258.579 299.170 C 262.402 293.617,262.137 294.021,265.137 289.160 C 267.065 286.036,269.381 282.525,269.561 282.454 C 269.652 282.419,269.727 282.295,269.727 282.179 C 269.727 282.064,270.270 281.126,270.933 280.096 C 274.110 275.165,280.072 265.799,282.321 262.207 C 283.263 260.703,284.286 259.205,284.595 258.877 C 284.904 258.550,285.159 258.155,285.163 257.999 C 285.167 257.842,285.288 257.502,285.432 257.243 L 285.693 256.770 285.944 257.243 C 286.208 257.739,290.484 264.512,297.965 276.281 C 300.427 280.155,302.529 283.460,302.637 283.626 C 302.744 283.791,303.201 284.489,303.653 285.176 C 304.852 287.003,306.370 289.390,307.813 291.722 C 308.511 292.850,309.453 294.318,309.906 294.982 C 314.589 301.855,314.947 302.336,315.385 302.340 C 315.813 302.344,319.095 300.219,327.500 294.496 C 329.680 293.012,331.582 291.797,331.727 291.797 C 332.558 291.797,331.035 288.778,328.750 285.896 C 327.177 283.913,327.583 283.835,323.126 286.966 L 321.544 288.076 320.391 285.422 C 319.757 283.962,319.163 282.536,319.071 282.253 C 318.979 281.970,318.598 280.928,318.225 279.938 C 317.852 278.948,317.612 278.033,317.691 277.906 C 317.787 277.749,317.750 277.726,317.575 277.834 C 317.389 277.949,317.350 277.906,317.436 277.681 C 317.502 277.510,317.482 277.341,317.391 277.308 C 317.228 277.247,316.444 275.415,314.064 269.531 C 311.377 262.887,307.687 253.909,306.150 250.275 L 305.316 248.305 305.315 233.918 L 305.314 219.531 314.278 219.531 L 323.242 219.531 323.244 218.604 C 323.250 213.941,323.255 180.124,323.250 177.302 L 323.242 173.646 321.308 173.591 L 319.373 173.535 321.179 169.043 C 322.173 166.572,326.002 157.036,329.688 147.852 C 333.374 138.667,336.407 131.129,336.428 131.100 C 336.448 131.071,337.035 131.315,337.732 131.641 C 345.090 135.084,354.136 131.014,356.656 123.125 C 356.893 122.384,357.463 121.030,357.923 120.117 C 358.383 119.204,359.112 117.398,359.543 116.105 C 364.054 102.566,364.868 86.846,361.774 73.047 C 361.497 71.812,361.252 70.669,361.229 70.508 C 361.206 70.347,361.139 70.083,361.081 69.922 C 361.022 69.761,360.607 68.398,360.159 66.895 C 353.503 44.566,336.731 26.896,314.203 18.476 C 309.021 16.540,300.769 14.758,293.359 13.976 C 291.914 13.823,281.373 13.602,281.250 13.722 M281.642 16.064 C 281.643 16.199,282.254 16.947,283.000 17.728 C 284.339 19.128,285.199 19.655,286.882 20.108 C 288.064 20.427,288.605 21.053,288.760 22.284 C 289.358 27.018,292.556 29.557,294.217 26.617 C 295.475 24.392,294.736 17.451,293.122 16.320 L 292.687 16.016 293.275 16.016 C 295.376 16.016,302.097 17.208,305.980 18.270 C 309.622 19.266,309.811 19.346,309.671 19.819 C 307.763 26.276,308.243 27.935,312.248 28.717 C 316.111 29.471,317.153 31.243,315.634 34.473 L 315.266 35.254 315.250 34.546 C 315.172 31.049,311.420 28.315,307.938 29.217 C 305.871 29.753,303.015 29.279,300.149 27.923 C 298.376 27.084,296.484 27.379,296.484 28.494 C 296.484 28.600,296.141 29.084,295.720 29.570 C 293.036 32.672,296.018 35.848,302.169 36.437 C 304.322 36.644,305.280 37.198,306.137 38.729 C 307.655 41.443,309.560 42.030,311.296 40.318 L 312.202 39.425 313.306 39.554 C 314.002 39.634,314.456 39.606,314.536 39.477 C 314.611 39.356,314.966 39.576,315.402 40.011 C 316.557 41.166,317.310 41.294,321.547 41.059 C 327.098 40.750,329.141 39.399,330.545 35.109 C 330.800 34.329,331.233 33.208,331.507 32.617 C 331.782 32.026,332.054 31.385,332.113 31.193 C 332.329 30.488,335.107 32.744,339.844 37.471 L 343.457 41.078 342.606 41.235 C 339.913 41.734,338.970 46.502,340.951 49.599 C 342.078 51.360,342.044 51.901,340.661 54.167 C 338.599 57.544,338.845 60.584,341.283 61.852 C 342.810 62.646,345.463 60.296,345.817 57.836 C 345.888 57.340,346.384 56.099,346.919 55.078 L 347.893 53.223 347.770 51.410 C 347.703 50.413,347.513 49.202,347.349 48.719 C 347.181 48.224,347.077 47.374,347.110 46.771 L 347.168 45.700 348.340 47.359 C 350.005 49.717,352.084 53.199,353.588 56.152 L 354.882 58.691 353.857 58.747 C 353.293 58.777,352.020 59.069,351.027 59.397 C 348.454 60.245,348.083 60.828,348.738 62.987 C 349.075 64.098,348.980 64.793,348.391 65.542 C 347.515 66.656,348.258 68.087,350.195 69.016 C 351.221 69.507,351.391 70.067,350.893 71.310 C 350.102 73.288,351.401 74.805,353.888 74.805 C 355.260 74.805,357.502 72.844,358.502 70.769 L 358.921 69.900 359.249 71.132 C 359.429 71.809,359.741 73.127,359.942 74.062 L 360.308 75.760 359.695 75.892 C 356.540 76.574,355.855 78.569,357.690 81.734 C 358.712 83.495,358.777 83.985,358.294 86.299 C 357.714 89.077,359.422 91.039,361.285 89.735 L 361.719 89.431 361.719 91.072 C 361.719 91.975,361.662 93.514,361.593 94.491 L 361.466 96.270 360.892 95.973 C 358.030 94.493,355.050 95.453,354.311 98.094 C 353.944 99.405,354.624 102.108,355.985 104.742 C 356.232 105.219,356.226 105.442,355.936 106.597 C 355.290 109.170,356.772 112.695,358.499 112.695 C 358.888 112.695,358.895 112.660,357.861 116.200 L 357.151 118.630 356.918 117.246 C 355.878 111.072,351.272 107.005,345.262 106.952 C 343.938 106.940,343.193 106.861,343.248 106.738 C 345.107 102.625,346.002 96.702,345.266 93.394 L 345.121 92.744 345.944 93.428 C 346.513 93.901,346.863 94.401,347.080 95.054 C 348.052 97.978,349.971 96.223,350.680 91.762 C 350.784 91.102,350.876 91.016,351.782 90.715 C 355.386 89.517,354.921 87.996,349.805 84.246 C 348.462 83.262,346.572 81.655,345.605 80.677 C 343.159 78.199,342.314 78.044,339.377 79.533 L 338.618 79.918 338.108 79.505 C 334.915 76.918,332.960 75.840,329.715 74.879 C 329.495 74.814,329.498 74.727,329.732 74.363 C 331.411 71.763,330.539 67.974,328.262 67.969 C 327.955 67.969,327.977 67.881,328.431 67.286 C 329.077 66.438,329.140 65.030,328.579 63.920 C 328.070 62.911,324.886 58.873,324.233 58.408 C 323.503 57.889,322.266 55.828,322.266 55.132 C 322.266 54.358,321.461 53.353,319.860 52.126 C 319.102 51.544,318.369 50.793,318.159 50.380 C 317.583 49.252,313.480 46.187,310.291 44.504 C 308.614 43.618,308.157 43.255,306.611 41.580 C 303.895 38.636,302.494 38.345,300.216 40.248 C 297.468 42.544,298.091 46.080,301.555 47.847 C 302.111 48.131,302.518 48.556,302.927 49.282 C 304.265 51.652,305.816 52.767,308.747 53.468 C 310.120 53.797,310.165 53.826,310.024 54.297 C 309.491 56.083,310.211 57.137,312.891 58.494 C 314.769 59.446,314.950 59.616,316.502 61.914 C 317.120 62.827,317.919 63.882,318.278 64.259 L 318.931 64.944 317.813 65.838 C 314.043 68.855,312.881 68.974,311.690 66.467 C 307.794 58.267,299.739 52.233,291.266 51.168 C 290.323 51.049,289.243 50.901,288.867 50.838 L 288.184 50.723 288.936 50.556 C 291.390 50.010,291.875 48.123,289.939 46.661 C 288.704 45.729,288.615 45.347,289.278 43.848 C 290.576 40.914,288.509 37.262,285.382 36.961 C 283.333 36.764,282.558 37.760,282.623 40.504 C 282.684 43.083,282.682 43.091,281.925 43.929 C 281.144 44.793,280.093 45.225,278.069 45.514 C 276.047 45.803,275.292 46.546,275.105 48.431 C 274.864 50.855,273.405 51.584,268.457 51.758 C 262.556 51.966,261.377 52.987,263.119 56.383 L 263.738 57.590 263.289 59.729 L 262.840 61.868 262.061 62.125 C 260.001 62.805,258.790 64.465,258.787 66.614 C 258.785 68.093,258.206 69.521,257.050 70.898 C 254.958 73.393,255.097 76.497,257.338 77.349 C 257.749 77.505,257.832 77.637,257.739 77.982 C 257.675 78.222,257.621 78.577,257.620 78.771 C 257.618 79.043,257.292 78.870,256.202 78.017 C 252.093 74.801,246.501 73.608,241.680 74.919 C 241.357 75.006,241.218 74.902,241.019 74.422 C 240.678 73.600,240.299 73.437,238.720 73.438 C 237.375 73.438,236.024 72.763,235.090 71.625 C 233.917 70.197,232.169 70.178,230.859 71.579 C 230.399 72.071,230.365 72.262,230.261 74.869 C 230.138 77.984,229.837 79.000,228.409 81.136 C 227.176 82.981,227.154 83.038,227.151 84.476 C 227.149 85.460,227.254 86.044,227.525 86.548 L 227.902 87.251 227.343 88.889 C 226.585 91.110,226.161 93.271,226.027 95.595 C 225.921 97.451,225.890 97.559,225.332 98.028 C 224.178 98.999,223.720 100.799,224.327 101.973 C 224.494 102.296,224.680 103.017,224.741 103.575 L 224.852 104.590 224.254 103.711 C 223.295 102.300,222.163 101.318,220.650 100.586 L 219.238 99.902 219.084 98.633 C 218.803 96.334,217.811 94.944,216.620 95.182 C 216.082 95.289,216.052 95.257,215.930 94.448 C 215.860 93.982,215.489 93.085,215.105 92.455 C 213.599 89.984,213.635 89.434,215.420 87.598 C 219.167 83.744,217.221 78.784,212.222 79.445 C 210.281 79.702,210.422 80.022,211.027 76.728 C 212.210 70.292,214.595 62.548,215.282 62.916 C 216.117 63.363,216.861 63.466,217.712 63.252 C 218.809 62.975,219.208 63.298,219.656 64.825 C 220.697 68.373,221.449 69.119,224.165 69.295 C 228.985 69.608,227.434 61.845,222.162 59.266 C 220.286 58.348,219.922 57.571,219.922 54.487 L 219.922 52.321 221.111 50.428 C 224.545 44.960,229.834 38.750,234.787 34.372 C 236.420 32.929,236.630 32.878,238.847 33.383 C 246.457 35.117,249.859 34.147,251.395 29.804 C 252.287 27.282,253.938 25.835,257.148 24.764 C 260.024 23.804,261.719 21.933,261.719 19.718 C 261.719 19.353,262.826 18.958,266.602 17.979 C 270.096 17.073,276.119 16.034,274.025 16.699 C 271.298 17.564,270.437 21.939,272.463 24.636 C 272.912 25.233,273.307 26.041,273.441 26.637 C 273.565 27.187,273.713 27.802,273.769 28.004 C 273.847 28.286,273.660 28.210,272.956 27.672 C 270.062 25.462,267.054 25.644,265.247 28.139 C 264.624 28.999,264.362 29.974,263.985 32.834 C 263.694 35.038,263.208 36.040,260.702 39.596 C 258.537 42.668,258.391 44.599,260.238 45.726 C 262.366 47.024,264.400 45.964,267.103 42.147 C 268.038 40.827,269.121 39.484,269.509 39.164 C 271.171 37.792,272.374 36.547,273.067 35.483 L 273.808 34.345 273.693 35.092 C 273.630 35.503,273.467 36.060,273.333 36.328 C 271.035 40.909,275.609 42.650,278.129 38.153 C 278.481 37.525,279.277 36.384,279.897 35.617 C 283.024 31.751,283.611 26.700,281.085 25.404 C 279.653 24.670,278.839 23.087,278.515 20.410 C 278.224 18.004,277.312 16.441,276.172 16.395 C 274.780 16.339,278.196 15.887,280.322 15.846 C 281.259 15.828,281.641 15.891,281.642 16.064 M251.443 33.186 C 250.838 33.461,250.462 33.844,249.915 34.746 C 249.515 35.403,248.829 36.226,248.390 36.574 C 245.581 38.803,245.516 40.117,248.091 42.668 L 249.463 44.028 249.347 45.207 C 249.283 45.856,249.041 46.870,248.809 47.461 C 246.820 52.516,250.519 55.316,253.548 51.048 C 255.260 48.636,255.426 48.268,256.189 45.215 C 258.247 36.975,255.946 31.141,251.443 33.186 M230.172 42.850 C 228.607 43.341,227.170 44.525,226.471 45.898 C 225.950 46.924,225.850 47.357,225.597 49.656 C 225.429 51.179,225.323 51.488,224.608 52.541 C 221.717 56.799,223.684 60.250,230.113 62.197 C 233.461 63.211,234.766 63.075,236.853 61.496 C 238.843 59.989,238.368 61.472,236.125 63.770 C 233.595 66.360,234.734 67.985,238.527 67.197 C 244.755 65.904,249.916 56.806,244.955 55.866 C 242.972 55.490,242.836 55.257,243.281 53.013 C 243.845 50.174,243.324 49.272,240.384 47.998 C 238.613 47.231,236.639 47.009,235.486 47.447 L 235.009 47.628 235.381 46.649 C 236.463 43.803,233.658 41.758,230.172 42.850 M326.281 46.751 C 325.772 47.158,325.697 47.355,325.632 48.459 C 325.505 50.594,326.385 51.579,330.252 53.629 C 331.737 54.416,332.406 55.266,332.418 56.379 C 332.431 57.733,335.809 58.367,337.264 57.289 C 338.790 56.159,339.135 53.837,338.094 51.692 C 337.611 50.696,337.400 50.559,335.352 49.908 C 333.637 49.363,332.249 48.642,331.531 47.924 C 329.914 46.307,327.507 45.769,326.281 46.751 M290.967 53.420 C 303.556 55.461,312.015 65.853,311.946 79.191 C 311.932 81.991,311.985 82.762,312.209 83.010 C 312.530 83.365,312.592 84.575,312.894 96.289 C 313.001 100.425,313.130 104.863,313.181 106.152 C 313.232 107.441,313.321 110.254,313.379 112.402 C 313.437 114.551,313.527 117.363,313.578 118.652 C 313.630 119.941,313.760 124.336,313.868 128.418 C 313.975 132.500,314.106 136.345,314.158 136.963 L 314.252 138.086 313.425 138.109 C 303.775 138.384,293.395 131.608,287.191 120.984 C 287.031 120.710,286.709 120.610,285.866 120.572 C 284.561 120.513,284.764 120.336,282.588 123.438 C 275.777 133.149,267.008 138.436,258.255 138.109 L 257.623 138.086 257.717 136.963 C 257.769 136.345,257.900 132.500,258.009 128.418 C 258.117 124.336,258.248 119.854,258.299 118.457 C 258.389 115.998,258.478 113.204,258.691 106.055 C 258.748 104.175,258.839 101.274,258.895 99.609 C 258.950 97.944,259.082 93.387,259.186 89.482 C 259.291 85.577,259.431 82.293,259.498 82.186 C 259.565 82.078,259.507 81.651,259.371 81.237 C 259.074 80.338,259.336 78.024,260.083 74.936 C 263.527 60.716,277.204 51.187,290.967 53.420 M249.365 76.756 C 252.213 77.439,254.823 79.018,257.031 81.396 L 258.301 82.763 258.164 85.766 C 258.089 87.418,257.763 96.899,257.439 106.836 C 257.116 116.772,256.806 126.133,256.750 127.637 C 256.694 129.141,256.591 132.094,256.522 134.200 L 256.396 138.030 254.907 137.751 C 249.915 136.816,246.005 134.501,241.176 129.623 C 239.599 128.031,238.160 126.705,237.977 126.679 C 237.728 126.642,237.038 124.947,235.244 119.964 C 232.322 111.851,231.353 109.360,229.982 106.445 C 222.888 91.352,234.710 73.243,249.365 76.756 M329.066 76.759 C 341.105 79.646,347.343 94.801,341.383 106.686 C 340.859 107.731,340.430 108.839,340.430 109.148 C 340.430 109.456,339.915 111.062,339.286 112.716 C 338.658 114.369,337.239 118.246,336.134 121.330 C 334.273 126.525,334.098 126.923,333.753 126.738 C 333.430 126.565,332.981 126.940,330.410 129.529 C 325.962 134.010,322.342 136.323,318.086 137.402 C 315.207 138.133,315.502 138.475,315.355 134.229 C 315.285 132.214,315.181 129.248,315.124 127.637 C 315.067 126.025,314.762 116.753,314.446 107.031 C 314.130 97.310,313.814 88.023,313.743 86.395 C 313.620 83.562,313.632 83.413,314.034 82.902 C 314.264 82.609,314.453 82.129,314.453 81.836 C 314.453 80.953,316.695 79.063,319.293 77.755 C 322.007 76.388,325.873 75.994,329.066 76.759 M215.415 100.904 C 215.427 101.410,215.329 101.553,214.844 101.734 C 214.521 101.855,214.000 102.049,213.686 102.166 C 212.759 102.512,212.402 103.051,212.402 104.108 C 212.402 106.392,214.645 107.271,216.667 105.780 L 217.221 105.371 217.644 105.903 C 217.876 106.196,218.273 106.704,218.526 107.032 C 218.823 107.419,219.288 107.710,219.844 107.859 C 220.858 108.130,220.886 108.206,220.135 108.650 C 217.106 110.439,214.453 114.820,214.453 118.033 C 214.453 118.959,214.324 118.634,213.371 115.320 C 212.273 111.499,211.467 107.936,210.944 104.590 C 210.725 103.193,210.505 101.809,210.454 101.514 C 210.366 101.006,210.402 100.977,211.104 100.977 C 211.992 100.977,213.430 100.096,214.209 99.074 L 214.730 98.392 215.065 99.342 C 215.249 99.865,215.406 100.568,215.415 100.904 M229.864 109.131 C 230.221 109.488,230.643 110.389,231.121 111.817 C 231.517 112.998,232.869 116.858,234.125 120.393 L 236.411 126.821 235.291 127.839 C 230.248 132.421,222.011 131.199,218.271 125.313 C 214.542 119.446,216.749 111.780,222.861 109.371 C 225.375 108.380,228.989 108.256,229.864 109.131 M348.293 109.239 C 355.749 112.125,357.407 121.598,351.471 127.394 C 347.309 131.457,340.438 131.730,336.380 127.992 L 335.358 127.051 337.215 121.875 C 338.236 119.028,339.640 115.048,340.334 113.030 C 342.062 108.003,341.561 108.532,344.501 108.638 C 346.562 108.713,347.192 108.812,348.293 109.239 M286.957 125.146 C 287.546 126.086,289.328 129.404,290.918 132.520 C 294.445 139.433,305.028 159.962,310.579 170.662 C 314.369 177.965,314.867 179.107,314.140 178.828 C 313.919 178.743,313.866 179.063,313.861 180.524 C 313.858 181.514,313.847 187.795,313.838 194.482 L 313.821 206.641 309.645 206.641 L 305.469 206.641 305.469 198.168 C 305.469 190.905,305.510 189.662,305.759 189.455 C 305.919 189.322,306.947 188.031,308.043 186.584 L 310.035 183.955 310.107 182.261 C 310.299 177.711,308.834 173.262,305.702 168.887 C 304.273 166.891,299.983 162.500,299.462 162.500 C 299.360 162.500,299.043 162.284,298.759 162.021 C 298.475 161.758,298.241 161.604,298.239 161.679 C 298.238 161.755,298.172 161.723,298.093 161.608 C 296.997 160.020,289.970 157.831,285.938 157.822 C 274.111 157.796,262.287 169.162,261.955 180.873 L 261.869 183.915 263.362 185.854 C 264.184 186.920,265.114 188.113,265.430 188.505 L 266.004 189.217 266.011 197.882 L 266.019 206.547 261.800 206.593 L 257.580 206.639 257.621 202.880 C 257.751 190.807,257.613 178.934,257.341 178.872 C 257.147 178.827,258.219 176.586,260.969 171.289 C 267.558 158.598,278.185 137.973,281.978 130.518 C 283.959 126.624,285.649 123.438,285.733 123.438 C 285.818 123.438,286.368 124.207,286.957 125.146 M242.596 144.226 C 244.408 149.268,245.858 153.425,245.819 153.465 C 245.779 153.505,244.145 149.518,242.189 144.605 C 240.232 139.692,238.104 134.407,237.459 132.860 L 236.288 130.049 236.736 129.572 L 237.184 129.095 238.242 132.077 C 238.824 133.717,240.784 139.184,242.596 144.226 M332.806 130.539 C 332.580 131.143,332.203 131.781,331.969 131.956 C 331.701 132.156,331.664 132.234,331.869 132.165 C 332.133 132.077,332.053 132.451,331.447 134.143 C 331.036 135.291,328.707 141.768,326.271 148.535 C 323.835 155.303,320.821 163.718,319.573 167.236 C 317.025 174.421,316.605 175.110,316.598 172.119 C 316.597 171.287,316.513 168.145,316.412 165.137 C 316.311 162.129,316.178 158.086,316.116 156.152 C 316.053 154.219,315.918 150.264,315.815 147.363 C 315.555 140.044,315.540 140.454,316.064 140.349 C 322.567 139.051,327.506 136.184,331.346 131.479 C 333.328 129.050,333.374 129.021,332.806 130.539 M334.772 131.997 C 334.369 132.929,332.259 138.156,330.082 143.613 C 327.906 149.070,326.093 153.502,326.053 153.462 C 326.013 153.422,327.023 150.496,328.298 146.958 C 329.572 143.421,331.430 138.242,332.426 135.449 C 333.422 132.656,334.314 130.161,334.409 129.903 L 334.582 129.435 335.044 129.869 L 335.505 130.302 334.772 131.997 M279.526 132.471 C 278.354 134.682,274.134 142.837,264.645 161.230 C 261.818 166.709,258.862 172.422,258.076 173.926 L 256.647 176.660 256.644 174.790 C 256.641 173.051,257.083 158.391,257.312 152.637 C 257.368 151.240,257.472 147.966,257.544 145.361 L 257.675 140.625 259.551 140.624 C 266.493 140.621,273.516 137.415,279.194 131.655 C 279.943 130.895,280.586 130.273,280.623 130.273 C 280.660 130.273,280.166 131.262,279.526 132.471 M245.226 136.185 C 248.377 138.279,251.277 139.514,254.556 140.158 L 256.250 140.491 256.249 141.290 C 256.248 141.730,256.163 144.463,256.060 147.363 C 255.957 150.264,255.822 154.219,255.759 156.152 C 255.697 158.086,255.564 162.129,255.463 165.137 C 255.362 168.145,255.278 171.287,255.277 172.119 C 255.270 175.110,254.850 174.421,252.302 167.236 C 250.166 161.215,239.652 131.959,239.346 131.186 C 239.268 130.989,240.117 131.740,241.233 132.854 C 242.484 134.103,244.015 135.380,245.226 136.185 M295.703 134.695 C 300.688 138.585,306.331 140.622,312.129 140.624 L 314.200 140.625 314.331 145.361 C 314.403 147.966,314.507 151.240,314.563 152.637 C 314.792 158.391,315.234 173.051,315.231 174.790 L 315.228 176.660 313.799 173.926 C 313.013 172.422,310.057 166.709,307.230 161.230 C 296.442 140.320,293.289 134.224,292.430 132.617 L 291.544 130.957 292.989 132.330 C 293.783 133.086,295.005 134.150,295.703 134.695 M292.338 160.178 C 292.772 160.341,292.764 160.361,291.998 161.053 C 291.535 161.471,291.120 162.073,290.986 162.521 L 290.758 163.281 289.231 163.281 C 286.441 163.281,285.577 163.976,286.359 165.590 C 288.034 169.051,293.442 169.334,294.338 166.008 C 294.619 164.966,295.697 164.059,296.638 164.075 C 299.209 164.117,300.998 164.902,302.316 166.566 L 302.963 167.383 301.957 167.383 C 300.128 167.383,299.396 168.432,300.178 169.933 C 300.904 171.326,300.757 171.971,299.414 173.273 C 298.119 174.529,297.908 175.252,298.628 175.972 C 299.665 177.008,300.654 176.723,302.171 174.949 C 302.837 174.172,303.613 173.384,303.897 173.199 L 304.412 172.864 304.332 174.176 C 304.220 176.031,303.906 176.683,302.941 177.069 C 302.164 177.380,301.833 178.102,302.327 178.408 C 302.426 178.469,302.244 178.780,301.924 179.100 C 300.555 180.470,301.730 181.712,303.609 180.881 L 304.536 180.471 305.122 180.964 C 306.390 182.031,307.315 180.991,306.734 179.150 C 306.608 178.751,306.659 178.711,307.285 178.711 C 307.665 178.711,308.103 178.662,308.258 178.603 C 308.589 178.476,308.739 179.067,308.921 181.201 L 309.042 182.617 303.746 182.617 C 298.651 182.617,298.443 182.602,298.242 182.227 C 298.127 182.012,297.935 181.836,297.814 181.836 C 297.628 181.836,293.779 179.965,293.585 179.780 C 293.549 179.745,293.778 179.582,294.095 179.418 C 295.141 178.877,295.724 176.611,295.147 175.329 C 294.644 174.209,294.063 173.729,292.263 172.943 C 289.972 171.942,289.895 171.985,289.168 174.641 C 288.810 175.953,288.107 176.642,286.936 176.829 C 285.753 177.018,285.430 177.608,285.716 179.058 C 285.837 179.673,285.958 180.439,285.985 180.760 C 286.021 181.178,286.188 181.417,286.568 181.599 C 287.035 181.822,287.072 181.901,286.863 182.235 C 286.642 182.590,286.388 182.617,283.282 182.617 L 279.940 182.617 280.176 181.689 C 280.757 179.402,280.745 179.310,279.730 178.361 C 277.311 176.097,276.191 176.280,275.076 179.122 C 274.679 180.133,274.310 180.699,273.693 181.242 C 273.230 181.649,272.852 182.126,272.852 182.300 C 272.852 182.573,272.559 182.617,270.755 182.617 L 268.658 182.617 269.674 181.933 C 271.401 180.770,271.680 178.340,270.013 178.979 C 269.839 179.046,269.588 178.769,269.300 178.193 C 268.827 177.246,266.983 176.109,265.093 175.601 L 264.283 175.382 264.694 174.361 C 265.229 173.030,265.346 172.913,265.767 173.284 C 266.664 174.076,269.506 173.684,270.572 172.621 C 271.217 171.978,271.645 171.931,272.288 172.435 C 272.544 172.635,273.209 173.029,273.765 173.310 C 274.322 173.591,274.832 173.910,274.900 174.020 C 275.294 174.657,278.861 172.303,279.315 171.106 C 279.804 169.819,278.348 168.468,276.623 168.606 C 275.185 168.722,274.971 168.603,274.253 167.293 C 273.596 166.096,272.981 165.639,271.792 165.468 L 270.854 165.332 271.804 164.539 C 272.326 164.102,273.179 163.456,273.699 163.101 L 274.644 162.457 275.262 163.038 C 275.601 163.357,276.407 163.970,277.052 164.401 C 277.955 165.004,278.399 165.482,278.984 166.482 C 280.183 168.533,280.891 168.505,282.031 166.363 C 282.989 164.563,283.239 164.339,285.513 163.251 C 287.980 162.070,289.258 160.979,289.258 160.053 L 289.258 159.414 290.576 159.713 C 291.301 159.877,292.094 160.087,292.338 160.178 M283.867 170.691 C 283.633 170.790,283.129 171.512,282.695 172.371 C 282.264 173.224,281.666 174.084,281.316 174.351 C 279.883 175.449,279.796 176.799,281.070 178.166 C 281.491 178.617,281.836 179.046,281.836 179.119 C 281.836 179.403,282.613 179.434,282.995 179.167 C 283.298 178.954,283.398 178.672,283.398 178.029 C 283.398 177.362,283.479 177.149,283.769 177.057 C 285.095 176.636,286.908 174.402,286.912 173.184 C 286.918 171.608,285.141 170.153,283.867 170.691 M253.723 176.074 C 254.157 177.145,254.279 177.764,254.287 178.930 L 254.297 180.418 255.029 180.541 C 255.618 180.639,255.825 180.587,256.086 180.273 C 256.607 179.646,256.641 179.763,256.641 182.227 L 256.641 184.570 252.930 184.570 L 249.219 184.570 249.219 179.583 L 249.219 174.596 251.194 174.651 L 253.170 174.707 253.723 176.074 M322.266 179.590 L 322.266 184.570 318.555 184.570 L 314.844 184.570 314.844 182.227 C 314.844 180.215,314.888 179.883,315.154 179.883 C 315.499 179.883,316.194 180.626,316.204 181.006 C 316.208 181.140,316.431 181.250,316.699 181.250 C 317.173 181.250,317.188 181.211,317.188 179.888 C 317.188 178.821,317.319 178.197,317.794 177.007 C 318.127 176.172,318.477 175.291,318.570 175.049 C 318.729 174.638,318.856 174.609,320.503 174.609 L 322.266 174.609 322.266 179.590 M324.272 177.734 C 324.272 178.218,324.310 178.416,324.357 178.174 C 324.403 177.932,324.403 177.537,324.357 177.295 C 324.310 177.053,324.272 177.251,324.272 177.734 M264.892 178.857 C 265.059 179.045,265.285 179.527,265.394 179.929 L 265.592 180.658 264.794 180.873 C 263.324 181.269,262.591 180.094,263.415 178.662 C 263.576 178.383,264.589 178.517,264.892 178.857 M266.016 185.449 C 266.016 187.688,266.158 187.679,264.474 185.547 C 262.790 183.415,262.783 183.594,264.551 183.594 L 266.016 183.594 266.016 185.449 M304.492 186.609 L 304.492 189.623 300.537 194.572 C 298.362 197.293,295.929 200.353,295.131 201.371 C 294.334 202.390,293.020 203.992,292.213 204.932 L 290.745 206.641 285.948 206.626 L 281.152 206.611 279.966 205.210 C 279.313 204.439,277.983 202.798,277.009 201.563 C 276.035 200.327,273.383 196.993,271.115 194.153 L 266.992 188.991 266.992 186.292 L 266.992 183.594 285.742 183.594 L 304.492 183.594 304.492 186.609 M308.703 183.893 C 308.494 184.051,308.387 184.180,308.465 184.180 C 308.543 184.180,307.935 185.015,307.114 186.035 C 306.293 187.056,305.587 187.891,305.545 187.891 C 305.503 187.891,305.469 186.924,305.469 185.742 L 305.469 183.594 307.275 183.600 C 308.907 183.606,309.045 183.634,308.703 183.893 M252.444 185.738 C 252.256 186.043,252.833 187.513,253.572 188.611 C 254.018 189.273,254.364 190.129,254.580 191.099 C 254.927 192.658,255.186 192.969,256.140 192.969 L 256.641 192.969 256.641 195.699 C 256.641 198.813,256.821 198.542,254.647 198.687 C 251.867 198.872,250.103 201.259,250.577 204.197 C 250.696 204.936,250.637 205.560,250.334 206.790 C 249.595 209.782,250.374 210.802,252.125 209.135 C 253.812 207.530,256.641 206.413,256.641 207.353 C 256.641 207.498,256.838 207.618,257.080 207.618 C 257.697 207.620,256.795 208.341,255.113 209.193 C 253.388 210.065,252.796 211.080,252.030 214.474 C 251.877 215.155,252.022 215.185,254.741 215.028 C 257.355 214.877,257.678 214.717,258.026 213.396 C 258.572 211.321,258.858 211.109,261.621 210.728 C 265.679 210.169,267.509 209.347,267.335 208.162 L 267.255 207.617 269.809 207.621 L 272.363 207.626 271.484 208.022 C 270.151 208.623,268.555 210.280,268.555 211.063 C 268.555 213.111,271.119 212.770,274.414 210.284 C 275.220 209.675,276.143 209.101,276.465 209.007 C 276.787 208.913,277.405 208.740,277.839 208.622 C 278.272 208.504,278.818 208.230,279.052 208.013 C 279.756 207.356,279.883 207.518,279.883 209.078 C 279.883 210.526,279.879 210.537,279.439 210.336 C 278.451 209.886,276.506 211.551,277.204 212.249 C 277.558 212.603,276.961 213.693,276.221 214.042 C 275.506 214.379,275.943 215.625,276.777 215.625 C 277.266 215.625,278.639 214.932,278.847 214.581 C 279.166 214.040,279.895 213.867,281.862 213.867 C 283.422 213.867,283.815 213.919,283.633 214.102 C 283.226 214.508,283.332 218.104,283.789 219.434 C 284.290 220.888,284.288 220.903,283.594 221.777 C 282.977 222.554,282.851 223.203,283.242 223.594 C 283.974 224.326,286.939 222.833,287.820 221.289 C 288.158 220.698,288.773 219.832,289.188 219.363 C 290.848 217.489,290.927 216.262,289.481 214.816 L 288.532 213.867 290.165 213.867 L 291.797 213.867 291.797 211.487 L 291.797 209.107 292.396 209.680 C 292.994 210.252,292.995 210.258,292.866 211.816 C 292.583 215.227,294.735 215.567,296.480 212.387 C 297.317 210.862,297.737 210.475,298.794 210.254 C 299.151 210.180,299.763 209.842,300.154 209.503 L 300.865 208.887 300.421 209.519 C 300.177 209.867,299.461 210.548,298.830 211.034 C 296.782 212.610,296.421 213.493,297.367 214.617 C 298.513 215.979,300.255 215.617,301.215 213.815 C 301.858 212.610,302.548 212.109,303.566 212.109 C 305.263 212.109,306.830 209.809,306.260 208.154 L 306.075 207.617 308.431 207.617 L 310.787 207.617 312.083 208.984 C 313.590 210.575,313.688 210.595,315.727 209.739 C 317.801 208.868,317.637 207.094,315.380 205.969 C 314.808 205.684,314.563 195.163,315.133 195.382 C 315.309 195.449,315.669 195.260,316.022 194.916 C 316.702 194.251,316.660 194.261,317.506 194.567 C 318.635 194.975,319.914 193.665,318.961 193.076 C 318.860 193.013,318.912 192.704,319.082 192.363 C 319.503 191.519,319.192 190.884,318.271 190.711 C 317.890 190.640,317.578 190.469,317.578 190.332 C 317.578 190.195,317.424 189.895,317.236 189.665 L 316.895 189.248 316.211 189.707 C 314.804 190.653,314.844 190.704,314.844 187.982 L 314.844 185.547 318.555 185.547 L 322.266 185.547 322.266 189.275 C 322.266 192.696,322.235 193.031,321.894 193.328 C 321.690 193.506,321.332 194.179,321.098 194.822 C 320.536 196.372,320.489 196.416,318.874 196.895 C 315.764 197.818,313.766 201.529,316.430 201.434 C 321.162 201.267,321.247 201.249,321.887 200.278 L 322.263 199.707 322.264 203.546 L 322.266 207.385 321.558 207.168 C 320.517 206.849,319.626 207.826,319.814 209.081 C 319.965 210.087,319.435 210.838,317.997 211.657 C 316.796 212.340,316.058 213.031,315.621 213.880 C 315.424 214.263,315.125 214.692,314.956 214.832 C 314.493 215.216,314.566 216.389,315.088 216.954 L 315.527 217.430 314.844 217.333 C 314.468 217.280,313.878 217.120,313.533 216.977 C 312.725 216.642,311.687 217.086,311.234 217.961 L 310.927 218.555 307.612 218.555 L 304.297 218.555 304.297 220.801 C 304.297 222.468,304.234 223.046,304.053 223.045 C 303.918 223.045,302.897 223.280,301.783 223.569 C 298.397 224.448,297.625 225.609,299.316 227.277 C 300.014 227.964,300.195 228.279,300.195 228.804 C 300.195 230.565,302.783 230.312,303.926 228.438 C 304.294 227.834,304.295 227.852,304.296 233.361 C 304.297 239.001,304.249 239.316,303.591 238.043 C 302.968 236.838,302.252 236.133,301.651 236.133 C 301.106 236.133,300.195 236.918,300.195 237.389 C 300.195 237.808,299.467 238.220,298.438 238.383 C 297.190 238.580,296.888 238.789,296.465 239.744 C 295.937 240.939,296.103 241.211,297.362 241.211 L 298.393 241.211 298.524 242.084 C 298.831 244.133,301.255 244.550,302.033 242.688 C 302.333 241.970,302.675 241.724,303.662 241.511 L 304.297 241.375 304.297 243.516 L 304.297 245.658 303.034 245.738 C 302.065 245.800,301.661 245.921,301.303 246.257 C 300.902 246.634,300.766 246.664,300.343 246.471 C 299.695 246.176,298.757 246.595,298.668 247.219 L 298.606 247.656 289.879 247.648 C 280.745 247.640,280.168 247.573,283.203 246.875 C 285.845 246.266,286.428 245.182,284.999 243.533 C 284.590 243.062,284.101 242.262,283.911 241.756 C 283.204 239.863,281.239 239.443,280.218 240.966 C 279.605 241.881,278.944 242.161,278.199 241.822 C 277.043 241.295,275.247 241.822,274.791 242.823 C 274.681 243.065,274.395 244.010,274.155 244.923 C 273.620 246.967,272.737 247.645,270.605 247.650 L 269.434 247.653 270.462 247.063 C 271.650 246.381,272.579 245.207,272.883 244.001 C 272.999 243.537,273.360 242.829,273.683 242.428 C 275.064 240.717,275.426 238.972,274.605 237.983 C 274.074 237.343,272.424 237.810,271.788 238.780 L 271.448 239.299 270.832 238.716 C 269.732 237.676,269.478 237.622,268.163 238.154 L 266.992 238.626 266.992 236.918 L 266.992 235.209 268.185 235.484 C 269.459 235.778,270.966 235.314,272.402 234.184 C 273.064 233.664,273.612 233.685,274.395 234.263 C 276.204 235.598,278.711 234.314,278.711 232.054 C 278.711 231.150,278.888 231.033,280.054 231.165 C 281.195 231.294,281.589 231.099,281.886 230.256 C 282.062 229.755,281.820 229.559,280.272 228.948 C 276.935 227.630,274.310 227.691,272.805 229.124 L 272.029 229.862 271.317 229.163 C 270.046 227.915,268.768 227.622,267.627 228.318 L 266.992 228.705 266.992 227.633 L 266.992 226.562 267.722 226.953 C 269.037 227.658,270.302 227.132,271.486 225.388 C 272.483 223.920,273.012 223.523,274.598 223.050 C 276.296 222.544,276.834 221.990,276.831 220.748 C 276.824 218.014,274.717 216.729,272.161 217.900 C 270.506 218.657,264.557 218.826,264.503 218.118 C 264.450 217.408,263.904 217.155,262.741 217.300 L 261.711 217.429 261.910 216.905 C 262.930 214.223,261.470 213.565,259.246 215.703 C 257.992 216.908,257.923 216.946,256.735 217.041 C 255.553 217.136,253.516 217.990,253.516 218.390 C 253.516 218.481,252.549 218.555,251.367 218.555 L 249.219 218.555 249.219 207.054 L 249.219 195.554 249.905 195.790 C 250.282 195.919,250.832 196.247,251.126 196.518 C 252.510 197.793,252.810 197.862,253.322 197.021 C 254.063 195.807,253.868 194.820,252.753 194.134 C 251.642 193.450,251.517 193.223,251.768 192.346 C 252.279 190.567,251.205 188.477,249.780 188.477 L 249.219 188.477 249.219 187.012 L 249.219 185.547 250.890 185.547 C 251.932 185.547,252.518 185.619,252.444 185.738 M278.698 190.248 C 277.380 191.659,277.524 195.495,278.933 196.537 C 281.138 198.168,282.554 191.791,280.368 190.072 C 279.650 189.507,279.362 189.537,278.698 190.248 M291.644 189.953 C 290.859 190.503,290.547 191.380,290.537 193.066 C 290.511 197.331,293.795 198.334,294.094 194.153 C 294.322 190.974,293.122 188.918,291.644 189.953 M273.433 198.242 C 276.371 201.948,279.078 205.354,279.450 205.811 L 280.125 206.641 273.559 206.641 L 266.992 206.641 266.992 198.431 L 266.992 190.221 267.543 190.862 C 267.845 191.215,270.496 194.536,273.433 198.242 M304.492 198.730 L 304.492 206.641 298.242 206.641 C 294.805 206.641,291.992 206.603,291.992 206.558 C 291.992 206.512,293.948 204.020,296.338 201.020 C 298.728 198.020,301.519 194.502,302.539 193.202 C 303.560 191.902,304.417 190.834,304.443 190.829 C 304.470 190.824,304.492 194.380,304.492 198.730 M257.879 204.785 C 257.880 205.645,257.915 205.972,257.956 205.512 C 257.997 205.053,257.996 204.350,257.954 203.950 C 257.913 203.550,257.879 203.926,257.879 204.785 M290.820 210.254 L 290.820 212.891 285.840 212.891 L 280.859 212.891 280.859 210.254 L 280.859 207.617 285.840 207.617 L 290.820 207.617 290.820 210.254 M322.266 216.309 L 322.266 218.555 320.532 218.555 C 318.609 218.555,317.675 218.141,319.026 217.887 C 319.900 217.723,320.609 216.877,320.783 215.792 C 320.920 214.933,321.536 214.063,322.007 214.063 C 322.207 214.063,322.266 214.574,322.266 216.309 M297.947 218.233 C 297.408 218.484,296.645 218.750,296.252 218.823 C 295.858 218.897,295.257 219.219,294.915 219.537 C 294.574 219.856,294.116 220.117,293.898 220.117 C 292.187 220.117,291.622 220.726,291.386 222.824 C 291.139 225.027,290.565 225.663,288.753 225.742 C 287.253 225.808,286.907 226.015,286.296 227.212 C 285.437 228.895,287.706 230.061,289.746 228.986 C 290.184 228.755,290.617 228.708,291.462 228.802 C 292.478 228.915,292.694 228.869,293.610 228.349 C 294.171 228.031,295.003 227.661,295.461 227.526 C 296.535 227.209,296.771 226.903,296.726 225.880 C 296.684 224.898,297.486 223.616,298.480 223.079 C 301.200 221.609,301.998 219.200,300.101 218.189 C 299.139 217.676,299.144 217.676,297.947 218.233 M286.602 231.803 C 284.471 233.351,284.610 235.297,287.015 237.603 C 288.560 239.084,288.613 239.200,288.727 241.420 C 288.902 244.788,291.453 245.882,293.059 243.277 C 293.672 242.284,293.746 241.550,293.782 236.133 C 293.789 235.061,293.443 234.432,292.537 233.872 C 292.076 233.587,291.348 233.016,290.918 232.604 C 289.416 231.163,287.876 230.878,286.602 231.803 M304.297 247.070 C 304.297 247.393,304.224 247.656,304.135 247.656 C 304.047 247.656,304.013 247.393,304.060 247.070 C 304.107 246.748,304.180 246.484,304.221 246.484 C 304.263 246.484,304.297 246.748,304.297 247.070 M280.569 249.030 C 280.786 249.716,281.552 250.084,282.202 249.815 C 282.794 249.570,284.180 249.953,284.180 250.362 C 284.180 250.617,285.272 250.977,286.050 250.977 C 286.855 250.977,287.500 250.227,287.500 249.290 L 287.500 248.633 288.745 248.633 L 289.991 248.633 290.080 249.715 C 290.260 251.885,291.396 252.498,293.874 251.763 C 295.656 251.234,296.088 251.321,297.302 252.456 C 299.332 254.356,301.330 253.257,301.386 250.210 L 301.414 248.633 302.975 248.633 C 304.530 248.633,304.534 248.634,304.085 248.998 L 303.634 249.363 303.978 250.512 C 304.295 251.569,304.298 251.728,304.016 252.515 C 303.445 254.113,303.848 255.296,305.054 255.561 C 305.360 255.628,305.798 255.899,306.027 256.162 C 306.317 256.497,306.645 256.641,307.114 256.641 C 307.987 256.641,308.210 257.201,307.631 257.937 C 307.112 258.596,307.117 259.217,307.644 259.687 C 308.629 260.564,308.690 261.553,307.860 263.155 C 307.678 263.505,307.609 263.997,307.674 264.480 C 307.790 265.341,307.560 265.578,306.193 266.012 C 305.785 266.141,305.065 266.542,304.592 266.903 C 303.814 267.497,303.721 267.525,303.617 267.199 C 303.429 266.606,301.624 265.039,301.131 265.041 C 299.778 265.047,297.217 267.027,295.738 269.211 C 295.384 269.733,295.065 270.128,295.029 270.090 C 294.913 269.967,291.406 264.452,291.406 264.393 C 291.406 264.362,291.708 264.371,292.076 264.414 C 292.778 264.496,294.141 264.143,294.141 263.878 C 294.141 263.794,294.321 263.495,294.542 263.214 L 294.944 262.703 295.929 263.218 C 297.426 264.001,298.793 263.294,298.156 262.066 C 297.897 261.567,297.917 261.521,298.601 261.016 C 300.365 259.715,300.306 258.696,298.438 258.206 C 296.926 257.810,296.680 257.557,296.677 256.392 C 296.673 255.258,296.582 255.044,295.960 254.717 C 294.487 253.942,292.960 255.064,293.267 256.697 C 293.564 258.281,292.605 258.807,288.542 259.287 C 288.207 259.327,287.893 258.997,287.027 257.696 C 285.948 256.075,285.531 255.768,285.203 256.355 C 285.099 256.541,285.039 255.997,285.046 254.939 C 285.077 250.632,282.607 250.561,282.012 254.853 C 281.768 256.608,281.828 256.523,280.493 257.022 C 279.726 257.309,279.266 257.602,279.186 257.854 C 279.003 258.431,280.365 261.075,281.064 261.500 L 281.624 261.841 280.665 263.340 C 279.617 264.974,279.451 265.028,278.758 263.961 C 278.164 263.045,277.378 263.024,276.690 263.903 C 276.218 264.506,276.181 264.518,275.433 264.294 C 274.320 263.960,273.255 263.996,273.111 264.372 C 273.013 264.629,272.706 264.670,271.321 264.616 L 269.650 264.551 269.468 265.172 C 269.161 266.226,269.420 266.753,270.363 266.997 C 271.797 267.367,271.857 267.397,271.752 267.671 C 271.442 268.478,272.638 268.899,274.037 268.475 C 274.861 268.225,276.104 268.478,276.921 269.062 C 276.957 269.088,276.428 269.979,275.745 271.042 L 274.504 272.975 273.531 272.525 C 271.027 271.367,269.368 273.079,271.586 274.532 C 272.331 275.020,272.205 275.391,271.294 275.391 C 270.249 275.391,269.819 276.004,269.990 277.251 C 270.143 278.365,270.003 278.357,269.502 277.225 C 269.005 276.101,266.890 274.026,266.240 274.024 C 264.506 274.021,264.066 276.286,265.407 278.317 C 266.068 279.319,266.114 279.488,266.121 280.954 C 266.129 282.568,266.499 283.687,267.100 283.918 C 267.256 283.977,267.383 284.094,267.383 284.176 C 267.383 284.259,267.030 284.152,266.600 283.938 C 265.301 283.296,263.541 284.025,263.932 285.044 C 264.006 285.237,263.856 285.366,263.451 285.455 C 262.214 285.727,261.870 287.159,262.896 287.765 C 263.232 287.964,263.418 288.208,263.355 288.370 C 263.298 288.519,263.441 288.832,263.673 289.064 C 264.601 289.992,263.777 289.620,261.884 288.257 C 260.784 287.465,258.642 285.938,257.126 284.863 C 252.762 281.773,253.187 282.184,253.490 281.346 C 253.633 280.949,253.944 280.186,254.180 279.650 L 254.610 278.676 255.702 279.768 C 257.148 281.214,258.505 281.182,259.280 279.683 C 259.562 279.137,259.609 279.118,260.015 279.384 C 260.852 279.932,262.040 279.986,262.306 279.489 C 263.130 277.950,262.340 276.172,260.833 276.172 L 260.015 276.172 259.906 274.970 C 259.754 273.288,259.332 272.771,258.052 272.695 L 257.061 272.637 257.641 271.232 C 258.396 269.400,258.311 269.433,259.692 270.428 C 260.667 271.130,260.999 271.522,261.485 272.538 C 262.437 274.532,263.354 274.885,264.821 273.822 C 266.540 272.577,266.853 271.173,265.728 269.757 C 264.798 268.587,264.772 268.414,265.242 266.573 C 265.878 264.083,264.617 260.366,262.973 259.881 L 262.371 259.703 263.061 257.985 L 263.751 256.266 264.156 256.990 C 264.643 257.860,265.054 257.951,266.326 257.467 C 266.963 257.224,267.482 257.148,267.871 257.239 C 268.193 257.314,269.083 257.386,269.849 257.399 C 271.395 257.424,271.523 257.347,271.917 256.141 C 272.165 255.381,272.181 255.370,273.242 255.310 C 275.557 255.180,276.183 252.642,274.307 250.995 C 273.466 250.257,272.840 250.231,271.963 250.899 L 271.297 251.408 268.744 251.215 C 265.877 250.998,265.881 251.000,266.179 250.250 C 266.298 249.952,266.483 249.467,266.590 249.174 L 266.784 248.641 273.614 248.638 C 280.295 248.636,280.446 248.644,280.569 249.030 M302.930 259.431 C 302.064 260.135,301.759 261.355,302.268 262.082 C 302.495 262.405,302.549 262.750,302.460 263.304 C 302.231 264.738,303.078 265.300,304.173 264.439 C 304.608 264.097,304.689 263.878,304.694 263.023 C 304.698 262.467,304.827 261.792,304.980 261.523 C 305.809 260.075,304.180 258.413,302.930 259.431 M312.996 269.555 C 313.099 269.881,313.002 269.922,312.127 269.922 C 310.998 269.922,310.840 270.081,310.163 271.901 C 309.631 273.334,309.048 273.945,308.055 274.113 C 306.650 274.350,306.136 275.384,306.945 276.345 C 307.506 277.011,308.084 277.111,309.180 276.728 C 309.672 276.557,310.045 276.560,310.755 276.742 C 311.952 277.049,312.608 276.744,313.965 275.250 L 314.941 274.175 316.073 276.955 C 317.141 279.577,317.187 279.755,316.878 280.096 C 316.565 280.442,316.440 282.003,316.693 282.412 C 316.930 282.795,316.457 283.288,314.576 284.618 C 313.488 285.388,311.469 286.834,310.090 287.833 C 307.715 289.553,307.227 289.780,307.227 289.168 C 307.227 288.901,309.023 287.265,310.021 286.622 C 310.323 286.427,310.741 285.932,310.951 285.521 C 311.160 285.110,311.579 284.646,311.882 284.489 C 312.651 284.092,313.861 282.703,313.898 282.177 C 314.086 279.449,311.844 278.214,310.068 280.068 C 309.770 280.380,309.402 280.587,309.251 280.529 C 308.740 280.333,307.774 280.903,307.498 281.565 C 307.197 282.286,306.888 282.302,304.627 281.714 C 304.002 281.551,303.229 281.446,302.908 281.480 C 302.375 281.536,302.244 281.416,301.384 280.084 C 300.339 278.466,300.349 278.410,301.828 277.770 C 302.443 277.503,302.444 277.474,301.890 275.391 C 301.451 273.740,301.429 273.713,299.985 273.067 C 299.007 272.630,298.334 272.461,297.568 272.461 C 296.985 272.461,296.453 272.373,296.387 272.266 C 296.319 272.156,296.472 272.070,296.735 272.070 C 296.993 272.070,297.724 271.889,298.358 271.667 C 299.395 271.304,299.618 271.288,300.562 271.508 C 301.805 271.799,302.716 271.442,303.423 270.388 C 303.829 269.784,303.835 269.782,304.281 270.144 C 304.933 270.671,305.273 270.603,306.459 269.705 C 307.755 268.724,308.566 268.359,309.452 268.359 C 310.188 268.359,311.221 267.366,311.460 266.429 C 311.569 266.003,312.415 267.724,312.996 269.555 " stroke="none" fill="#303228" fill-rule="evenodd"></path><path id="path1" d="M279.688 15.929 C 279.526 15.964,278.703 16.050,277.857 16.121 C 276.509 16.233,276.376 16.277,276.777 16.477 C 277.704 16.939,278.512 18.645,278.515 20.145 C 278.518 22.194,279.670 24.521,281.055 25.274 C 282.828 26.239,283.153 27.526,282.417 30.664 C 281.895 32.888,281.312 34.104,280.079 35.544 C 279.571 36.136,278.783 37.256,278.328 38.031 C 277.124 40.085,276.241 40.820,274.980 40.820 C 272.989 40.820,272.062 38.929,273.019 36.816 C 273.799 35.093,273.715 34.807,272.794 36.057 C 272.318 36.704,271.253 37.792,270.428 38.475 C 269.393 39.331,268.525 40.296,267.630 41.586 C 265.177 45.121,264.218 45.969,262.336 46.267 C 259.508 46.714,257.782 43.517,259.540 41.088 C 262.616 36.837,263.672 34.911,263.795 33.328 C 264.321 26.535,268.521 23.828,272.865 27.483 C 273.189 27.755,273.504 27.928,273.565 27.867 C 273.774 27.659,273.200 25.761,272.769 25.233 C 270.549 22.514,270.765 18.760,273.239 17.067 C 273.613 16.811,273.870 16.602,273.810 16.602 C 272.826 16.602,267.389 17.811,264.028 18.778 L 261.943 19.378 261.707 20.382 C 261.138 22.799,260.050 23.896,257.325 24.805 C 253.996 25.913,252.282 27.416,251.448 29.956 C 250.235 33.648,247.342 34.881,241.992 33.988 C 241.294 33.871,239.976 33.649,239.063 33.494 C 236.257 33.019,236.572 32.932,234.466 34.767 C 229.945 38.708,224.599 45.051,221.010 50.735 L 219.868 52.545 219.966 54.775 C 220.091 57.596,220.529 58.521,222.012 59.086 C 223.129 59.512,226.070 62.349,226.665 63.574 C 227.331 64.945,227.216 67.531,226.446 68.487 C 224.729 70.619,220.896 69.308,220.014 66.287 C 219.829 65.655,219.527 64.741,219.341 64.258 L 219.005 63.379 217.709 63.432 C 216.876 63.466,216.157 63.378,215.696 63.185 C 215.302 63.020,214.961 62.909,214.938 62.937 C 214.232 63.819,211.749 72.965,210.968 77.560 L 210.615 79.631 211.314 79.469 C 216.532 78.255,219.524 83.269,215.891 87.138 C 213.809 89.355,213.685 89.966,214.927 91.909 C 215.403 92.653,215.896 93.679,216.024 94.189 C 216.229 95.005,216.320 95.117,216.777 95.117 C 217.972 95.117,218.933 96.557,219.097 98.593 L 219.196 99.834 220.780 100.580 C 222.307 101.300,223.689 102.545,224.563 103.987 C 224.950 104.624,224.658 103.047,224.187 101.956 C 223.593 100.578,224.400 98.130,225.570 97.759 C 225.942 97.641,225.977 97.481,225.977 95.867 C 225.977 93.851,226.510 90.969,227.297 88.729 L 227.832 87.207 227.378 86.328 C 226.762 85.136,227.035 82.031,227.755 82.031 C 228.687 82.031,230.305 77.098,230.230 74.484 C 230.165 72.164,230.467 71.467,231.847 70.757 C 233.080 70.122,233.588 70.289,235.645 72.003 L 237.402 73.468 238.574 73.353 C 239.957 73.216,240.587 73.466,241.018 74.323 L 241.313 74.911 242.385 74.648 C 247.025 73.513,253.434 75.209,256.885 78.486 L 257.617 79.181 257.610 78.409 C 257.603 77.758,257.505 77.576,256.982 77.246 C 254.950 75.965,254.950 73.092,256.983 70.824 C 258.011 69.678,258.636 68.141,258.734 66.522 C 258.870 64.281,259.964 62.753,261.889 62.118 C 262.328 61.973,262.730 61.714,262.780 61.542 C 263.570 58.872,263.625 57.487,262.988 56.291 C 262.323 55.041,262.214 54.305,262.570 53.454 C 263.157 52.050,264.012 51.825,269.376 51.665 C 273.202 51.551,275.000 50.521,275.000 48.445 C 275.000 46.703,276.087 45.655,278.222 45.338 C 281.802 44.805,282.506 44.067,282.528 40.824 C 282.554 37.082,283.952 35.865,286.669 37.219 C 289.569 38.664,290.458 40.911,289.360 44.023 C 288.814 45.570,288.866 45.769,290.018 46.568 C 291.779 47.788,291.747 49.215,289.935 50.309 L 289.245 50.725 291.423 51.059 C 300.231 52.412,308.396 58.631,311.893 66.651 C 312.843 68.829,313.787 68.750,317.164 66.205 L 318.776 64.990 318.293 64.478 C 318.027 64.196,317.156 62.998,316.359 61.816 L 314.908 59.668 312.972 58.646 C 310.267 57.220,309.684 56.556,309.820 55.056 L 309.923 53.911 309.112 53.702 C 306.029 52.907,304.236 51.700,303.069 49.637 C 302.744 49.061,302.206 48.430,301.873 48.235 C 298.058 45.992,297.242 42.636,299.948 40.315 C 302.431 38.187,303.943 38.480,306.872 41.658 C 308.285 43.191,308.838 43.638,310.192 44.338 C 313.851 46.232,318.539 49.891,318.559 50.868 C 318.561 50.981,319.095 51.470,319.746 51.953 C 321.561 53.301,322.214 54.109,322.377 55.209 C 322.529 56.232,322.872 56.788,324.208 58.179 C 328.397 62.538,329.932 65.777,328.522 67.279 L 328.105 67.722 329.033 68.187 C 330.801 69.074,331.259 70.576,330.476 72.926 C 330.241 73.635,329.967 74.265,329.868 74.326 C 329.466 74.574,329.751 74.794,331.006 75.207 C 333.436 76.006,335.464 77.166,337.543 78.944 C 338.611 79.857,338.680 79.886,339.116 79.601 C 339.818 79.141,341.782 78.516,342.524 78.516 C 343.488 78.516,343.856 78.765,345.703 80.665 C 346.637 81.626,348.703 83.365,350.425 84.639 C 354.979 88.009,355.377 89.241,352.322 90.506 C 351.850 90.701,351.334 90.926,351.175 91.006 C 350.998 91.095,350.793 91.696,350.653 92.535 C 349.983 96.536,347.847 97.885,346.895 94.908 C 346.773 94.524,346.387 93.933,346.037 93.595 L 345.402 92.979 345.479 95.757 C 345.590 99.792,344.989 103.122,343.646 105.908 L 343.199 106.836 344.908 106.836 C 350.716 106.836,355.927 111.004,356.873 116.406 C 357.198 118.263,357.270 118.206,358.040 115.477 L 358.741 112.992 358.228 112.773 C 356.252 111.931,355.265 109.014,355.940 106.014 C 356.083 105.381,355.985 105.020,355.175 103.182 C 352.582 97.294,355.622 93.320,360.770 95.867 L 361.523 96.240 361.548 93.823 C 361.561 92.494,361.583 91.134,361.597 90.802 C 361.632 89.934,361.491 89.807,360.772 90.058 C 358.734 90.768,357.548 88.649,358.319 85.674 C 358.725 84.105,358.596 83.452,357.510 81.584 C 355.804 78.647,356.383 76.674,359.160 75.963 C 359.708 75.822,360.156 75.648,360.156 75.575 C 360.156 75.503,359.925 74.443,359.643 73.220 C 359.360 71.997,359.085 70.792,359.032 70.543 C 358.942 70.130,358.904 70.156,358.598 70.836 C 356.960 74.481,353.260 75.960,351.123 73.825 C 350.284 72.986,350.240 72.662,350.781 71.289 C 351.356 69.831,351.309 69.662,350.182 69.135 C 348.106 68.162,347.389 66.719,348.340 65.430 C 348.912 64.655,348.945 64.085,348.508 62.513 C 347.937 60.460,349.367 59.327,353.297 58.719 L 354.738 58.496 353.321 55.762 C 351.834 52.892,350.067 49.972,348.250 47.383 L 347.168 45.841 347.108 46.769 C 347.074 47.283,347.189 48.101,347.365 48.604 C 347.540 49.103,347.734 50.367,347.796 51.413 L 347.908 53.313 346.903 55.256 C 346.313 56.396,345.898 57.454,345.898 57.818 C 345.898 59.446,343.604 62.109,342.201 62.109 C 339.031 62.109,338.244 57.967,340.658 53.995 C 342.034 51.731,342.054 51.359,340.890 49.607 L 339.941 48.180 339.948 46.209 C 339.958 43.171,340.866 41.414,342.530 41.217 L 343.399 41.113 340.303 37.971 C 337.720 35.348,332.819 31.045,332.432 31.058 C 332.280 31.064,331.102 33.776,330.561 35.369 C 329.451 38.631,326.943 40.775,324.035 40.947 C 323.331 40.988,321.739 41.120,320.498 41.239 C 317.802 41.499,316.516 41.237,315.472 40.216 C 314.382 39.150,312.521 39.215,311.410 40.359 C 310.946 40.836,310.381 41.224,310.125 41.240 C 308.262 41.360,307.272 40.812,306.278 39.111 C 305.138 37.158,304.148 36.523,302.243 36.523 C 301.222 36.523,297.900 35.679,296.886 35.162 C 294.698 34.046,294.060 31.372,295.581 29.689 C 295.971 29.258,296.289 28.824,296.289 28.725 C 296.289 27.459,298.405 26.965,300.113 27.831 C 302.657 29.122,305.866 29.704,307.750 29.216 C 309.228 28.832,310.550 28.821,311.417 29.183 C 312.527 29.647,314.773 32.029,315.043 33.028 C 315.491 34.689,315.521 34.709,315.879 33.599 C 316.864 30.550,316.233 29.871,311.242 28.601 C 309.377 28.127,308.579 27.393,308.448 26.032 C 308.348 24.991,308.992 21.345,309.485 20.159 C 309.806 19.387,309.915 19.446,306.250 18.434 C 302.469 17.391,299.946 16.916,293.874 16.105 L 293.119 16.004 293.630 16.611 C 293.911 16.945,294.185 17.409,294.238 17.642 C 294.292 17.875,294.466 18.638,294.626 19.336 C 295.273 22.168,294.810 26.433,293.751 27.393 C 291.893 29.076,289.432 26.908,288.747 22.984 C 288.384 20.905,288.181 20.635,286.590 20.122 C 285.866 19.888,285.049 19.580,284.775 19.437 C 284.191 19.134,281.445 16.319,281.445 16.023 C 281.445 15.836,280.378 15.780,279.688 15.929 M254.235 33.020 C 256.983 34.058,257.829 39.044,256.295 45.164 C 255.168 49.661,252.730 53.320,250.862 53.320 C 248.478 53.320,247.566 50.808,248.713 47.396 C 248.971 46.626,249.242 45.569,249.314 45.046 L 249.445 44.096 248.278 42.996 C 245.679 40.541,245.474 38.686,247.621 37.054 C 248.225 36.596,249.003 35.827,249.351 35.346 C 250.457 33.818,251.039 33.168,251.453 33.000 C 252.031 32.766,253.592 32.777,254.235 33.020 M233.987 42.873 C 235.552 43.666,236.133 45.170,235.479 46.736 L 235.175 47.464 235.703 47.316 C 236.995 46.954,238.715 47.185,240.494 47.960 C 243.428 49.239,243.903 50.087,243.385 53.118 C 243.020 55.256,243.168 55.511,244.907 55.741 C 250.338 56.462,244.649 66.340,238.204 67.381 C 234.502 67.979,233.503 66.286,236.027 63.692 C 236.828 62.869,237.624 61.861,237.795 61.452 L 238.105 60.709 236.875 61.567 C 234.761 63.041,233.598 63.227,230.957 62.511 C 223.744 60.556,221.447 56.899,224.593 52.382 C 225.316 51.344,225.382 51.132,225.582 49.219 C 225.924 45.940,226.862 44.395,229.245 43.188 C 231.030 42.283,232.617 42.178,233.987 42.873 M329.910 46.592 C 330.271 46.776,330.948 47.277,331.415 47.704 C 332.318 48.529,334.977 49.858,336.162 50.075 C 339.420 50.672,339.765 56.561,336.605 57.657 C 334.093 58.529,332.651 57.850,332.035 55.506 C 331.795 54.596,331.886 54.667,328.516 52.758 C 323.639 49.996,324.978 44.073,329.910 46.592 M213.896 99.548 C 212.883 100.568,211.646 101.241,211.008 101.119 C 210.448 101.012,210.444 101.077,210.833 103.663 C 211.600 108.750,214.039 118.623,214.320 117.773 C 214.373 117.612,214.512 116.953,214.628 116.309 C 215.095 113.726,217.321 110.398,219.544 108.957 C 220.596 108.275,220.591 108.175,219.479 107.820 C 219.075 107.691,218.591 107.367,218.405 107.101 C 217.381 105.636,217.154 105.439,216.821 105.730 C 214.973 107.347,212.305 106.479,212.305 104.261 C 212.305 102.984,212.733 102.422,214.081 101.931 C 215.515 101.408,215.595 101.246,215.118 99.811 L 214.746 98.693 213.896 99.548 M289.375 160.220 C 289.177 161.273,287.079 162.871,284.977 163.569 C 283.744 163.978,283.050 164.665,282.077 166.441 C 280.866 168.651,280.228 168.662,278.916 166.496 C 278.533 165.863,277.829 165.063,277.344 164.707 C 276.860 164.354,276.058 163.715,275.562 163.288 L 274.659 162.512 273.804 163.080 C 273.334 163.392,272.487 164.043,271.922 164.526 L 270.895 165.405 271.667 165.395 C 272.830 165.379,273.736 166.039,274.427 167.408 L 275.010 168.563 276.438 168.535 C 278.161 168.502,278.508 168.665,279.107 169.794 C 279.706 170.924,279.624 171.082,277.459 172.968 L 275.719 174.483 275.115 174.125 C 274.783 173.928,274.123 173.556,273.648 173.297 C 273.172 173.038,272.567 172.656,272.303 172.448 C 271.665 171.947,271.325 171.972,270.868 172.553 C 270.063 173.576,267.021 174.119,265.918 173.438 L 265.286 173.047 264.870 174.050 C 264.332 175.344,264.317 175.288,265.283 175.574 C 267.029 176.090,268.737 177.154,269.265 178.056 C 269.607 178.639,269.896 178.907,270.185 178.909 C 271.783 178.921,271.573 180.680,269.825 181.923 L 268.849 182.617 270.731 182.617 C 272.518 182.617,272.620 182.595,272.734 182.178 C 272.800 181.936,273.139 181.563,273.488 181.348 C 273.952 181.061,274.357 180.471,275.005 179.132 C 275.881 177.325,276.392 176.780,277.229 176.765 C 277.717 176.756,279.219 177.639,279.366 178.022 C 279.428 178.186,279.601 178.320,279.749 178.320 C 280.640 178.320,280.848 180.502,280.135 182.360 C 279.963 182.808,286.303 182.725,286.635 182.275 C 286.852 181.982,286.818 181.878,286.394 181.537 C 286.042 181.254,285.885 180.918,285.846 180.365 C 285.817 179.939,285.727 179.145,285.647 178.601 C 285.470 177.404,285.756 177.018,286.958 176.826 C 288.183 176.630,288.806 175.930,289.274 174.223 C 289.891 171.972,289.968 171.936,292.209 172.861 C 295.513 174.223,296.592 177.571,294.305 179.361 L 293.716 179.822 294.465 180.162 C 296.727 181.187,298.438 182.134,298.438 182.360 C 298.438 182.566,299.481 182.617,303.711 182.617 L 308.984 182.617 308.984 182.039 C 308.984 180.220,308.552 178.502,308.130 178.641 C 307.902 178.716,307.462 178.761,307.154 178.739 C 306.653 178.705,306.608 178.749,306.735 179.145 C 307.349 181.067,306.240 182.234,304.989 180.983 C 304.681 180.675,304.440 180.578,304.266 180.691 C 303.748 181.025,302.495 181.271,301.937 181.149 C 300.982 180.939,301.365 178.711,302.356 178.711 C 302.462 178.711,302.407 178.495,302.234 178.231 C 301.839 177.629,301.984 177.394,303.045 176.925 C 304.012 176.498,304.294 175.852,304.296 174.065 C 304.297 172.747,304.068 172.843,302.367 174.875 C 300.962 176.552,300.314 176.894,299.325 176.481 C 297.741 175.819,297.707 174.900,299.210 173.415 C 300.609 172.033,300.824 171.342,300.212 170.198 C 299.309 168.515,300.021 167.268,301.860 167.311 L 302.971 167.337 301.735 166.091 C 301.056 165.405,300.387 164.844,300.250 164.844 C 300.112 164.844,300.000 164.768,300.000 164.676 C 300.000 164.583,299.495 164.446,298.877 164.371 C 295.727 163.986,296.035 163.960,295.271 164.681 C 294.853 165.074,294.482 165.667,294.353 166.146 C 294.212 166.673,293.859 167.201,293.331 167.678 L 292.526 168.406 290.941 168.319 C 288.732 168.199,287.169 167.273,286.301 165.572 C 285.515 164.032,286.415 163.281,289.046 163.281 L 290.579 163.281 291.102 162.212 C 291.390 161.623,291.853 160.963,292.132 160.744 C 292.750 160.258,292.771 160.277,291.198 159.888 C 289.509 159.470,289.516 159.468,289.375 160.220 M285.685 170.892 C 287.863 172.219,287.028 175.496,284.136 176.975 C 283.484 177.308,283.421 177.407,283.525 177.929 C 283.759 179.098,282.474 180.026,281.795 179.177 C 281.656 179.004,281.300 178.601,281.003 178.281 C 279.620 176.790,279.746 175.512,281.413 174.116 C 281.772 173.815,282.320 173.042,282.633 172.397 C 283.596 170.409,284.313 170.055,285.685 170.892 M263.395 178.955 C 263.086 180.494,263.096 180.606,263.563 180.819 C 263.891 180.968,264.232 180.962,264.781 180.796 L 265.543 180.566 265.340 179.862 C 264.955 178.526,263.608 177.898,263.395 178.955 M249.219 187.023 C 249.219 188.011,249.287 188.457,249.425 188.372 C 249.859 188.104,250.598 188.515,251.282 189.406 L 251.993 190.332 251.877 191.895 L 251.761 193.457 252.641 193.988 C 253.696 194.625,253.990 195.252,253.714 196.277 C 253.298 197.822,252.585 197.948,251.253 196.710 C 250.947 196.425,250.363 196.042,249.957 195.859 L 249.219 195.527 249.219 207.041 L 249.219 218.555 251.246 218.555 C 252.854 218.555,253.325 218.491,253.528 218.246 C 254.069 217.596,255.714 216.943,256.816 216.943 C 257.869 216.943,257.905 216.924,259.303 215.601 C 261.654 213.375,262.912 213.976,262.014 216.895 C 261.903 217.255,261.970 217.280,262.892 217.217 C 263.980 217.142,264.648 217.514,264.648 218.194 C 264.648 218.620,266.420 218.718,267.253 218.339 C 267.585 218.187,268.001 218.181,268.643 218.318 C 269.704 218.544,271.289 218.248,272.709 217.558 C 274.711 216.586,276.953 218.250,276.953 220.708 C 276.953 222.055,276.348 222.666,274.456 223.230 C 273.258 223.587,272.961 223.770,272.323 224.549 C 269.987 227.401,269.127 227.852,267.568 227.046 L 266.992 226.748 266.992 227.760 C 266.992 228.725,267.009 228.757,267.347 228.451 C 268.275 227.610,269.905 227.815,271.173 228.931 L 272.077 229.727 272.829 229.047 C 274.080 227.918,275.598 227.696,278.413 228.233 C 279.425 228.426,281.930 229.597,281.989 229.906 C 282.131 230.642,281.253 231.286,280.198 231.221 C 278.981 231.145,278.711 231.296,278.711 232.051 C 278.711 234.696,276.173 235.668,273.776 233.940 C 273.488 233.733,273.324 233.754,272.799 234.062 C 269.938 235.741,269.335 235.893,267.432 235.419 C 267.003 235.312,266.992 235.349,266.992 236.883 L 266.992 238.457 267.822 238.081 C 269.130 237.487,269.856 237.571,270.644 238.406 L 271.314 239.117 272.049 238.399 C 274.882 235.634,276.321 239.099,273.743 242.477 C 273.360 242.979,273.045 243.536,273.043 243.716 C 273.029 244.784,271.678 246.556,270.340 247.263 L 269.629 247.639 270.620 247.648 C 271.358 247.654,271.882 247.509,272.678 247.078 L 273.745 246.500 274.096 244.979 C 274.811 241.887,276.033 240.885,278.088 241.707 C 279.082 242.105,279.775 241.848,280.154 240.941 C 280.899 239.156,283.642 239.920,284.085 242.036 C 284.159 242.388,284.567 243.036,284.993 243.477 C 286.539 245.077,285.848 246.369,283.121 246.976 C 280.417 247.577,281.219 247.656,290.021 247.656 C 297.377 247.656,298.605 247.616,298.514 247.378 C 298.301 246.824,299.187 246.233,300.058 246.350 C 300.661 246.431,300.968 246.366,301.331 246.080 C 301.691 245.797,302.121 245.703,303.054 245.703 L 304.297 245.703 304.297 243.551 L 304.297 241.399 303.760 241.515 C 302.786 241.727,302.411 242.015,301.995 242.870 C 301.078 244.757,298.438 243.949,298.438 241.782 C 298.438 241.166,298.431 241.162,297.650 241.287 C 296.164 241.525,295.806 240.985,296.474 239.514 C 296.861 238.661,297.233 238.469,299.058 238.185 C 299.670 238.090,299.837 237.947,300.191 237.217 C 301.036 235.471,302.167 235.636,303.413 237.687 C 303.807 238.336,304.167 238.867,304.213 238.867 C 304.259 238.867,304.295 236.428,304.294 233.447 L 304.290 228.027 303.891 228.651 C 303.516 229.237,301.811 230.273,301.222 230.273 C 300.700 230.273,300.000 229.341,300.000 228.645 C 300.000 228.116,299.864 227.872,299.345 227.476 C 297.294 225.912,298.295 224.304,301.855 223.444 C 302.822 223.210,303.767 222.976,303.955 222.922 C 304.254 222.837,304.297 222.556,304.297 220.690 L 304.297 218.555 307.622 218.555 C 310.940 218.555,310.948 218.554,311.123 218.092 C 311.559 216.946,312.792 216.444,313.848 216.983 C 314.933 217.536,315.431 217.533,314.927 216.977 C 314.371 216.362,314.440 215.184,315.070 214.510 C 315.351 214.210,315.639 213.774,315.709 213.541 C 315.853 213.062,317.260 211.719,317.617 211.719 C 318.657 211.719,319.946 210.031,319.791 208.871 C 319.621 207.602,320.822 206.663,321.888 207.233 C 322.255 207.430,322.266 207.333,322.266 203.703 L 322.266 199.970 321.781 200.546 C 321.151 201.295,320.280 201.664,319.778 201.395 C 319.513 201.253,318.908 201.279,317.714 201.485 C 315.371 201.890,314.719 201.463,315.246 199.867 C 315.732 198.394,317.242 197.196,319.256 196.688 C 320.249 196.437,320.524 196.120,321.089 194.573 C 321.336 193.897,321.701 193.257,321.902 193.150 C 322.237 192.970,322.266 192.665,322.266 189.251 L 322.266 185.547 318.555 185.547 L 314.844 185.547 314.844 187.995 L 314.844 190.443 315.283 190.214 C 315.525 190.087,315.977 189.805,316.289 189.587 L 316.855 189.190 317.217 189.636 C 317.415 189.881,317.578 190.204,317.578 190.354 C 317.578 190.513,317.780 190.625,318.066 190.625 C 318.843 190.625,319.407 191.320,319.232 192.061 C 319.152 192.399,319.102 193.045,319.121 193.495 C 319.147 194.132,319.069 194.360,318.770 194.521 C 318.283 194.781,317.443 194.787,317.285 194.531 C 317.076 194.192,316.679 194.317,316.046 194.922 C 315.709 195.244,315.301 195.508,315.138 195.508 C 314.883 195.508,314.844 196.177,314.844 200.479 L 314.844 205.450 315.722 206.055 C 317.042 206.962,317.739 208.620,317.048 209.207 C 316.482 209.687,314.652 210.352,313.894 210.352 C 313.229 210.352,310.938 208.360,310.938 207.781 C 310.938 207.691,309.905 207.617,308.643 207.617 L 306.348 207.618 306.344 208.838 C 306.337 211.070,305.780 211.747,303.569 212.209 C 302.126 212.511,301.964 212.630,301.319 213.852 C 300.472 215.458,298.895 215.988,297.666 215.079 C 296.427 214.163,296.447 213.008,297.721 211.872 C 299.268 210.493,300.681 209.131,300.034 209.643 C 299.676 209.925,299.149 210.206,298.862 210.266 C 297.855 210.477,297.357 210.920,296.639 212.241 C 294.703 215.808,292.313 215.232,292.851 211.328 C 292.993 210.298,292.975 210.230,292.398 209.680 L 291.797 209.107 291.797 211.487 L 291.797 213.867 290.191 213.867 C 288.661 213.867,288.606 213.882,289.033 214.181 C 290.948 215.522,291.047 217.772,289.265 219.434 C 288.919 219.756,288.459 220.371,288.242 220.801 C 287.411 222.450,285.428 223.828,283.886 223.828 C 282.770 223.828,282.501 222.884,283.355 221.966 C 284.113 221.153,284.158 220.895,283.746 219.742 C 283.270 218.412,283.038 214.932,283.381 214.290 C 283.606 213.871,283.592 213.867,281.830 213.867 C 279.969 213.867,279.641 213.967,278.504 214.879 C 277.392 215.769,276.653 215.900,276.175 215.291 C 275.638 214.609,275.658 214.539,276.661 213.522 C 277.456 212.715,277.512 212.599,277.247 212.305 C 276.447 211.421,278.802 209.544,279.648 210.391 C 279.831 210.573,279.883 210.291,279.883 209.121 C 279.883 207.413,279.895 207.425,278.934 208.169 C 278.535 208.479,277.736 208.826,277.112 208.961 C 276.438 209.107,275.709 209.436,275.257 209.798 C 272.216 212.232,269.864 213.046,268.839 212.021 C 267.861 211.043,268.795 209.427,271.094 208.121 L 271.973 207.622 269.619 207.620 L 267.266 207.617 267.341 208.256 C 267.474 209.400,265.634 210.215,261.725 210.744 C 259.032 211.108,258.450 211.522,258.129 213.299 C 257.888 214.628,257.342 214.903,254.634 215.058 C 251.954 215.212,251.880 215.195,252.007 214.479 C 252.554 211.402,253.629 209.589,255.196 209.104 C 255.998 208.855,257.567 207.617,257.079 207.617 C 256.838 207.617,256.641 207.537,256.641 207.440 C 256.641 206.493,254.028 207.544,252.209 209.221 C 251.085 210.258,250.810 210.337,250.295 209.768 C 249.914 209.347,249.971 207.256,250.394 206.144 C 250.508 205.844,250.540 204.992,250.469 204.130 C 250.192 200.766,251.985 198.677,255.322 198.474 L 256.641 198.393 256.641 195.694 L 256.641 192.995 256.054 193.012 C 255.164 193.037,254.757 192.519,254.398 190.906 C 254.175 189.903,253.835 189.098,253.288 188.279 C 252.730 187.444,252.491 186.871,252.470 186.324 L 252.441 185.549 250.830 185.548 L 249.219 185.547 249.219 187.023 M321.395 214.598 C 321.122 214.892,320.898 215.334,320.898 215.580 C 320.898 216.769,319.933 217.969,318.976 217.969 C 318.581 217.969,318.545 218.015,318.750 218.262 C 318.931 218.479,319.413 218.555,320.629 218.555 L 322.266 218.555 322.266 216.309 C 322.266 213.904,322.185 213.745,321.395 214.598 M300.211 218.172 C 301.747 218.956,301.614 220.527,299.886 222.005 C 296.872 224.584,296.785 224.690,296.831 225.735 C 296.879 226.860,296.630 227.172,295.309 227.638 C 294.835 227.805,294.057 228.170,293.582 228.449 C 292.826 228.892,292.574 228.941,291.588 228.838 C 290.705 228.746,290.271 228.803,289.597 229.101 C 288.050 229.786,285.938 229.217,285.938 228.116 C 285.938 226.676,287.739 225.402,289.411 225.660 C 290.210 225.783,291.211 224.594,291.211 223.521 C 291.211 221.373,291.828 220.377,293.276 220.191 C 293.862 220.115,294.429 219.895,294.727 219.628 C 295.341 219.075,295.966 218.751,296.423 218.747 C 296.618 218.746,297.217 218.533,297.754 218.275 C 298.973 217.687,299.239 217.676,300.211 218.172 M289.107 231.384 C 289.566 231.565,290.425 232.126,291.016 232.630 C 291.606 233.135,292.382 233.696,292.740 233.877 C 293.638 234.331,294.025 235.312,293.858 236.713 C 293.787 237.307,293.743 238.013,293.759 238.281 C 293.969 241.824,293.686 243.104,292.435 244.263 C 290.751 245.824,288.219 243.708,288.539 241.006 C 288.700 239.648,288.483 239.216,286.841 237.616 C 284.640 235.471,284.372 233.425,286.113 232.047 C 287.424 231.009,287.893 230.905,289.107 231.384 M266.426 249.745 C 265.923 251.059,265.851 250.971,267.504 251.075 C 268.243 251.122,269.394 251.216,270.063 251.286 C 271.182 251.402,271.326 251.371,271.884 250.901 C 272.786 250.143,273.441 250.154,274.292 250.944 C 276.151 252.669,275.637 255.273,273.438 255.273 C 272.353 255.273,272.096 255.427,271.959 256.158 C 271.726 257.399,270.691 257.768,268.450 257.407 C 267.283 257.220,266.963 257.234,266.326 257.499 C 265.004 258.052,264.317 257.810,263.969 256.671 C 263.850 256.281,263.731 256.456,263.176 257.831 C 262.493 259.524,262.482 259.766,263.084 259.766 C 264.511 259.766,266.070 264.509,265.332 266.602 C 264.852 267.963,264.949 268.591,265.820 269.751 C 266.919 271.212,266.711 272.521,265.198 273.667 C 263.318 275.092,262.544 274.835,261.328 272.381 C 260.876 271.467,259.044 269.756,258.496 269.735 C 258.317 269.728,257.222 272.140,257.225 272.533 C 257.226 272.626,257.460 272.657,257.746 272.602 C 259.091 272.345,259.768 273.053,259.946 274.902 L 260.059 276.074 260.826 276.096 C 262.053 276.130,262.781 277.070,262.608 278.396 C 262.397 280.010,262.117 280.113,259.863 279.402 C 259.561 279.307,259.417 279.407,259.225 279.844 C 258.573 281.335,255.273 280.863,255.273 279.279 C 255.273 279.169,255.185 279.133,255.077 279.200 C 254.969 279.267,254.824 279.176,254.756 278.998 C 254.642 278.701,253.343 281.388,253.338 281.934 C 253.335 282.159,253.951 282.622,257.715 285.226 C 259.219 286.266,261.196 287.679,262.109 288.365 C 263.021 289.051,263.856 289.556,263.964 289.488 C 264.072 289.420,264.003 289.333,263.810 289.295 C 263.610 289.256,263.414 288.991,263.351 288.678 C 263.291 288.376,262.987 287.942,262.675 287.711 C 261.788 287.055,262.167 285.643,263.290 285.418 C 263.720 285.332,263.867 285.193,263.867 284.873 C 263.867 283.814,265.447 283.248,266.650 283.876 L 267.187 284.156 266.577 283.398 C 265.980 282.654,265.970 282.610,266.104 281.184 C 266.195 280.216,266.170 279.685,266.030 279.599 C 265.915 279.528,265.820 279.343,265.820 279.189 C 265.820 279.036,265.513 278.507,265.137 278.014 C 263.820 276.289,265.109 273.056,266.697 274.103 C 267.565 274.676,268.953 276.122,269.400 276.919 L 269.873 277.765 269.852 276.980 C 269.824 275.907,270.528 275.132,271.435 275.238 C 272.217 275.329,272.292 274.937,271.563 274.571 C 270.803 274.189,270.385 273.377,270.614 272.727 C 270.948 271.779,272.069 271.780,274.237 272.733 C 274.526 272.860,276.762 269.734,276.756 269.213 C 276.751 268.842,275.235 268.312,274.528 268.434 C 274.143 268.500,273.517 268.609,273.136 268.675 C 272.363 268.809,271.680 268.376,271.680 267.752 C 271.680 267.429,270.710 266.997,269.978 266.993 C 269.334 266.990,269.121 265.340,269.678 264.674 C 269.977 264.316,270.116 264.289,270.801 264.452 C 272.045 264.750,272.812 264.688,273.245 264.255 C 273.657 263.843,273.924 263.849,275.462 264.306 C 276.136 264.507,276.246 264.490,276.481 264.150 C 277.018 263.374,277.198 263.261,277.799 263.319 C 278.242 263.362,278.522 263.553,278.806 264.004 C 279.426 264.989,279.596 264.926,280.631 263.319 C 281.204 262.430,281.508 261.786,281.376 261.743 C 280.533 261.465,279.030 258.980,279.139 258.046 C 279.200 257.527,279.400 257.378,280.957 256.690 C 281.703 256.361,281.744 256.296,281.859 255.272 C 282.105 253.078,282.806 251.563,283.574 251.563 C 284.543 251.563,285.449 253.712,285.145 255.288 C 284.916 256.476,284.921 256.526,285.251 256.252 C 285.710 255.871,286.037 256.126,287.084 257.678 C 287.992 259.022,288.713 259.588,288.976 259.161 C 289.036 259.064,289.460 258.984,289.917 258.984 C 292.298 258.984,293.425 258.147,293.234 256.520 C 293.073 255.155,293.654 254.492,295.011 254.492 C 296.234 254.492,296.680 254.959,296.680 256.242 C 296.680 257.387,297.101 257.899,298.210 258.101 C 300.132 258.452,300.407 259.644,298.851 260.882 C 297.984 261.573,297.922 261.675,298.168 262.010 C 299.094 263.277,297.530 264.078,295.780 263.232 C 294.886 262.801,294.866 262.800,294.652 263.172 C 294.088 264.152,293.598 264.453,292.566 264.453 C 291.354 264.453,291.294 264.232,293.395 267.496 L 295.039 270.051 295.518 269.388 C 299.140 264.365,301.598 263.764,303.838 267.354 C 303.861 267.391,304.216 267.155,304.626 266.828 C 305.036 266.502,305.876 266.047,306.494 265.818 L 307.617 265.402 307.617 264.455 C 307.617 263.935,307.793 263.099,308.008 262.598 C 308.541 261.354,308.500 260.811,307.813 260.029 C 307.127 259.248,307.045 258.385,307.603 257.827 C 308.171 257.259,307.936 256.719,307.119 256.719 C 306.675 256.719,306.269 256.552,305.911 256.223 C 305.614 255.950,305.082 255.612,304.729 255.473 C 303.687 255.062,303.395 253.869,303.988 252.450 C 304.230 251.871,304.225 251.642,303.949 250.611 C 303.649 249.491,303.651 249.413,303.995 249.033 C 304.357 248.633,304.357 248.633,302.911 248.633 L 301.465 248.634 301.465 250.281 C 301.465 253.242,298.930 254.598,297.212 252.556 C 296.298 251.470,295.746 251.326,294.165 251.764 C 291.202 252.585,290.039 251.980,290.039 249.619 L 290.039 248.633 288.770 248.633 L 287.500 248.633 287.500 249.377 C 287.500 250.939,285.375 251.606,284.129 250.435 C 283.490 249.834,282.827 249.638,282.219 249.868 C 281.539 250.124,281.117 249.945,280.706 249.227 L 280.371 248.642 273.607 248.647 L 266.844 248.652 266.426 249.745 M304.883 259.570 C 305.353 260.040,305.384 260.851,304.965 261.690 C 304.772 262.078,304.704 262.520,304.782 262.878 C 304.975 263.756,304.448 264.602,303.611 264.759 C 302.604 264.948,302.276 264.598,302.415 263.485 C 302.493 262.863,302.441 262.484,302.240 262.219 C 301.047 260.642,303.498 258.186,304.883 259.570 M311.239 267.025 C 310.775 267.979,310.265 268.359,309.452 268.359 C 308.625 268.359,307.928 268.684,306.622 269.678 C 305.483 270.544,304.824 270.696,304.193 270.235 C 303.855 269.988,303.785 270.017,303.467 270.541 C 302.883 271.501,301.549 271.977,300.529 271.588 C 299.737 271.288,299.654 271.295,298.280 271.776 C 297.496 272.051,296.771 272.224,296.669 272.161 C 296.567 272.099,296.484 272.128,296.484 272.227 C 296.484 272.326,296.931 272.383,297.476 272.354 C 298.454 272.301,300.621 273.077,301.339 273.738 C 301.649 274.022,302.187 275.973,302.222 276.938 C 302.243 277.526,302.154 277.654,301.479 278.012 C 300.448 278.557,300.449 278.606,301.514 280.176 L 302.441 281.543 303.516 281.572 C 304.106 281.588,305.161 281.699,305.858 281.820 C 306.864 281.994,307.143 281.988,307.208 281.791 C 307.396 281.218,308.538 280.295,308.931 280.398 C 309.196 280.467,309.634 280.269,310.245 279.802 C 311.742 278.659,312.838 278.820,313.583 280.291 C 314.393 281.890,314.067 282.940,312.361 284.228 C 311.780 284.667,311.185 285.258,311.038 285.541 C 310.891 285.825,310.189 286.536,309.478 287.121 C 308.766 287.705,307.958 288.371,307.683 288.600 C 307.308 288.911,307.227 289.097,307.361 289.337 C 307.514 289.610,307.827 289.440,309.483 288.181 C 310.552 287.370,312.024 286.310,312.755 285.827 C 313.486 285.344,314.629 284.553,315.294 284.068 L 316.504 283.188 316.504 281.738 C 316.504 280.674,316.586 280.206,316.815 279.977 C 317.099 279.692,317.034 279.442,316.058 277.044 L 314.990 274.422 314.413 274.833 C 314.096 275.059,313.749 275.436,313.642 275.671 C 313.241 276.551,311.892 277.057,310.705 276.772 C 309.796 276.554,309.556 276.563,308.899 276.838 C 308.482 277.012,307.963 277.099,307.747 277.030 C 305.953 276.461,306.245 274.023,308.106 274.023 C 308.887 274.023,309.685 273.155,310.172 271.775 C 310.711 270.249,311.019 269.937,312.159 269.762 L 313.026 269.629 312.323 267.936 L 311.619 266.244 311.239 267.025 " stroke="none" fill="#535443" fill-rule="evenodd"></path><path id="path2" d="M249.219 179.590 L 249.219 184.570 252.930 184.570 L 256.641 184.570 256.641 182.198 L 256.641 179.826 256.181 180.322 C 255.757 180.779,255.664 180.801,255.009 180.596 L 254.297 180.373 254.297 179.066 C 254.297 178.063,254.154 177.394,253.680 176.184 L 253.064 174.609 251.141 174.609 L 249.219 174.609 249.219 179.590 M318.001 176.670 C 317.344 178.335,317.188 178.972,317.188 179.990 C 317.188 181.204,317.170 181.250,316.699 181.250 C 316.431 181.250,316.211 181.167,316.211 181.065 C 316.211 180.796,315.326 179.883,315.065 179.883 C 314.912 179.883,314.844 180.608,314.844 182.227 L 314.844 184.570 318.555 184.570 L 322.266 184.570 322.266 179.590 L 322.266 174.609 320.540 174.609 L 318.815 174.609 318.001 176.670 M266.992 186.248 L 266.992 188.902 271.235 194.207 C 273.568 197.125,276.130 200.347,276.928 201.367 C 277.727 202.388,279.043 203.992,279.853 204.932 L 281.326 206.641 286.025 206.641 L 290.724 206.641 293.011 203.857 C 294.269 202.327,297.365 198.481,299.892 195.313 L 304.486 189.551 304.489 186.572 L 304.492 183.594 285.742 183.594 L 266.992 183.594 266.992 186.248 M280.526 190.042 C 282.699 191.751,281.187 197.900,278.895 196.674 C 277.466 195.909,277.383 191.610,278.769 190.088 C 279.265 189.543,279.872 189.528,280.526 190.042 M293.466 190.408 C 294.873 192.534,294.197 196.875,292.459 196.875 C 291.857 196.875,290.943 195.906,290.663 194.971 C 289.669 191.654,291.894 188.033,293.466 190.408 M266.992 198.535 L 266.992 206.641 273.532 206.641 L 280.072 206.641 278.061 204.150 C 276.955 202.781,274.048 199.133,271.600 196.045 C 269.153 192.957,267.115 190.430,267.072 190.430 C 267.028 190.430,266.992 194.077,266.992 198.535 M299.770 196.807 C 297.227 200.013,294.435 203.516,293.565 204.590 L 291.983 206.543 298.170 206.595 C 301.572 206.623,304.388 206.615,304.427 206.576 C 304.465 206.537,304.474 203.012,304.446 198.741 L 304.395 190.976 299.770 196.807 M280.859 210.254 L 280.859 212.891 285.840 212.891 L 290.820 212.891 290.820 210.254 L 290.820 207.617 285.840 207.617 L 280.859 207.617 280.859 210.254 " stroke="none" fill="#fbdbb3" fill-rule="evenodd"></path><path id="path3" d="M293.209 16.400 C 293.477 16.611,293.809 17.053,293.945 17.382 C 294.082 17.712,294.232 17.942,294.280 17.894 C 294.502 17.672,293.292 16.016,292.908 16.016 C 292.805 16.016,292.940 16.188,293.209 16.400 M288.244 20.996 C 288.343 21.211,288.473 21.519,288.532 21.680 C 288.626 21.933,288.643 21.931,288.656 21.668 C 288.665 21.501,288.535 21.193,288.368 20.985 C 288.069 20.612,288.067 20.612,288.244 20.996 M260.146 23.193 L 259.473 23.926 260.205 23.253 C 260.887 22.626,261.027 22.461,260.878 22.461 C 260.846 22.461,260.516 22.791,260.146 23.193 M308.459 25.488 C 308.460 26.133,308.497 26.373,308.540 26.022 C 308.583 25.671,308.583 25.144,308.538 24.850 C 308.493 24.557,308.458 24.844,308.459 25.488 M289.629 25.879 C 289.958 26.516,290.228 26.869,290.227 26.660 C 290.226 26.553,290.046 26.245,289.826 25.977 C 289.561 25.652,289.495 25.619,289.629 25.879 M268.799 26.116 C 269.094 26.161,269.578 26.161,269.873 26.116 C 270.168 26.072,269.927 26.035,269.336 26.035 C 268.745 26.035,268.503 26.072,268.799 26.116 M293.767 27.223 L 293.295 27.832 293.854 27.301 C 294.161 27.009,294.374 26.735,294.326 26.692 C 294.278 26.649,294.026 26.888,293.767 27.223 M282.676 28.320 C 282.676 28.911,282.712 29.153,282.757 28.857 C 282.802 28.562,282.802 28.079,282.757 27.783 C 282.712 27.488,282.676 27.729,282.676 28.320 M292.141 27.873 C 292.384 27.919,292.735 27.917,292.922 27.869 C 293.109 27.820,292.910 27.781,292.480 27.784 C 292.051 27.786,291.898 27.826,292.141 27.873 M263.913 32.227 C 263.913 32.603,263.953 32.756,264.002 32.568 C 264.051 32.380,264.051 32.073,264.002 31.885 C 263.953 31.697,263.913 31.851,263.913 32.227 M255.273 33.887 C 255.638 34.263,255.980 34.570,256.034 34.570 C 256.087 34.570,255.833 34.263,255.469 33.887 C 255.104 33.511,254.762 33.203,254.709 33.203 C 254.655 33.203,254.909 33.511,255.273 33.887 M242.822 34.119 C 243.010 34.168,243.318 34.168,243.506 34.119 C 243.694 34.070,243.540 34.030,243.164 34.030 C 242.788 34.030,242.634 34.070,242.822 34.119 M245.266 34.318 C 245.509 34.365,245.860 34.363,246.047 34.314 C 246.234 34.265,246.035 34.227,245.605 34.229 C 245.176 34.231,245.023 34.271,245.266 34.318 M315.237 34.717 C 315.240 35.108,315.288 35.179,315.415 34.979 C 315.510 34.827,315.544 34.586,315.488 34.442 C 315.330 34.029,315.234 34.134,315.237 34.717 M234.070 35.010 L 233.496 35.645 234.131 35.071 C 234.723 34.536,234.855 34.375,234.705 34.375 C 234.671 34.375,234.385 34.661,234.070 35.010 M336.719 34.436 C 336.719 34.470,337.004 34.755,337.354 35.071 L 337.988 35.645 337.415 35.010 C 336.880 34.418,336.719 34.285,336.719 34.436 M248.622 36.279 L 247.949 37.012 248.682 36.339 C 249.363 35.712,249.504 35.547,249.355 35.547 C 249.322 35.547,248.992 35.876,248.622 36.279 M271.573 37.354 L 270.801 38.184 271.631 37.412 C 272.087 36.987,272.461 36.613,272.461 36.581 C 272.461 36.434,272.291 36.582,271.573 37.354 M256.881 37.305 C 256.881 37.681,256.921 37.834,256.971 37.646 C 257.020 37.458,257.020 37.151,256.971 36.963 C 256.921 36.775,256.881 36.929,256.881 37.305 M284.719 36.857 C 284.962 36.904,285.314 36.902,285.500 36.853 C 285.687 36.804,285.488 36.766,285.059 36.768 C 284.629 36.770,284.476 36.810,284.719 36.857 M229.297 39.746 C 228.822 40.229,228.478 40.625,228.532 40.625 C 228.586 40.625,229.018 40.229,229.492 39.746 C 229.967 39.263,230.311 38.867,230.257 38.867 C 230.203 38.867,229.771 39.263,229.297 39.746 M341.984 39.697 C 342.793 40.560,342.969 40.715,342.969 40.568 C 342.969 40.537,342.551 40.119,342.041 39.640 L 341.113 38.770 341.984 39.697 M282.480 40.430 C 282.480 41.021,282.517 41.262,282.562 40.967 C 282.607 40.671,282.607 40.188,282.562 39.893 C 282.517 39.597,282.480 39.839,282.480 40.430 M289.366 39.840 C 289.458 40.000,289.595 40.747,289.672 41.500 L 289.811 42.871 289.772 41.459 C 289.748 40.560,289.637 39.956,289.467 39.799 C 289.249 39.596,289.230 39.603,289.366 39.840 M305.469 40.332 C 305.833 40.708,306.175 41.016,306.229 41.016 C 306.283 41.016,306.028 40.708,305.664 40.332 C 305.300 39.956,304.958 39.648,304.904 39.648 C 304.850 39.648,305.104 39.956,305.469 40.332 M318.213 41.351 C 318.508 41.396,318.992 41.396,319.287 41.351 C 319.583 41.306,319.341 41.269,318.750 41.269 C 318.159 41.269,317.917 41.306,318.213 41.351 M307.422 42.480 C 308.005 43.071,308.527 43.555,308.580 43.555 C 308.634 43.555,308.201 43.071,307.617 42.480 C 307.034 41.890,306.512 41.406,306.459 41.406 C 306.405 41.406,306.838 41.890,307.422 42.480 M247.070 41.858 C 247.070 41.892,247.356 42.177,247.705 42.493 L 248.340 43.066 247.766 42.432 C 247.231 41.840,247.070 41.707,247.070 41.858 M231.887 42.523 C 232.184 42.568,232.624 42.567,232.864 42.520 C 233.104 42.474,232.861 42.437,232.324 42.439 C 231.787 42.440,231.591 42.478,231.887 42.523 M258.842 43.164 C 258.842 43.647,258.880 43.845,258.927 43.604 C 258.973 43.362,258.973 42.966,258.927 42.725 C 258.880 42.483,258.842 42.681,258.842 43.164 M289.094 44.247 C 288.969 44.521,288.871 44.851,288.875 44.980 C 288.879 45.109,289.012 44.916,289.171 44.551 C 289.505 43.781,289.434 43.501,289.094 44.247 M277.979 45.447 C 278.167 45.496,278.474 45.496,278.662 45.447 C 278.850 45.398,278.696 45.358,278.320 45.358 C 277.944 45.358,277.791 45.398,277.979 45.447 M260.241 45.878 C 260.301 45.975,260.635 46.154,260.982 46.275 C 261.713 46.530,261.492 46.279,260.681 45.934 C 260.379 45.805,260.181 45.780,260.241 45.878 M327.490 46.232 C 327.732 46.278,328.127 46.278,328.369 46.232 C 328.611 46.185,328.413 46.147,327.930 46.147 C 327.446 46.147,327.249 46.185,327.490 46.232 M236.770 47.210 C 237.067 47.255,237.507 47.254,237.747 47.208 C 237.987 47.161,237.744 47.125,237.207 47.126 C 236.670 47.128,236.473 47.166,236.770 47.210 M300.681 47.456 C 300.738 47.549,301.182 47.847,301.667 48.118 C 302.152 48.389,302.501 48.535,302.444 48.442 C 302.387 48.349,301.943 48.052,301.458 47.781 C 300.973 47.510,300.624 47.364,300.681 47.456 M325.446 48.730 C 325.448 49.268,325.486 49.464,325.531 49.167 C 325.576 48.870,325.574 48.431,325.528 48.191 C 325.482 47.950,325.445 48.193,325.446 48.730 M288.770 50.577 L 288.184 50.716 288.897 50.864 C 289.289 50.946,289.772 50.971,289.971 50.920 C 290.199 50.861,290.117 50.817,289.746 50.801 C 289.292 50.781,289.226 50.733,289.453 50.586 C 289.781 50.374,289.628 50.372,288.770 50.577 M270.657 51.701 C 270.900 51.747,271.251 51.746,271.438 51.697 C 271.625 51.648,271.426 51.610,270.996 51.612 C 270.566 51.614,270.414 51.654,270.657 51.701 M282.910 53.410 C 271.949 55.137,262.785 63.780,260.083 74.936 C 259.336 78.024,259.074 80.338,259.371 81.237 C 259.507 81.651,259.565 82.078,259.498 82.186 C 259.431 82.293,259.291 85.577,259.186 89.482 C 259.082 93.387,258.950 97.944,258.895 99.609 C 258.839 101.274,258.748 104.175,258.691 106.055 C 258.478 113.204,258.389 115.998,258.299 118.457 C 258.248 119.854,258.117 124.336,258.009 128.418 C 257.900 132.500,257.769 136.345,257.717 136.963 L 257.623 138.086 258.255 138.109 C 267.008 138.436,275.777 133.149,282.588 123.438 C 284.764 120.336,284.561 120.513,285.866 120.572 C 286.709 120.610,287.031 120.710,287.191 120.984 C 293.395 131.608,303.775 138.384,313.425 138.109 L 314.252 138.086 314.158 136.963 C 314.106 136.345,313.975 132.500,313.868 128.418 C 313.760 124.336,313.630 119.941,313.578 118.652 C 313.527 117.363,313.437 114.551,313.379 112.402 C 313.321 110.254,313.232 107.441,313.181 106.152 C 313.130 104.863,313.001 100.425,312.894 96.289 C 312.592 84.575,312.530 83.365,312.209 83.010 C 311.985 82.762,311.932 81.991,311.946 79.191 C 312.031 62.742,298.715 50.919,282.910 53.410 M309.961 56.506 C 309.961 56.540,310.247 56.826,310.596 57.141 L 311.230 57.715 310.657 57.080 C 310.122 56.488,309.961 56.356,309.961 56.506 M246.936 58.301 C 246.937 58.945,246.973 59.185,247.017 58.834 C 247.060 58.483,247.059 57.956,247.015 57.663 C 246.970 57.369,246.934 57.656,246.936 58.301 M263.522 57.813 C 263.522 58.188,263.562 58.342,263.611 58.154 C 263.660 57.966,263.660 57.659,263.611 57.471 C 263.562 57.283,263.522 57.437,263.522 57.813 M306.152 58.594 C 306.572 59.023,306.959 59.375,307.013 59.375 C 307.067 59.375,306.767 59.023,306.348 58.594 C 305.928 58.164,305.541 57.813,305.487 57.813 C 305.433 57.813,305.733 58.164,306.152 58.594 M334.427 57.953 C 334.723 57.998,335.163 57.996,335.403 57.950 C 335.643 57.904,335.400 57.867,334.863 57.868 C 334.326 57.870,334.130 57.908,334.427 57.953 M353.860 58.732 C 354.103 58.779,354.454 58.777,354.641 58.728 C 354.828 58.679,354.629 58.641,354.199 58.643 C 353.770 58.645,353.617 58.685,353.860 58.732 M224.512 61.133 C 225.150 61.777,225.715 62.305,225.769 62.305 C 225.823 62.305,225.345 61.777,224.707 61.133 C 224.069 60.488,223.503 59.961,223.450 59.961 C 223.396 59.961,223.874 60.488,224.512 61.133 M236.030 63.721 L 234.668 65.137 236.084 63.775 C 237.399 62.510,237.589 62.305,237.446 62.305 C 237.416 62.305,236.779 62.942,236.030 63.721 M243.643 64.307 L 242.871 65.137 243.701 64.365 C 244.158 63.940,244.531 63.566,244.531 63.535 C 244.531 63.387,244.361 63.535,243.643 64.307 M318.228 64.418 C 318.518 64.721,318.688 65.042,318.606 65.133 C 318.524 65.223,318.574 65.229,318.717 65.147 C 318.953 65.010,318.132 63.867,317.798 63.867 C 317.744 63.867,317.938 64.115,318.228 64.418 M348.633 68.066 C 348.997 68.442,349.339 68.750,349.393 68.750 C 349.447 68.750,349.193 68.442,348.828 68.066 C 348.464 67.690,348.122 67.383,348.068 67.383 C 348.014 67.383,348.268 67.690,348.633 68.066 M329.905 68.838 C 330.078 69.058,330.317 69.414,330.436 69.629 C 330.555 69.844,330.655 69.911,330.658 69.778 C 330.661 69.646,330.422 69.290,330.127 68.988 C 329.832 68.686,329.732 68.618,329.905 68.838 M223.975 69.474 C 224.216 69.520,224.612 69.520,224.854 69.474 C 225.095 69.427,224.897 69.389,224.414 69.389 C 223.931 69.389,223.733 69.427,223.975 69.474 M330.723 71.094 C 330.723 71.685,330.759 71.926,330.804 71.631 C 330.849 71.335,330.849 70.852,330.804 70.557 C 330.759 70.261,330.723 70.503,330.723 71.094 M238.916 73.377 C 239.104 73.426,239.412 73.426,239.600 73.377 C 239.788 73.328,239.634 73.288,239.258 73.288 C 238.882 73.288,238.728 73.328,238.916 73.377 M245.361 74.359 C 245.657 74.403,246.140 74.403,246.436 74.359 C 246.731 74.314,246.489 74.277,245.898 74.277 C 245.308 74.277,245.066 74.314,245.361 74.359 M242.327 76.769 C 230.420 79.696,224.311 94.380,229.982 106.445 C 231.353 109.360,232.322 111.851,235.244 119.964 C 237.038 124.947,237.728 126.642,237.977 126.679 C 238.160 126.705,239.599 128.031,241.176 129.623 C 246.005 134.501,249.915 136.816,254.907 137.751 L 256.396 138.030 256.522 134.200 C 256.591 132.094,256.694 129.141,256.750 127.637 C 256.806 126.133,257.116 116.772,257.439 106.836 C 257.763 96.899,258.089 87.418,258.164 85.766 L 258.301 82.763 257.031 81.396 C 253.113 77.178,247.654 75.460,242.327 76.769 M322.027 76.766 C 318.804 77.559,314.453 80.471,314.453 81.836 C 314.453 82.129,314.264 82.609,314.034 82.902 C 313.632 83.413,313.620 83.562,313.743 86.395 C 313.814 88.023,314.130 97.310,314.446 107.031 C 314.762 116.753,315.067 126.025,315.124 127.637 C 315.181 129.248,315.285 132.214,315.355 134.229 C 315.502 138.475,315.207 138.133,318.086 137.402 C 322.342 136.323,325.962 134.010,330.410 129.529 C 332.981 126.940,333.430 126.565,333.753 126.738 C 334.098 126.923,334.273 126.525,336.134 121.330 C 337.239 118.246,338.658 114.369,339.286 112.716 C 339.915 111.062,340.430 109.456,340.430 109.148 C 340.430 108.839,340.859 107.731,341.383 106.686 C 348.847 91.801,336.775 73.140,322.027 76.766 M356.495 79.004 C 356.497 79.434,356.537 79.586,356.583 79.343 C 356.630 79.100,356.628 78.749,356.580 78.562 C 356.531 78.375,356.492 78.574,356.495 79.004 M344.531 79.590 C 344.896 79.966,345.238 80.273,345.291 80.273 C 345.345 80.273,345.091 79.966,344.727 79.590 C 344.362 79.214,344.020 78.906,343.966 78.906 C 343.913 78.906,344.167 79.214,344.531 79.590 M217.432 84.082 C 217.434 84.512,217.474 84.665,217.521 84.422 C 217.568 84.179,217.566 83.827,217.517 83.640 C 217.468 83.454,217.430 83.652,217.432 84.082 M227.009 84.668 C 227.010 85.205,227.048 85.402,227.093 85.105 C 227.138 84.808,227.137 84.368,227.091 84.128 C 227.044 83.888,227.008 84.131,227.009 84.668 M353.221 86.915 C 354.147 87.997,354.160 88.009,353.948 87.598 C 353.837 87.383,353.497 86.988,353.192 86.719 L 352.637 86.232 353.221 86.915 M361.588 92.676 C 361.588 93.428,361.624 93.711,361.666 93.306 C 361.708 92.901,361.708 92.286,361.664 91.939 C 361.621 91.592,361.587 91.924,361.588 92.676 M354.701 102.051 C 354.701 102.158,354.827 102.466,354.980 102.734 C 355.134 103.003,355.260 103.135,355.260 103.027 C 355.260 102.920,355.134 102.612,354.980 102.344 C 354.827 102.075,354.701 101.943,354.701 102.051 M224.592 108.799 C 216.167 110.796,213.618 121.149,220.014 127.394 C 224.272 131.551,230.991 131.747,235.291 127.839 L 236.411 126.821 234.125 120.393 C 232.869 116.858,231.517 112.998,231.121 111.817 C 230.094 108.751,229.901 108.588,227.310 108.613 C 226.201 108.624,224.978 108.708,224.592 108.799 M341.813 108.954 C 341.694 109.177,341.028 111.011,340.334 113.030 C 339.640 115.048,338.236 119.028,337.215 121.875 L 335.358 127.051 336.380 127.992 C 340.438 131.730,347.309 131.457,351.471 127.394 C 357.407 121.598,355.749 112.125,348.293 109.239 C 346.404 108.507,342.152 108.321,341.813 108.954 M331.571 131.183 C 330.091 132.964,329.720 133.631,330.663 132.814 C 330.911 132.598,331.188 132.422,331.278 132.422 C 331.828 132.422,333.507 129.716,333.161 129.388 C 333.131 129.359,332.415 130.167,331.571 131.183 M288.562 161.377 L 287.988 162.012 288.623 161.438 C 289.215 160.903,289.348 160.742,289.197 160.742 C 289.163 160.742,288.877 161.028,288.562 161.377 M301.563 165.918 C 301.927 166.294,302.269 166.602,302.323 166.602 C 302.376 166.602,302.122 166.294,301.758 165.918 C 301.393 165.542,301.051 165.234,300.998 165.234 C 300.944 165.234,301.198 165.542,301.563 165.918 M313.721 196.973 C 313.723 197.402,313.763 197.555,313.810 197.312 C 313.857 197.069,313.855 196.718,313.806 196.531 C 313.757 196.344,313.719 196.543,313.721 196.973 M316.299 198.291 L 315.527 199.121 316.357 198.349 C 317.129 197.631,317.277 197.461,317.129 197.461 C 317.098 197.461,316.724 197.834,316.299 198.291 M254.736 198.577 C 255.032 198.622,255.515 198.622,255.811 198.577 C 256.106 198.533,255.864 198.496,255.273 198.496 C 254.683 198.496,254.441 198.533,254.736 198.577 M252.148 209.082 C 251.674 209.565,251.330 209.961,251.384 209.961 C 251.437 209.961,251.869 209.565,252.344 209.082 C 252.818 208.599,253.162 208.203,253.109 208.203 C 253.055 208.203,252.623 208.599,252.148 209.082 M269.424 209.424 L 268.652 210.254 269.482 209.482 C 270.254 208.764,270.402 208.594,270.254 208.594 C 270.223 208.594,269.849 208.967,269.424 209.424 M312.305 209.473 C 312.669 209.849,313.011 210.156,313.065 210.156 C 313.119 210.156,312.864 209.849,312.500 209.473 C 312.136 209.097,311.793 208.789,311.740 208.789 C 311.686 208.789,311.940 209.097,312.305 209.473 M299.695 210.205 L 299.121 210.840 299.756 210.266 C 300.348 209.731,300.480 209.570,300.330 209.570 C 300.296 209.570,300.010 209.856,299.695 210.205 M306.077 209.994 C 306.065 210.173,306.004 210.481,305.942 210.677 C 305.836 211.016,305.842 211.017,306.053 210.687 C 306.176 210.496,306.237 210.188,306.188 210.004 C 306.109 209.701,306.098 209.700,306.077 209.994 M297.546 211.963 L 296.973 212.598 297.607 212.024 C 298.199 211.489,298.332 211.328,298.181 211.328 C 298.147 211.328,297.862 211.614,297.546 211.963 M316.634 212.451 C 316.226 212.859,316.164 212.957,316.495 212.672 C 316.822 212.391,317.266 212.064,317.480 211.946 C 317.695 211.827,317.758 211.728,317.619 211.725 C 317.481 211.721,317.038 212.048,316.634 212.451 M288.867 214.124 C 288.867 214.157,289.153 214.443,289.502 214.758 L 290.137 215.332 289.563 214.697 C 289.028 214.106,288.867 213.973,288.867 214.124 M296.875 214.191 C 296.875 214.298,297.117 214.598,297.412 214.859 L 297.949 215.332 297.461 214.746 C 297.192 214.424,296.951 214.124,296.924 214.079 C 296.897 214.034,296.875 214.085,296.875 214.191 M261.851 214.456 C 261.977 214.618,262.116 215.101,262.160 215.530 L 262.239 216.309 262.272 215.502 C 262.295 214.938,262.202 214.616,261.963 214.428 C 261.665 214.194,261.650 214.198,261.851 214.456 M283.274 216.211 C 283.274 217.231,283.306 217.649,283.347 217.139 C 283.387 216.628,283.387 215.793,283.347 215.283 C 283.306 214.773,283.274 215.190,283.274 216.211 M290.479 216.699 C 290.481 217.129,290.521 217.282,290.568 217.039 C 290.615 216.796,290.613 216.444,290.564 216.257 C 290.515 216.071,290.477 216.270,290.479 216.699 M273.486 217.322 C 273.674 217.371,273.982 217.371,274.170 217.322 C 274.358 217.273,274.204 217.233,273.828 217.233 C 273.452 217.233,273.298 217.273,273.486 217.322 M289.151 219.385 L 288.379 220.215 289.209 219.443 C 289.981 218.725,290.129 218.555,289.981 218.555 C 289.949 218.555,289.576 218.928,289.151 219.385 M276.682 219.629 C 276.842 220.347,276.954 220.503,276.950 220.003 C 276.948 219.797,276.858 219.497,276.749 219.336 C 276.604 219.122,276.586 219.201,276.682 219.629 M291.256 223.047 C 291.256 223.423,291.296 223.577,291.346 223.389 C 291.395 223.201,291.395 222.893,291.346 222.705 C 291.296 222.517,291.256 222.671,291.256 223.047 M282.835 222.974 C 282.823 223.203,282.966 223.510,283.154 223.658 C 283.452 223.891,283.467 223.888,283.273 223.633 C 283.150 223.472,283.007 223.164,282.954 222.949 C 282.863 222.578,282.857 222.579,282.835 222.974 M297.742 223.682 L 297.168 224.316 297.803 223.743 C 298.394 223.208,298.527 223.047,298.376 223.047 C 298.343 223.047,298.057 223.333,297.742 223.682 M272.351 224.268 L 271.777 224.902 272.412 224.329 C 273.004 223.794,273.137 223.633,272.986 223.633 C 272.952 223.633,272.667 223.918,272.351 224.268 M288.625 225.724 C 288.868 225.771,289.220 225.769,289.407 225.720 C 289.593 225.671,289.395 225.633,288.965 225.635 C 288.535 225.637,288.382 225.677,288.625 225.724 M269.727 226.977 C 269.351 227.178,269.187 227.343,269.363 227.343 C 269.539 227.344,269.891 227.171,270.144 226.960 C 270.703 226.494,270.621 226.498,269.727 226.977 M300.045 228.711 C 300.045 229.087,300.086 229.241,300.135 229.053 C 300.184 228.865,300.184 228.557,300.135 228.369 C 300.086 228.181,300.045 228.335,300.045 228.711 M285.742 236.585 C 285.742 236.618,286.028 236.904,286.377 237.219 L 287.012 237.793 286.438 237.158 C 285.903 236.567,285.742 236.434,285.742 236.585 M267.822 238.081 C 267.366 238.288,266.992 238.501,266.992 238.554 C 266.992 238.607,267.366 238.489,267.822 238.293 C 268.279 238.097,268.784 237.889,268.945 237.831 C 269.206 237.738,269.206 237.725,268.945 237.715 C 268.784 237.709,268.279 237.873,267.822 238.081 M269.824 237.924 C 270.039 238.043,270.351 238.238,270.517 238.357 C 270.684 238.477,270.613 238.376,270.360 238.135 C 270.107 237.893,269.795 237.698,269.667 237.701 C 269.539 237.705,269.609 237.805,269.824 237.924 M287.596 238.282 C 288.522 239.364,288.535 239.376,288.323 238.965 C 288.212 238.750,287.872 238.355,287.567 238.087 L 287.012 237.599 287.596 238.282 M293.703 239.799 C 293.801 241.683,293.897 241.918,293.920 240.332 C 293.930 239.580,293.871 238.857,293.787 238.725 C 293.703 238.593,293.665 239.076,293.703 239.799 M288.490 241.423 C 288.498 241.897,288.577 242.461,288.667 242.676 C 288.765 242.912,288.788 242.602,288.724 241.895 C 288.596 240.483,288.471 240.231,288.490 241.423 M301.428 250.488 C 301.429 251.133,301.465 251.373,301.509 251.022 C 301.552 250.671,301.551 250.144,301.507 249.850 C 301.462 249.557,301.427 249.844,301.428 250.488 M269.385 257.557 C 269.573 257.606,269.880 257.606,270.068 257.557 C 270.256 257.507,270.103 257.467,269.727 257.467 C 269.351 257.467,269.197 257.507,269.385 257.557 M264.160 261.133 C 264.327 261.455,264.507 261.719,264.561 261.719 C 264.615 261.719,264.522 261.455,264.355 261.133 C 264.189 260.811,264.009 260.547,263.955 260.547 C 263.901 260.547,263.994 260.811,264.160 261.133 M301.953 265.295 C 301.953 265.329,302.239 265.615,302.588 265.930 L 303.223 266.504 302.649 265.869 C 302.114 265.277,301.953 265.145,301.953 265.295 M297.255 267.139 L 296.582 267.871 297.314 267.198 C 297.717 266.828,298.047 266.498,298.047 266.466 C 298.047 266.316,297.882 266.457,297.255 267.139 M312.063 269.865 C 312.306 269.911,312.657 269.910,312.844 269.861 C 313.031 269.812,312.832 269.774,312.402 269.776 C 311.973 269.778,311.820 269.818,312.063 269.865 M266.452 271.289 C 266.452 271.665,266.492 271.819,266.541 271.631 C 266.590 271.443,266.590 271.135,266.541 270.947 C 266.492 270.759,266.452 270.913,266.452 271.289 M296.875 272.268 C 297.036 272.371,297.424 272.456,297.738 272.458 C 298.493 272.462,298.329 272.349,297.363 272.201 C 296.831 272.120,296.675 272.141,296.875 272.268 M270.947 275.330 C 271.135 275.379,271.443 275.379,271.631 275.330 C 271.819 275.281,271.665 275.241,271.289 275.241 C 270.913 275.241,270.759 275.281,270.947 275.330 M305.518 281.971 C 305.706 282.020,306.013 282.020,306.201 281.971 C 306.389 281.921,306.235 281.881,305.859 281.881 C 305.483 281.881,305.330 281.921,305.518 281.971 " stroke="none" fill="#4a4b3c" fill-rule="evenodd"></path><path id="path4" d="" stroke="none" fill="#94846c" fill-rule="evenodd"></path><path id="path5" d="" stroke="none" fill="#a48c74" fill-rule="evenodd"></path><path id="path6" d="" stroke="none" fill="#7e725e" fill-rule="evenodd"></path><path id="path7" d="" stroke="none" fill="#8c7c6c" fill-rule="evenodd"></path><path id="path8" d="" stroke="none" fill="#544c44" fill-rule="evenodd"></path></g></svg>