<svg id="svg" version="1.1" xmlns="http://www.w3.org/2000/svg" xmlns:xlink="http://www.w3.org/1999/xlink" width="400" height="400" viewBox="0, 0, 400,400"><g id="svgg"><path id="path0" d="M91.211 17.823 C 91.157 17.875,90.190 17.976,89.063 18.047 C 42.823 20.963,10.914 62.357,19.062 108.855 C 20.058 114.538,21.978 121.154,23.522 124.219 C 23.982 125.132,24.552 126.486,24.789 127.227 C 27.330 135.182,36.554 139.263,43.848 135.658 C 44.600 135.287,45.268 135.044,45.333 135.118 C 45.398 135.193,46.909 138.901,48.692 143.359 C 50.474 147.817,54.144 156.958,56.846 163.672 C 59.549 170.386,61.920 176.282,62.115 176.775 L 62.469 177.670 60.390 177.714 C 59.246 177.738,58.282 177.786,58.247 177.821 C 58.195 177.872,58.163 204.745,58.196 220.166 L 58.203 223.633 67.090 223.633 L 75.976 223.633 75.923 238.232 L 75.869 252.832 74.052 257.129 C 72.258 261.374,71.248 263.817,68.847 269.727 C 68.170 271.392,67.222 273.721,66.740 274.902 C 63.698 282.359,62.500 285.378,62.497 285.594 C 62.493 285.890,59.829 292.090,59.705 292.090 C 59.658 292.090,58.463 291.268,57.051 290.263 C 53.979 288.078,54.009 288.079,52.465 290.131 C 51.510 291.399,49.292 294.870,49.165 295.294 C 49.090 295.544,65.477 306.445,65.928 306.445 C 66.259 306.445,66.843 305.736,68.540 303.271 C 71.704 298.675,72.238 297.876,73.490 295.859 C 74.823 293.709,76.954 290.352,81.212 283.691 C 87.636 273.645,91.989 266.804,93.806 263.906 C 95.574 261.085,95.692 260.942,95.917 261.367 C 96.331 262.146,102.600 272.020,114.469 290.585 C 115.588 292.336,117.075 294.692,117.773 295.822 C 118.472 296.951,119.414 298.419,119.867 299.084 C 124.550 305.956,124.908 306.438,125.345 306.442 C 125.774 306.445,129.056 304.321,137.461 298.598 C 139.641 297.113,141.543 295.898,141.688 295.898 C 142.519 295.898,140.996 292.879,138.711 289.998 C 137.138 288.014,137.545 287.937,133.085 291.068 L 131.502 292.180 130.226 289.108 C 129.524 287.418,128.623 285.156,128.224 284.082 C 127.825 283.008,126.992 280.898,126.373 279.395 C 125.754 277.891,124.696 275.298,124.024 273.633 C 121.443 267.245,117.671 258.065,116.103 254.358 L 115.261 252.368 115.251 238.000 L 115.240 223.633 124.222 223.633 L 133.203 223.633 133.204 222.705 C 133.212 217.825,133.217 182.305,133.211 180.329 L 133.203 177.748 131.269 177.692 L 129.334 177.637 131.140 173.145 C 132.134 170.674,135.963 161.138,139.649 151.953 C 143.335 142.769,146.368 135.230,146.389 135.202 C 146.409 135.173,146.996 135.416,147.693 135.742 C 155.051 139.186,164.097 135.115,166.617 127.227 C 166.854 126.486,167.424 125.132,167.884 124.219 C 171.207 117.623,173.508 105.588,173.525 94.727 C 173.575 61.505,154.767 34.015,124.164 22.578 C 118.982 20.642,110.730 18.860,103.320 18.077 C 101.875 17.925,91.334 17.704,91.211 17.823 M102.246 19.931 C 152.671 24.252,182.951 71.001,167.698 120.983 L 167.046 123.118 166.911 121.960 C 166.160 115.521,161.135 111.024,154.764 111.089 L 152.984 111.107 153.640 109.588 C 161.732 90.872,141.019 70.247,125.749 81.815 L 124.446 82.801 124.326 81.293 C 122.344 56.526,94.261 46.200,76.645 63.762 C 71.602 68.790,68.391 75.419,67.839 81.940 C 67.711 83.454,67.613 83.619,67.163 83.075 C 64.285 79.606,56.837 77.675,51.702 79.067 C 39.428 82.397,32.539 97.498,37.771 109.601 L 38.434 111.133 36.453 111.135 C 30.112 111.143,25.243 115.550,24.495 121.960 L 24.360 123.118 23.708 120.983 C 9.968 75.958,32.689 33.243,76.312 22.089 C 80.696 20.968,84.098 20.414,90.039 19.854 C 91.711 19.696,100.122 19.749,102.246 19.931 M101.855 57.518 C 113.978 60.032,121.783 69.789,121.994 82.694 C 122.048 86.009,122.117 86.837,122.359 87.104 C 122.586 87.356,122.656 87.925,122.656 89.524 C 122.656 91.643,122.857 98.550,123.733 126.548 C 124.000 135.079,124.219 142.133,124.219 142.221 C 124.219 142.492,120.862 142.402,119.033 142.083 C 111.842 140.829,104.291 135.504,98.963 127.930 C 96.611 124.587,96.838 124.805,95.703 124.805 C 94.568 124.805,94.795 124.587,92.444 127.930 C 88.068 134.149,81.698 139.245,75.866 141.191 C 72.994 142.150,67.578 142.822,67.578 142.220 C 67.578 142.130,67.795 135.121,68.061 126.644 C 69.141 92.144,69.297 85.650,69.060 85.118 C 68.878 84.712,69.411 80.935,69.949 78.809 C 72.896 67.175,82.489 58.657,94.336 57.153 C 95.712 56.979,100.336 57.203,101.855 57.518 M58.666 80.555 C 61.713 81.138,64.173 82.523,66.737 85.098 L 68.337 86.705 68.152 90.960 C 67.987 94.764,66.974 125.380,66.700 134.863 C 66.641 136.904,66.541 139.398,66.479 140.405 L 66.366 142.237 65.319 142.114 C 60.531 141.551,55.191 138.293,49.994 132.764 C 49.009 131.716,48.059 130.858,47.881 130.857 C 47.638 130.856,47.202 129.853,46.118 126.804 C 43.244 118.726,40.973 112.798,40.037 110.934 C 32.664 96.241,44.003 77.750,58.666 80.555 M138.646 80.656 C 150.970 83.199,157.490 98.737,151.359 110.954 C 150.828 112.012,150.408 113.078,150.425 113.323 C 150.441 113.569,149.658 115.923,148.684 118.555 C 147.710 121.187,146.271 125.132,145.487 127.323 C 144.703 129.514,144.028 131.206,143.987 131.083 C 143.800 130.522,143.072 130.998,141.412 132.764 C 136.303 138.200,131.188 141.365,126.338 142.090 L 125.430 142.226 125.314 140.400 C 125.251 139.396,124.977 131.411,124.705 122.656 C 124.040 101.241,123.660 89.984,123.555 88.586 C 123.485 87.648,123.540 87.334,123.843 86.948 C 124.050 86.686,124.219 86.244,124.219 85.967 C 124.219 85.611,124.530 85.169,125.285 84.455 C 128.991 80.951,133.652 79.626,138.646 80.656 M39.768 113.086 C 40.242 113.476,40.539 114.103,41.254 116.211 C 41.745 117.661,43.125 121.595,44.321 124.953 L 46.495 131.057 45.775 131.691 C 40.866 136.013,34.583 135.994,30.015 131.645 C 22.360 124.357,27.096 112.292,37.508 112.555 C 38.965 112.592,39.252 112.660,39.768 113.086 M156.738 112.795 C 165.420 114.626,168.055 125.301,161.391 131.645 C 157.158 135.675,151.029 135.996,146.510 132.424 C 145.105 131.313,145.044 131.781,147.470 124.973 C 148.671 121.604,150.068 117.610,150.575 116.098 C 151.624 112.971,151.647 112.924,152.217 112.694 C 152.879 112.427,155.242 112.480,156.738 112.795 M96.918 129.248 C 97.507 130.188,99.289 133.506,100.879 136.621 C 104.406 143.535,114.989 164.064,120.540 174.763 C 124.330 182.067,124.828 183.208,124.101 182.930 C 123.880 182.844,123.828 183.164,123.825 184.625 C 123.824 185.616,123.821 191.845,123.819 198.468 C 123.816 209.160,123.782 210.523,123.513 210.626 C 123.346 210.690,121.460 210.742,119.320 210.742 L 115.430 210.742 115.430 202.270 C 115.430 195.006,115.471 193.763,115.720 193.557 C 115.880 193.424,116.908 192.132,118.004 190.686 L 119.996 188.057 120.068 186.362 C 120.579 174.266,108.400 161.952,95.898 161.924 C 84.072 161.898,72.248 173.263,71.916 184.975 L 71.830 188.016 73.323 189.955 C 74.145 191.022,75.075 192.215,75.391 192.607 L 75.964 193.319 75.972 202.025 L 75.980 210.731 71.779 210.734 L 67.578 210.736 67.578 196.886 C 67.578 185.116,67.537 183.027,67.302 182.973 C 67.108 182.929,68.180 180.688,70.930 175.391 C 77.518 162.700,88.146 142.074,91.939 134.619 C 93.920 130.725,95.610 127.539,95.694 127.539 C 95.779 127.539,96.329 128.308,96.918 129.248 M143.149 133.783 C 142.930 134.357,142.608 135.099,142.432 135.431 C 142.256 135.763,142.087 136.167,142.056 136.328 C 142.026 136.489,139.754 142.861,137.007 150.488 C 134.261 158.115,130.944 167.366,129.638 171.045 C 126.978 178.534,126.566 179.228,126.559 176.221 C 126.558 175.388,126.474 172.246,126.373 169.238 C 126.272 166.230,126.139 162.188,126.077 160.254 C 126.014 158.320,125.879 154.365,125.776 151.465 C 125.516 144.146,125.501 144.556,126.025 144.451 C 131.297 143.399,139.030 139.398,139.798 137.327 C 139.862 137.153,140.473 136.369,141.154 135.583 C 141.836 134.797,142.624 133.807,142.905 133.382 C 143.569 132.378,143.639 132.492,143.149 133.783 M52.557 148.327 C 54.369 153.369,55.819 157.527,55.780 157.567 C 55.740 157.607,54.106 153.620,52.150 148.706 C 50.193 143.793,48.065 138.508,47.420 136.962 L 46.249 134.150 46.697 133.673 L 47.145 133.196 48.203 136.178 C 48.785 137.818,50.744 143.285,52.557 148.327 M144.733 136.098 C 144.330 137.030,142.220 142.258,140.043 147.714 C 137.867 153.171,136.054 157.603,136.014 157.564 C 135.974 157.524,136.984 154.597,138.259 151.060 C 139.533 147.523,141.391 142.344,142.387 139.551 C 143.382 136.758,144.275 134.262,144.370 134.005 L 144.543 133.537 145.005 133.970 L 145.466 134.404 144.733 136.098 M89.487 136.572 C 88.315 138.784,84.095 146.939,74.606 165.332 C 71.779 170.811,68.823 176.523,68.037 178.027 L 66.608 180.762 66.605 178.892 C 66.602 177.152,67.044 162.493,67.273 156.738 C 67.329 155.342,67.433 152.068,67.505 149.463 L 67.636 144.727 69.511 144.726 C 76.454 144.723,83.477 141.516,89.155 135.756 C 89.904 134.997,90.547 134.375,90.584 134.375 C 90.621 134.375,90.127 135.364,89.487 136.572 M55.187 140.286 C 58.338 142.380,61.238 143.615,64.517 144.259 L 66.211 144.592 66.210 145.392 C 66.209 145.832,66.124 148.564,66.021 151.465 C 65.918 154.365,65.783 158.320,65.720 160.254 C 65.658 162.188,65.525 166.230,65.424 169.238 C 65.323 172.246,65.239 175.388,65.237 176.221 C 65.231 179.212,64.811 178.522,62.263 171.338 C 60.127 165.317,49.613 136.060,49.307 135.287 C 49.229 135.091,50.078 135.841,51.194 136.956 C 52.445 138.204,53.976 139.482,55.187 140.286 M105.666 138.804 C 107.343 140.121,110.174 141.832,110.482 141.714 C 110.617 141.662,111.455 141.969,112.346 142.395 C 113.236 142.822,113.745 143.121,113.477 143.060 C 112.849 142.919,113.356 143.252,114.063 143.446 C 114.452 143.553,114.492 143.536,114.258 143.359 C 114.024 143.183,114.064 143.165,114.453 143.272 C 114.722 143.345,115.073 143.520,115.234 143.659 C 115.763 144.115,118.405 144.554,121.310 144.667 L 124.162 144.778 124.292 149.489 C 124.364 152.079,124.468 155.342,124.524 156.738 C 124.753 162.493,125.195 177.152,125.192 178.892 L 125.189 180.762 123.760 178.027 C 122.974 176.523,120.018 170.811,117.191 165.332 C 106.403 144.422,103.249 138.326,102.391 136.719 L 101.505 135.059 102.950 136.432 C 103.744 137.187,104.967 138.255,105.666 138.804 M110.547 141.829 C 110.849 142.123,112.109 142.780,112.108 142.643 C 112.107 142.554,111.865 142.364,111.571 142.221 C 110.866 141.880,110.425 141.712,110.547 141.829 M101.226 163.941 C 110.630 166.367,118.945 176.590,118.945 185.724 L 118.945 186.719 95.876 186.719 L 72.806 186.719 72.941 185.400 C 74.437 170.802,87.984 160.524,101.226 163.941 M63.684 180.176 C 64.117 181.247,64.240 181.865,64.248 183.031 L 64.258 184.519 64.990 184.642 C 65.579 184.741,65.786 184.689,66.047 184.375 C 66.568 183.747,66.602 183.865,66.602 186.328 L 66.602 188.672 62.891 188.672 L 59.180 188.672 59.180 183.685 L 59.180 178.697 61.155 178.753 L 63.131 178.809 63.684 180.176 M132.227 183.691 L 132.227 188.672 128.516 188.672 L 124.805 188.672 124.805 186.328 C 124.805 184.316,124.849 183.984,125.115 183.984 C 125.460 183.984,126.155 184.727,126.165 185.107 C 126.169 185.242,126.392 185.352,126.660 185.352 C 127.136 185.352,127.148 185.316,127.148 183.930 C 127.148 182.760,127.264 182.231,127.799 180.951 C 128.156 180.095,128.505 179.241,128.574 179.053 C 128.680 178.762,128.960 178.711,130.463 178.711 L 132.227 178.711 132.227 183.691 M134.233 181.836 C 134.233 182.319,134.271 182.517,134.318 182.275 C 134.364 182.034,134.364 181.638,134.318 181.396 C 134.271 181.155,134.233 181.353,134.233 181.836 M75.977 189.551 C 75.977 191.789,76.119 191.780,74.435 189.649 C 72.751 187.516,72.744 187.695,74.512 187.695 L 75.977 187.695 75.977 189.551 M114.453 190.714 L 114.453 193.732 110.501 198.673 C 108.328 201.390,105.897 204.448,105.100 205.469 C 104.303 206.489,102.989 208.093,102.178 209.033 L 100.705 210.742 95.909 210.729 L 91.113 210.716 90.009 209.403 C 89.401 208.680,86.215 204.715,82.929 200.590 L 76.953 193.091 76.953 190.393 L 76.953 187.695 95.703 187.695 L 114.453 187.695 114.453 190.714 M118.664 187.994 C 118.455 188.152,118.348 188.281,118.426 188.281 C 118.504 188.281,117.896 189.116,117.075 190.137 C 116.254 191.157,115.548 191.992,115.506 191.992 C 115.464 191.992,115.430 191.025,115.430 189.844 L 115.430 187.695 117.236 187.702 C 118.867 187.707,119.006 187.736,118.664 187.994 M66.602 200.684 L 66.602 211.719 78.223 211.719 L 89.844 211.719 89.844 214.844 L 89.844 217.969 95.801 217.969 L 101.758 217.969 101.758 214.844 L 101.758 211.719 113.281 211.719 L 124.805 211.719 124.805 200.684 L 124.805 189.648 128.516 189.648 L 132.227 189.648 132.227 206.152 L 132.227 222.656 123.242 222.656 L 114.258 222.656 114.258 237.207 L 114.258 251.758 95.605 251.758 L 76.953 251.758 76.953 237.207 L 76.953 222.656 68.066 222.656 L 59.180 222.656 59.180 206.152 L 59.180 189.648 62.891 189.648 L 66.602 189.648 66.602 200.684 M88.659 194.350 C 87.341 195.760,87.485 199.596,88.894 200.639 C 91.037 202.224,92.509 196.018,90.409 194.251 C 89.639 193.603,89.341 193.620,88.659 194.350 M101.711 194.056 C 99.984 194.993,100.043 199.372,101.801 200.656 C 103.798 202.115,105.131 196.526,103.287 194.425 C 102.626 193.673,102.480 193.639,101.711 194.056 M83.705 202.706 C 86.813 206.611,89.517 210.017,89.714 210.274 L 90.072 210.742 83.512 210.742 L 76.953 210.742 76.953 202.532 L 76.953 194.322 77.504 194.964 C 77.807 195.317,80.598 198.801,83.705 202.706 M114.453 202.832 L 114.453 210.742 108.203 210.742 C 104.766 210.742,101.953 210.704,101.953 210.656 C 101.953 210.609,103.733 208.337,105.908 205.606 C 108.083 202.876,110.874 199.359,112.109 197.791 C 113.345 196.223,114.377 194.936,114.404 194.931 C 114.431 194.926,114.453 198.481,114.453 202.832 M67.840 208.887 C 67.841 209.746,67.875 210.073,67.917 209.614 C 67.958 209.155,67.957 208.451,67.915 208.051 C 67.873 207.651,67.840 208.027,67.840 208.887 M100.781 214.355 L 100.781 216.992 95.801 216.992 L 90.820 216.992 90.820 214.355 L 90.820 211.719 95.801 211.719 L 100.781 211.719 100.781 214.355 M116.442 257.474 C 117.481 260.077,120.551 267.606,123.262 274.205 L 128.191 286.204 127.728 286.510 C 127.474 286.679,125.072 288.382,122.392 290.296 C 118.459 293.105,117.475 293.726,117.287 293.519 C 117.159 293.377,114.738 289.614,111.906 285.156 C 106.708 276.971,99.597 265.849,97.199 262.152 C 95.640 259.749,95.665 259.748,94.022 262.256 C 92.609 264.414,78.019 287.243,75.676 290.962 C 74.713 292.490,73.868 293.742,73.796 293.745 C 73.725 293.748,72.670 293.024,71.453 292.136 C 69.840 290.961,63.733 286.627,63.140 286.236 C 63.115 286.221,64.286 283.312,65.741 279.774 C 68.744 272.469,76.240 254.084,76.546 253.271 L 76.748 252.734 95.649 252.738 L 114.551 252.741 116.442 257.474 " stroke="none" fill="#141c1c" fill-rule="evenodd"></path><path id="path1" d="M94.287 19.872 C 95.066 19.909,96.340 19.909,97.119 19.872 C 97.898 19.835,97.261 19.804,95.703 19.804 C 94.146 19.804,93.508 19.835,94.287 19.872 M62.695 26.953 C 62.319 27.159,62.100 27.327,62.207 27.327 C 62.314 27.327,62.710 27.159,63.086 26.953 C 63.462 26.747,63.682 26.579,63.574 26.579 C 63.467 26.579,63.071 26.747,62.695 26.953 M128.320 26.953 C 128.696 27.159,129.092 27.327,129.199 27.327 C 129.307 27.327,129.087 27.159,128.711 26.953 C 128.335 26.747,127.939 26.579,127.832 26.579 C 127.725 26.579,127.944 26.747,128.320 26.953 M59.717 28.332 C 58.884 28.758,58.203 29.150,58.203 29.204 C 58.203 29.291,61.309 27.797,61.507 27.614 C 61.784 27.359,61.025 27.664,59.717 28.332 M129.899 27.614 C 130.098 27.797,133.203 29.291,133.203 29.204 C 133.203 29.095,130.165 27.539,129.952 27.539 C 129.878 27.539,129.854 27.573,129.899 27.614 M56.982 29.799 C 56.252 30.195,56.297 30.360,57.031 29.980 C 57.354 29.814,57.617 29.636,57.617 29.585 C 57.617 29.459,57.596 29.466,56.982 29.799 M133.789 29.580 C 133.789 29.634,134.053 29.814,134.375 29.980 C 134.697 30.147,134.961 30.240,134.961 30.186 C 134.961 30.132,134.697 29.952,134.375 29.785 C 134.053 29.619,133.789 29.526,133.789 29.580 M53.564 31.858 C 52.899 32.285,52.683 32.571,53.271 32.248 C 53.720 32.001,54.422 31.459,54.297 31.455 C 54.243 31.453,53.914 31.635,53.564 31.858 M137.402 31.742 C 137.617 31.917,137.969 32.146,138.184 32.252 L 138.574 32.443 138.184 32.125 C 137.969 31.950,137.617 31.721,137.402 31.616 L 137.012 31.424 137.402 31.742 M51.221 33.418 C 50.764 33.741,50.391 34.049,50.391 34.102 C 50.391 34.155,50.786 33.926,51.270 33.594 C 51.753 33.261,52.148 32.949,52.148 32.901 C 52.148 32.766,52.111 32.787,51.221 33.418 M139.258 32.891 C 139.258 32.945,139.653 33.261,140.137 33.594 C 140.620 33.926,141.016 34.155,141.016 34.101 C 141.016 34.047,140.620 33.731,140.137 33.398 C 139.653 33.066,139.258 32.838,139.258 32.891 M49.072 34.973 C 48.508 35.406,48.047 35.800,48.047 35.848 C 48.047 35.970,49.973 34.577,50.109 34.357 C 50.290 34.064,50.144 34.151,49.072 34.973 M141.275 34.320 C 141.347 34.438,141.868 34.865,142.432 35.269 C 142.996 35.673,143.351 35.874,143.222 35.717 C 142.913 35.341,141.103 34.043,141.275 34.320 M42.311 40.834 C 40.417 42.675,38.867 44.242,38.867 44.315 C 38.867 44.388,40.120 43.209,41.650 41.695 C 43.181 40.180,44.772 38.655,45.187 38.306 C 45.601 37.957,45.898 37.630,45.847 37.579 C 45.796 37.528,44.205 38.993,42.311 40.834 M145.517 37.607 C 145.523 37.709,146.007 38.186,146.595 38.666 C 147.182 39.146,148.760 40.648,150.101 42.003 C 151.442 43.358,152.539 44.414,152.539 44.350 C 152.539 44.237,148.018 39.745,146.338 38.189 C 145.881 37.767,145.512 37.504,145.517 37.607 M37.974 45.361 C 36.866 46.575,36.456 47.070,36.558 47.070 C 36.614 47.070,37.119 46.543,37.679 45.898 C 38.751 44.666,38.966 44.274,37.974 45.361 M153.695 45.850 C 154.273 46.521,154.785 47.070,154.833 47.070 C 154.962 47.070,153.386 45.218,152.988 44.902 C 152.799 44.752,153.117 45.178,153.695 45.850 M84.766 57.617 C 84.390 57.823,84.170 57.991,84.277 57.991 C 84.385 57.991,84.780 57.823,85.156 57.617 C 85.532 57.411,85.752 57.243,85.645 57.243 C 85.537 57.243,85.142 57.411,84.766 57.617 M83.350 58.315 C 82.619 58.711,82.664 58.876,83.398 58.496 C 83.721 58.329,83.984 58.151,83.984 58.100 C 83.984 57.975,83.963 57.982,83.350 58.315 M79.642 60.760 L 79.004 61.363 79.736 60.834 C 80.139 60.543,80.469 60.272,80.469 60.231 C 80.469 60.049,80.235 60.198,79.642 60.760 M116.217 62.793 C 117.021 63.652,118.015 64.751,118.425 65.234 C 118.976 65.884,118.939 65.808,118.284 64.941 C 117.797 64.297,116.804 63.198,116.077 62.500 L 114.755 61.230 116.217 62.793 M76.556 63.428 L 75.488 64.551 76.611 63.483 C 77.655 62.491,77.824 62.305,77.679 62.305 C 77.648 62.305,77.143 62.810,76.556 63.428 M119.622 66.943 C 119.923 67.400,120.206 67.773,120.252 67.773 C 120.393 67.773,119.645 66.585,119.352 66.342 C 119.199 66.216,119.321 66.487,119.622 66.943 M122.093 71.387 C 122.096 71.494,122.268 71.934,122.475 72.363 C 122.682 72.793,122.796 72.925,122.729 72.656 C 122.591 72.103,122.082 71.088,122.093 71.387 M55.025 78.461 C 55.372 78.504,55.987 78.505,56.392 78.463 C 56.797 78.421,56.514 78.385,55.762 78.384 C 55.010 78.384,54.678 78.418,55.025 78.461 M134.908 78.461 C 135.254 78.504,135.870 78.505,136.275 78.463 C 136.680 78.421,136.396 78.385,135.645 78.384 C 134.893 78.384,134.561 78.418,134.908 78.461 M124.264 79.492 C 124.264 79.868,124.304 80.022,124.353 79.834 C 124.403 79.646,124.403 79.338,124.353 79.150 C 124.304 78.962,124.264 79.116,124.264 79.492 M124.473 81.641 C 124.473 82.231,124.509 82.473,124.554 82.178 C 124.599 81.882,124.599 81.399,124.554 81.104 C 124.509 80.808,124.473 81.050,124.473 81.641 M43.886 82.916 C 43.584 83.181,43.415 83.398,43.510 83.398 C 43.604 83.398,43.888 83.179,44.141 82.910 C 44.724 82.289,44.595 82.292,43.886 82.916 M147.309 82.917 C 147.601 83.224,147.875 83.436,147.918 83.388 C 147.960 83.340,147.721 83.089,147.386 82.829 L 146.777 82.358 147.309 82.917 M19.801 95.020 C 19.802 96.309,19.833 96.811,19.871 96.135 C 19.910 95.459,19.909 94.405,19.871 93.791 C 19.832 93.178,19.801 93.730,19.801 95.020 M171.559 95.020 C 171.559 96.309,171.591 96.811,171.629 96.135 C 171.667 95.459,171.667 94.405,171.628 93.791 C 171.590 93.178,171.559 93.730,171.559 95.020 M19.967 100.586 C 19.967 100.962,20.007 101.116,20.057 100.928 C 20.106 100.740,20.106 100.432,20.057 100.244 C 20.007 100.056,19.967 100.210,19.967 100.586 M171.334 100.586 C 171.334 100.962,171.375 101.116,171.424 100.928 C 171.473 100.740,171.473 100.432,171.424 100.244 C 171.375 100.056,171.334 100.210,171.334 100.586 M29.144 113.232 C 28.677 113.689,28.669 113.711,29.092 113.382 C 29.926 112.732,29.966 112.695,29.827 112.695 C 29.754 112.695,29.446 112.937,29.144 113.232 M161.621 112.821 C 162.616 113.703,162.982 113.961,162.598 113.507 C 162.386 113.256,162.035 112.959,161.819 112.849 C 161.603 112.738,161.514 112.725,161.621 112.821 M68.652 289.973 C 69.151 290.446,70.378 291.246,70.081 290.905 C 69.901 290.697,69.461 290.361,69.105 290.158 C 68.749 289.955,68.545 289.871,68.652 289.973 M121.175 290.932 L 120.410 291.630 121.240 290.997 C 121.999 290.419,122.184 290.234,122.005 290.234 C 121.969 290.234,121.596 290.548,121.175 290.932 " stroke="none" fill="#4d4d3d" fill-rule="evenodd"></path><path id="path2" d="M59.180 183.691 L 59.180 188.672 62.891 188.672 L 66.602 188.672 66.601 186.279 L 66.600 183.887 66.126 184.473 C 65.708 184.989,65.605 185.030,65.251 184.814 C 65.030 184.680,64.716 184.570,64.553 184.570 C 64.319 184.570,64.258 184.299,64.258 183.257 C 64.258 182.238,64.116 181.583,63.623 180.328 L 62.988 178.712 61.084 178.712 L 59.180 178.711 59.180 183.691 M127.974 180.813 C 127.299 182.508,127.140 183.144,127.144 184.131 C 127.149 185.630,126.609 185.847,125.805 184.667 C 124.970 183.441,124.805 183.715,124.805 186.328 L 124.805 188.672 128.516 188.672 L 132.227 188.672 132.227 183.691 L 132.227 178.711 130.518 178.713 L 128.809 178.715 127.974 180.813 M76.953 190.350 L 76.953 193.005 81.577 198.797 C 87.294 205.960,89.626 208.839,90.581 209.912 L 91.319 210.742 96.001 210.733 L 100.684 210.723 102.580 208.438 C 103.622 207.181,106.718 203.340,109.459 199.902 L 114.442 193.652 114.447 190.674 L 114.453 187.695 95.703 187.695 L 76.953 187.695 76.953 190.350 M90.487 194.144 C 91.829 195.199,91.889 198.824,90.588 200.305 C 89.077 202.026,87.514 200.172,87.754 196.942 C 87.948 194.330,89.154 193.095,90.487 194.144 M103.421 194.501 C 104.859 196.674,104.171 200.977,102.386 200.977 C 100.404 200.977,99.617 195.849,101.360 194.287 C 102.215 193.520,102.813 193.583,103.421 194.501 M76.953 202.595 L 76.953 210.742 83.498 210.742 L 90.043 210.742 88.487 208.838 C 87.632 207.791,84.808 204.253,82.212 200.977 C 79.616 197.700,77.370 194.891,77.222 194.734 C 76.993 194.490,76.953 195.664,76.953 202.595 M108.178 202.877 L 102.001 210.645 108.159 210.696 C 111.546 210.725,114.349 210.716,114.388 210.678 C 114.426 210.639,114.435 207.121,114.407 202.859 L 114.355 195.110 108.178 202.877 M90.820 214.355 L 90.820 216.992 95.801 216.992 L 100.781 216.992 100.781 214.355 L 100.781 211.719 95.801 211.719 L 90.820 211.719 90.820 214.355 " stroke="none" fill="#936c4b" fill-rule="evenodd"></path><path id="path3" d="M42.958 39.990 L 42.285 40.723 43.018 40.050 C 43.699 39.423,43.840 39.258,43.691 39.258 C 43.658 39.258,43.328 39.587,42.958 39.990 M148.242 39.941 C 148.607 40.317,148.949 40.625,149.002 40.625 C 149.056 40.625,148.802 40.317,148.438 39.941 C 148.073 39.565,147.731 39.258,147.677 39.258 C 147.624 39.258,147.878 39.565,148.242 39.941 M40.039 42.871 C 39.565 43.354,39.220 43.750,39.274 43.750 C 39.328 43.750,39.760 43.354,40.234 42.871 C 40.709 42.388,41.053 41.992,40.999 41.992 C 40.946 41.992,40.513 42.388,40.039 42.871 M151.164 42.822 C 151.643 43.333,152.060 43.750,152.091 43.750 C 152.238 43.750,152.083 43.575,151.221 42.765 L 150.293 41.895 151.164 42.822 M95.852 55.021 C 96.095 55.068,96.446 55.066,96.633 55.017 C 96.820 54.968,96.621 54.930,96.191 54.932 C 95.762 54.934,95.609 54.974,95.852 55.021 M97.412 55.021 C 97.654 55.067,98.049 55.067,98.291 55.021 C 98.533 54.974,98.335 54.936,97.852 54.936 C 97.368 54.936,97.170 54.974,97.412 55.021 M95.954 57.176 C 96.576 57.215,97.543 57.214,98.103 57.175 C 98.663 57.136,98.154 57.104,96.973 57.104 C 95.791 57.105,95.333 57.137,95.954 57.176 M116.007 62.744 C 116.486 63.254,116.904 63.672,116.935 63.672 C 117.082 63.672,116.927 63.497,116.064 62.687 L 115.137 61.816 116.007 62.744 M77.631 65.283 L 76.270 66.699 77.686 65.337 C 79.001 64.072,79.191 63.867,79.047 63.867 C 79.018 63.867,78.381 64.504,77.631 65.283 M54.739 80.414 C 55.036 80.458,55.475 80.457,55.716 80.411 C 55.956 80.365,55.713 80.328,55.176 80.329 C 54.639 80.331,54.442 80.369,54.739 80.414 M56.594 80.412 C 56.837 80.458,57.189 80.457,57.375 80.408 C 57.562 80.359,57.363 80.321,56.934 80.323 C 56.504 80.325,56.351 80.365,56.594 80.412 M134.133 80.412 C 134.376 80.458,134.728 80.457,134.914 80.408 C 135.101 80.359,134.902 80.321,134.473 80.323 C 134.043 80.325,133.890 80.365,134.133 80.412 M135.794 80.414 C 136.091 80.458,136.530 80.457,136.770 80.411 C 137.010 80.365,136.768 80.328,136.230 80.329 C 135.693 80.331,135.497 80.369,135.794 80.414 M67.163 83.057 C 67.310 83.245,67.508 83.398,67.602 83.398 C 67.696 83.398,67.766 83.245,67.758 83.057 C 67.748 82.839,67.706 82.807,67.641 82.967 C 67.559 83.173,67.481 83.173,67.217 82.967 C 66.929 82.742,66.923 82.751,67.163 83.057 M66.309 84.766 C 66.728 85.195,67.115 85.547,67.169 85.547 C 67.223 85.547,66.923 85.195,66.504 84.766 C 66.084 84.336,65.697 83.984,65.643 83.984 C 65.590 83.984,65.889 84.336,66.309 84.766 M68.991 84.570 C 68.991 84.946,69.031 85.100,69.080 84.912 C 69.129 84.724,69.129 84.417,69.080 84.229 C 69.031 84.041,68.991 84.194,68.991 84.570 M124.989 84.717 L 124.316 85.449 125.049 84.776 C 125.731 84.150,125.871 83.984,125.722 83.984 C 125.689 83.984,125.360 84.314,124.989 84.717 M121.924 85.059 C 121.926 85.488,121.966 85.641,122.013 85.398 C 122.060 85.155,122.058 84.804,122.009 84.617 C 121.960 84.430,121.922 84.629,121.924 85.059 M43.835 85.596 L 43.262 86.230 43.896 85.657 C 44.488 85.122,44.621 84.961,44.470 84.961 C 44.437 84.961,44.151 85.247,43.835 85.596 M146.875 85.022 C 146.875 85.056,147.161 85.341,147.510 85.657 L 148.145 86.230 147.571 85.596 C 147.036 85.004,146.875 84.871,146.875 85.022 M123.672 87.148 C 123.543 87.277,123.448 87.563,123.460 87.783 C 123.482 88.175,123.485 88.176,123.579 87.793 C 123.632 87.578,123.764 87.292,123.873 87.158 C 124.126 86.847,123.981 86.840,123.672 87.148 M68.018 92.285 C 68.020 92.715,68.060 92.868,68.107 92.625 C 68.154 92.382,68.152 92.030,68.103 91.843 C 68.054 91.657,68.016 91.855,68.018 92.285 M123.682 92.285 C 123.684 92.715,123.724 92.868,123.771 92.625 C 123.818 92.382,123.816 92.030,123.767 91.843 C 123.718 91.657,123.680 91.855,123.682 92.285 M69.001 95.215 C 69.003 95.752,69.041 95.948,69.085 95.652 C 69.130 95.355,69.129 94.915,69.083 94.675 C 69.036 94.435,69.000 94.678,69.001 95.215 M122.712 95.215 C 122.714 95.752,122.752 95.948,122.796 95.652 C 122.841 95.355,122.840 94.915,122.794 94.675 C 122.747 94.435,122.711 94.678,122.712 95.215 M67.827 97.656 C 67.827 98.140,67.865 98.337,67.911 98.096 C 67.958 97.854,67.958 97.458,67.911 97.217 C 67.865 96.975,67.827 97.173,67.827 97.656 M123.881 97.656 C 123.881 98.140,123.919 98.337,123.966 98.096 C 124.013 97.854,124.013 97.458,123.966 97.217 C 123.919 96.975,123.881 97.173,123.881 97.656 M19.776 99.121 C 19.778 99.551,19.818 99.704,19.865 99.461 C 19.911 99.218,19.910 98.866,19.861 98.679 C 19.812 98.493,19.774 98.691,19.776 99.121 M171.534 99.121 C 171.536 99.551,171.576 99.704,171.623 99.461 C 171.669 99.218,171.667 98.866,171.619 98.679 C 171.570 98.493,171.531 98.691,171.534 99.121 M68.806 102.051 C 68.807 102.588,68.845 102.784,68.890 102.488 C 68.935 102.191,68.934 101.751,68.887 101.511 C 68.841 101.271,68.804 101.514,68.806 102.051 M122.907 102.051 C 122.909 102.588,122.947 102.784,122.992 102.488 C 123.037 102.191,123.035 101.751,122.989 101.511 C 122.943 101.271,122.906 101.514,122.907 102.051 M67.631 103.516 C 67.631 103.999,67.669 104.197,67.716 103.955 C 67.763 103.713,67.763 103.318,67.716 103.076 C 67.669 102.834,67.631 103.032,67.631 103.516 M124.077 103.516 C 124.077 103.999,124.115 104.197,124.161 103.955 C 124.208 103.713,124.208 103.318,124.161 103.076 C 124.115 102.834,124.077 103.032,124.077 103.516 M68.611 108.496 C 68.612 109.033,68.650 109.230,68.695 108.933 C 68.740 108.636,68.739 108.197,68.692 107.956 C 68.646 107.716,68.609 107.959,68.611 108.496 M123.103 108.496 C 123.104 109.033,123.142 109.230,123.187 108.933 C 123.232 108.636,123.231 108.197,123.184 107.956 C 123.138 107.716,123.101 107.959,123.103 108.496 M67.436 109.375 C 67.436 109.858,67.474 110.056,67.521 109.814 C 67.567 109.573,67.567 109.177,67.521 108.936 C 67.474 108.694,67.436 108.892,67.436 109.375 M124.272 109.375 C 124.272 109.858,124.310 110.056,124.357 109.814 C 124.403 109.573,124.403 109.177,124.357 108.936 C 124.310 108.694,124.272 108.892,124.272 109.375 M35.791 111.077 C 36.086 111.122,36.570 111.122,36.865 111.077 C 37.161 111.033,36.919 110.996,36.328 110.996 C 35.737 110.996,35.496 111.033,35.791 111.077 M37.646 112.638 C 37.888 112.684,38.284 112.684,38.525 112.638 C 38.767 112.591,38.569 112.553,38.086 112.553 C 37.603 112.553,37.405 112.591,37.646 112.638 M152.881 112.638 C 153.123 112.684,153.518 112.684,153.760 112.638 C 154.001 112.591,153.804 112.553,153.320 112.553 C 152.837 112.553,152.639 112.591,152.881 112.638 M68.409 114.746 C 68.411 115.176,68.451 115.329,68.498 115.086 C 68.544 114.843,68.542 114.491,68.494 114.304 C 68.445 114.118,68.406 114.316,68.409 114.746 M123.291 114.746 C 123.294 115.176,123.334 115.329,123.380 115.086 C 123.427 114.843,123.425 114.491,123.376 114.304 C 123.327 114.118,123.289 114.316,123.291 114.746 M67.243 115.332 C 67.245 115.869,67.283 116.066,67.328 115.769 C 67.373 115.472,67.371 115.032,67.325 114.792 C 67.279 114.552,67.242 114.795,67.243 115.332 M124.470 115.332 C 124.471 115.869,124.509 116.066,124.554 115.769 C 124.599 115.472,124.598 115.032,124.552 114.792 C 124.505 114.552,124.468 114.795,124.470 115.332 M68.220 121.191 C 68.221 121.729,68.259 121.925,68.304 121.628 C 68.349 121.331,68.348 120.892,68.302 120.652 C 68.255 120.411,68.218 120.654,68.220 121.191 M123.493 121.191 C 123.495 121.729,123.533 121.925,123.578 121.628 C 123.623 121.331,123.621 120.892,123.575 120.652 C 123.529 120.411,123.492 120.654,123.493 121.191 M67.041 121.582 C 67.044 122.012,67.084 122.165,67.130 121.922 C 67.177 121.679,67.175 121.327,67.126 121.140 C 67.077 120.954,67.039 121.152,67.041 121.582 M124.659 121.582 C 124.661 122.012,124.701 122.165,124.748 121.922 C 124.794 121.679,124.792 121.327,124.744 121.140 C 124.695 120.954,124.656 121.152,124.659 121.582 M26.232 123.145 C 26.233 123.789,26.270 124.029,26.313 123.678 C 26.357 123.327,26.356 122.800,26.311 122.506 C 26.267 122.213,26.231 122.500,26.232 123.145 M165.098 123.242 C 165.098 123.833,165.134 124.075,165.179 123.779 C 165.224 123.484,165.224 123.000,165.179 122.705 C 165.134 122.410,165.098 122.651,165.098 123.242 M66.846 127.441 C 66.848 127.871,66.888 128.024,66.935 127.781 C 66.982 127.538,66.980 127.186,66.931 127.000 C 66.882 126.813,66.844 127.012,66.846 127.441 M68.025 127.637 C 68.026 128.174,68.064 128.370,68.109 128.073 C 68.154 127.777,68.153 127.337,68.106 127.097 C 68.060 126.857,68.023 127.100,68.025 127.637 M123.689 127.637 C 123.690 128.174,123.728 128.370,123.773 128.073 C 123.818 127.777,123.817 127.337,123.770 127.097 C 123.724 126.857,123.687 127.100,123.689 127.637 M124.854 127.441 C 124.856 127.871,124.896 128.024,124.943 127.781 C 124.990 127.538,124.988 127.186,124.939 127.000 C 124.890 126.813,124.852 127.012,124.854 127.441 M48.926 131.641 C 49.345 132.070,49.733 132.422,49.786 132.422 C 49.840 132.422,49.541 132.070,49.121 131.641 C 48.702 131.211,48.314 130.859,48.261 130.859 C 48.207 130.859,48.506 131.211,48.926 131.641 M142.276 131.689 L 141.504 132.520 142.334 131.747 C 142.791 131.323,143.164 130.949,143.164 130.917 C 143.164 130.770,142.994 130.917,142.276 131.689 M45.398 131.885 L 44.824 132.520 45.459 131.946 C 46.051 131.411,46.184 131.250,46.033 131.250 C 45.999 131.250,45.713 131.536,45.398 131.885 M145.313 131.311 C 145.313 131.345,145.598 131.630,145.947 131.946 L 146.582 132.520 146.008 131.885 C 145.474 131.293,145.313 131.160,145.313 131.311 M66.657 133.496 C 66.659 134.033,66.697 134.230,66.742 133.933 C 66.787 133.636,66.785 133.197,66.739 132.956 C 66.693 132.716,66.656 132.959,66.657 133.496 M125.056 133.496 C 125.057 134.033,125.095 134.230,125.140 133.933 C 125.185 133.636,125.184 133.197,125.137 132.956 C 125.091 132.716,125.054 132.959,125.056 133.496 M67.829 133.691 C 67.831 134.229,67.869 134.425,67.914 134.128 C 67.958 133.831,67.957 133.392,67.911 133.152 C 67.865 132.911,67.828 133.154,67.829 133.691 M123.884 133.691 C 123.885 134.229,123.923 134.425,123.968 134.128 C 124.013 133.831,124.012 133.392,123.966 133.152 C 123.919 132.911,123.883 133.154,123.884 133.691 M51.660 134.570 C 52.080 135.000,52.467 135.352,52.521 135.352 C 52.574 135.352,52.275 135.000,51.855 134.570 C 51.436 134.141,51.049 133.789,50.995 133.789 C 50.941 133.789,51.241 134.141,51.660 134.570 M139.542 134.619 L 138.770 135.449 139.600 134.677 C 140.372 133.959,140.519 133.789,140.372 133.789 C 140.340 133.789,139.966 134.163,139.542 134.619 M37.455 134.907 C 37.806 134.951,38.333 134.950,38.627 134.905 C 38.920 134.861,38.633 134.825,37.988 134.826 C 37.344 134.827,37.104 134.864,37.455 134.907 M152.884 134.907 C 153.235 134.951,153.763 134.950,154.056 134.905 C 154.350 134.861,154.063 134.825,153.418 134.826 C 152.773 134.827,152.533 134.864,152.884 134.907 M66.462 139.551 C 66.464 140.088,66.502 140.284,66.546 139.988 C 66.591 139.691,66.590 139.251,66.544 139.011 C 66.497 138.771,66.461 139.014,66.462 139.551 M125.251 139.551 C 125.253 140.088,125.291 140.284,125.335 139.988 C 125.380 139.691,125.379 139.251,125.333 139.011 C 125.286 138.771,125.250 139.014,125.251 139.551 M67.634 140.137 C 67.635 140.674,67.673 140.870,67.718 140.573 C 67.763 140.277,67.762 139.837,67.716 139.597 C 67.669 139.357,67.633 139.600,67.634 140.137 M124.079 140.137 C 124.081 140.674,124.119 140.870,124.164 140.573 C 124.208 140.277,124.207 139.837,124.161 139.597 C 124.115 139.357,124.078 139.600,124.079 140.137 M111.089 141.993 C 111.440 142.207,111.814 142.383,111.919 142.383 C 112.024 142.383,112.109 142.485,112.109 142.611 C 112.109 142.736,112.160 142.787,112.223 142.725 C 112.285 142.662,112.634 142.736,112.998 142.888 C 114.347 143.451,113.911 143.117,112.326 142.372 C 110.518 141.522,110.113 141.398,111.089 141.993 M114.063 143.229 C 114.063 143.280,114.346 143.420,114.693 143.541 C 115.039 143.662,115.237 143.680,115.132 143.582 C 114.910 143.374,114.063 143.095,114.063 143.229 " stroke="none" fill="#34342a" fill-rule="evenodd"></path><path id="path4" d="M114.445 64.307 C 114.924 64.817,115.341 65.234,115.373 65.234 C 115.519 65.234,115.364 65.059,114.502 64.250 L 113.574 63.379 114.445 64.307 M121.920 83.789 C 121.920 84.165,121.961 84.319,122.010 84.131 C 122.059 83.943,122.059 83.635,122.010 83.447 C 121.961 83.259,121.920 83.413,121.920 83.789 M69.186 89.063 C 69.186 89.438,69.226 89.592,69.275 89.404 C 69.324 89.216,69.324 88.909,69.275 88.721 C 69.226 88.533,69.186 88.687,69.186 89.063 M122.506 89.063 C 122.506 89.438,122.546 89.592,122.596 89.404 C 122.645 89.216,122.645 88.909,122.596 88.721 C 122.546 88.533,122.506 88.687,122.506 89.063 M68.991 96.680 C 68.991 97.056,69.031 97.209,69.080 97.021 C 69.129 96.833,69.129 96.526,69.080 96.338 C 69.031 96.150,68.991 96.304,68.991 96.680 M122.702 96.680 C 122.702 97.056,122.742 97.209,122.791 97.021 C 122.840 96.833,122.840 96.526,122.791 96.338 C 122.742 96.150,122.702 96.304,122.702 96.680 M68.795 103.516 C 68.795 103.892,68.836 104.045,68.885 103.857 C 68.934 103.669,68.934 103.362,68.885 103.174 C 68.836 102.986,68.795 103.140,68.795 103.516 M122.897 103.516 C 122.897 103.892,122.937 104.045,122.986 103.857 C 123.035 103.669,123.035 103.362,122.986 103.174 C 122.937 102.986,122.897 103.140,122.897 103.516 M29.286 115.771 L 28.613 116.504 29.346 115.831 C 30.027 115.204,30.168 115.039,30.019 115.039 C 29.986 115.039,29.657 115.369,29.286 115.771 M161.914 115.723 C 162.278 116.099,162.621 116.406,162.674 116.406 C 162.728 116.406,162.474 116.099,162.109 115.723 C 161.745 115.347,161.403 115.039,161.349 115.039 C 161.295 115.039,161.550 115.347,161.914 115.723 M29.590 131.250 C 30.009 131.680,30.397 132.031,30.450 132.031 C 30.504 132.031,30.205 131.680,29.785 131.250 C 29.366 130.820,28.978 130.469,28.925 130.469 C 28.871 130.469,29.170 130.820,29.590 131.250 M161.612 131.299 L 160.840 132.129 161.670 131.357 C 162.126 130.932,162.500 130.559,162.500 130.527 C 162.500 130.379,162.330 130.527,161.612 131.299 M86.708 134.326 L 86.035 135.059 86.768 134.386 C 87.449 133.759,87.590 133.594,87.441 133.594 C 87.408 133.594,87.078 133.923,86.708 134.326 M104.492 134.277 C 104.857 134.653,105.199 134.961,105.252 134.961 C 105.306 134.961,105.052 134.653,104.688 134.277 C 104.323 133.901,103.981 133.594,103.927 133.594 C 103.874 133.594,104.128 133.901,104.492 134.277 M67.819 135.156 C 67.819 135.532,67.859 135.686,67.908 135.498 C 67.957 135.310,67.957 135.002,67.908 134.814 C 67.859 134.626,67.819 134.780,67.819 135.156 M123.873 135.156 C 123.873 135.532,123.914 135.686,123.963 135.498 C 124.012 135.310,124.012 135.002,123.963 134.814 C 123.914 134.626,123.873 134.780,123.873 135.156 M140.350 136.504 C 140.130 136.747,140.085 136.920,140.222 137.004 C 140.336 137.075,140.441 137.083,140.454 137.023 C 140.468 136.963,140.491 136.848,140.506 136.768 C 140.521 136.687,140.603 136.511,140.688 136.377 C 140.920 136.012,140.731 136.083,140.350 136.504 M68.306 142.328 C 68.653 142.372,69.268 142.372,69.673 142.330 C 70.079 142.288,69.795 142.252,69.043 142.252 C 68.291 142.251,67.959 142.285,68.306 142.328 M121.831 142.331 C 122.291 142.372,122.994 142.371,123.394 142.329 C 123.794 142.288,123.418 142.254,122.559 142.254 C 121.699 142.255,121.372 142.290,121.831 142.331 " stroke="none" fill="#3c3c2c" fill-rule="evenodd"></path><path id="path5" d="M89.648 20.040 C 89.272 20.083,88.086 20.211,87.012 20.323 C 75.119 21.572,60.840 26.788,51.855 33.166 C 27.956 50.131,16.680 76.512,20.615 106.250 C 21.510 113.012,24.414 124.498,24.414 121.275 C 24.414 116.106,30.400 110.938,36.386 110.938 C 37.706 110.938,38.102 110.878,38.020 110.693 C 33.917 101.376,35.814 90.889,42.861 83.929 C 49.769 77.106,59.495 76.541,66.923 82.531 L 67.538 83.027 67.673 81.797 C 68.980 69.924,77.532 59.499,88.770 56.078 C 106.090 50.806,122.941 62.462,124.521 80.807 L 124.659 82.415 125.367 81.861 C 132.779 76.052,143.606 77.707,150.124 85.645 C 155.883 92.658,157.126 102.201,153.386 110.693 C 153.305 110.878,153.700 110.938,155.020 110.938 C 161.006 110.937,166.992 116.106,166.992 121.275 C 166.992 124.498,169.897 113.012,170.791 106.250 C 174.727 76.512,163.450 50.131,139.551 33.166 C 130.785 26.943,117.766 22.096,105.213 20.383 C 103.138 20.099,91.391 19.841,89.648 20.040 M91.797 163.768 C 81.946 165.744,73.047 176.165,73.047 185.724 L 73.047 186.719 96.019 186.719 L 118.991 186.719 118.856 185.400 C 117.419 171.381,104.668 161.186,91.797 163.768 M59.180 206.152 L 59.180 222.656 68.066 222.656 L 76.953 222.656 76.953 237.207 L 76.953 251.758 95.605 251.758 L 114.258 251.758 114.258 237.207 L 114.258 222.656 123.242 222.656 L 132.227 222.656 132.227 206.152 L 132.227 189.648 128.516 189.648 L 124.805 189.648 124.805 200.684 L 124.805 211.719 113.281 211.719 L 101.758 211.719 101.758 214.844 L 101.758 217.969 95.801 217.969 L 89.844 217.969 89.844 214.844 L 89.844 211.719 78.223 211.719 L 66.602 211.719 66.602 200.684 L 66.602 189.648 62.891 189.648 L 59.180 189.648 59.180 206.152 M75.115 257.081 C 73.218 261.817,71.506 266.011,66.498 278.192 C 64.579 282.860,63.298 286.222,63.410 286.297 C 63.515 286.368,64.606 287.138,65.834 288.008 C 67.062 288.878,68.357 289.740,68.713 289.923 C 69.068 290.106,69.684 290.544,70.080 290.896 C 70.476 291.247,71.474 292.028,72.298 292.631 L 73.795 293.728 78.049 287.050 C 93.914 262.143,95.214 260.156,95.648 260.157 C 95.878 260.158,96.525 260.972,97.550 262.550 C 99.693 265.847,108.909 280.254,116.314 291.884 L 117.492 293.733 119.206 292.423 C 120.149 291.703,121.464 290.744,122.130 290.293 C 126.921 287.045,128.123 286.103,127.932 285.747 C 127.662 285.241,119.962 266.513,116.970 259.082 L 114.453 252.832 95.654 252.784 L 76.855 252.736 75.115 257.081 " stroke="none" fill="#575c44" fill-rule="evenodd"></path><path id="path6" d="M94.141 57.316 C 93.979 57.355,93.188 57.492,92.383 57.621 C 83.442 59.052,75.187 65.793,71.468 74.698 C 70.057 78.077,68.793 84.141,69.279 85.206 C 69.415 85.505,69.430 86.595,69.323 88.481 C 69.236 90.036,69.068 95.308,68.951 100.195 C 68.834 105.083,68.699 109.697,68.652 110.449 C 68.604 111.201,68.517 113.882,68.458 116.406 C 68.399 118.931,68.310 121.875,68.259 122.949 C 68.208 124.023,68.077 128.418,67.967 132.715 C 67.857 137.012,67.726 140.901,67.676 141.357 L 67.586 142.188 69.446 142.188 C 76.497 142.188,84.487 137.685,90.416 130.371 C 91.901 128.539,93.945 125.672,93.945 125.420 C 93.945 125.018,94.832 124.609,95.703 124.609 C 96.575 124.609,97.461 125.018,97.461 125.420 C 97.461 125.532,98.006 126.384,98.671 127.313 C 105.559 136.934,113.852 142.188,122.151 142.188 L 124.200 142.188 124.114 141.260 C 124.066 140.750,123.938 136.904,123.829 132.715 C 123.720 128.525,123.589 124.087,123.537 122.852 C 123.486 121.616,123.397 118.804,123.340 116.602 C 123.282 114.399,123.193 111.587,123.141 110.352 C 123.088 109.116,122.959 104.678,122.854 100.488 C 122.558 88.762,122.488 87.463,122.134 87.072 C 121.881 86.793,121.844 86.323,121.916 84.334 C 122.400 71.045,114.525 60.492,102.051 57.711 C 100.808 57.434,94.880 57.138,94.141 57.316 M52.246 80.878 C 40.316 83.785,34.094 99.218,40.137 110.917 C 40.620 111.853,41.016 112.713,41.016 112.828 C 41.016 112.943,41.245 113.554,41.525 114.185 C 41.948 115.135,45.272 124.164,47.121 129.379 C 47.448 130.303,47.710 130.747,47.948 130.782 C 48.140 130.810,49.493 132.055,50.955 133.549 C 55.873 138.576,59.767 140.877,65.057 141.885 L 66.356 142.133 66.484 138.400 C 66.554 136.348,66.782 129.263,66.991 122.656 C 67.200 116.050,67.418 109.370,67.476 107.813 C 67.534 106.255,67.716 101.025,67.880 96.191 C 68.045 91.357,68.198 87.286,68.221 87.144 C 68.282 86.757,65.890 84.253,64.551 83.301 C 60.897 80.704,56.508 79.839,52.246 80.878 M131.988 80.868 C 128.847 81.640,124.414 84.573,124.414 85.879 C 124.414 86.383,124.088 87.126,123.780 87.328 C 123.616 87.435,123.747 92.388,124.321 107.813 C 124.379 109.370,124.597 116.050,124.805 122.656 C 125.453 143.196,125.392 141.992,125.785 141.992 C 129.570 141.992,135.569 138.523,140.560 133.447 C 142.986 130.981,143.375 130.658,143.709 130.838 C 144.060 131.025,144.144 130.893,144.727 129.242 C 145.940 125.810,149.774 115.329,150.081 114.606 C 150.251 114.207,150.391 113.596,150.391 113.249 C 150.391 112.884,150.761 111.902,151.269 110.917 C 158.899 96.146,146.765 77.235,131.988 80.868 M42.667 84.229 L 41.895 85.059 42.725 84.287 C 43.497 83.569,43.644 83.398,43.497 83.398 C 43.465 83.398,43.091 83.772,42.667 84.229 M148.535 84.180 C 148.955 84.609,149.342 84.961,149.396 84.961 C 149.449 84.961,149.150 84.609,148.730 84.180 C 148.311 83.750,147.924 83.398,147.870 83.398 C 147.816 83.398,148.116 83.750,148.535 84.180 M19.967 88.477 C 19.967 88.853,20.007 89.006,20.057 88.818 C 20.106 88.630,20.106 88.323,20.057 88.135 C 20.007 87.947,19.967 88.101,19.967 88.477 M19.780 91.992 C 19.780 92.476,19.818 92.673,19.864 92.432 C 19.911 92.190,19.911 91.794,19.864 91.553 C 19.818 91.311,19.780 91.509,19.780 91.992 M171.538 91.992 C 171.538 92.476,171.576 92.673,171.622 92.432 C 171.669 92.190,171.669 91.794,171.622 91.553 C 171.576 91.311,171.538 91.509,171.538 91.992 M34.082 113.060 C 28.546 114.652,25.313 120.205,26.683 125.769 C 28.742 134.135,39.036 137.591,45.201 131.987 L 46.360 130.933 43.613 123.133 C 42.102 118.842,40.754 114.982,40.618 114.555 C 40.019 112.678,37.452 112.091,34.082 113.060 M151.762 113.078 C 151.649 113.289,150.989 115.113,150.294 117.131 C 149.600 119.149,148.199 123.130,147.181 125.977 L 145.331 131.152 146.347 132.094 C 152.302 137.611,162.688 134.037,164.723 125.769 C 166.113 120.123,162.735 114.466,157.101 113.006 C 155.268 112.531,152.031 112.575,151.762 113.078 M142.242 134.434 C 141.794 134.992,141.142 135.790,140.792 136.207 L 140.156 136.965 140.758 136.653 C 141.849 136.089,142.539 135.359,142.853 134.437 C 143.262 133.236,143.202 133.236,142.242 134.434 M111.523 170.020 C 111.888 170.396,112.230 170.703,112.284 170.703 C 112.337 170.703,112.083 170.396,111.719 170.020 C 111.354 169.644,111.012 169.336,110.959 169.336 C 110.905 169.336,111.159 169.644,111.523 170.020 " stroke="none" fill="#3c4134" fill-rule="evenodd"></path><path id="path7" d="" stroke="none" fill="#76583c" fill-rule="evenodd"></path><path id="path8" d="" stroke="none" fill="#644c34" fill-rule="evenodd"></path></g></svg>