<svg id="svg" version="1.1" xmlns="http://www.w3.org/2000/svg" xmlns:xlink="http://www.w3.org/1999/xlink" width="400" height="400" viewBox="0, 0, 400,400"><g id="svgg"><path id="path0" d="M90.527 19.934 C 39.850 23.192,8.208 70.986,23.747 120.801 L 24.295 122.559 24.428 121.582 C 25.286 115.281,30.655 110.701,36.866 110.973 C 37.645 111.007,38.282 111.010,38.282 110.979 C 38.281 110.947,38.116 110.596,37.914 110.197 C 36.229 106.874,35.490 101.033,36.225 96.852 C 39.002 81.060,55.557 73.208,66.618 82.438 L 67.513 83.185 67.843 80.833 C 69.819 66.751,81.960 55.587,95.996 54.943 C 110.746 54.266,123.180 65.603,124.370 80.814 L 124.512 82.625 125.684 81.734 C 134.008 75.409,146.086 78.584,152.163 88.697 C 155.987 95.059,156.549 104.146,153.491 110.197 C 153.290 110.596,153.125 110.947,153.125 110.979 C 153.124 111.010,153.791 111.006,154.606 110.970 C 160.761 110.701,166.123 115.300,166.978 121.582 L 167.111 122.559 167.659 120.801 C 177.431 89.474,168.744 56.954,145.384 37.418 C 130.615 25.066,110.488 18.651,90.527 19.934 M93.945 163.427 C 83.546 164.442,74.292 173.762,73.144 184.375 C 73.080 184.966,72.985 185.732,72.932 186.077 L 72.837 186.704 95.891 186.707 L 118.945 186.711 118.945 185.959 C 118.945 183.716,117.842 179.625,116.513 176.937 C 112.050 167.913,103.068 162.536,93.945 163.427 M73.486 187.830 C 73.674 187.879,73.982 187.879,74.170 187.830 C 74.358 187.781,74.204 187.741,73.828 187.741 C 73.452 187.741,73.298 187.781,73.486 187.830 M59.180 206.152 L 59.180 222.656 68.066 222.656 L 76.953 222.656 76.953 237.207 L 76.953 251.758 95.605 251.758 L 114.258 251.758 114.258 237.207 L 114.258 222.656 123.242 222.656 L 132.227 222.656 132.227 206.152 L 132.227 189.648 128.516 189.648 L 124.805 189.648 124.805 200.684 L 124.805 211.719 117.627 211.765 C 113.679 211.790,108.488 211.777,106.090 211.737 L 101.732 211.664 101.758 213.205 C 101.773 214.053,101.779 215.471,101.772 216.357 L 101.758 217.969 95.801 217.969 L 89.844 217.969 89.844 214.844 L 89.844 211.719 78.223 211.719 L 66.602 211.719 66.602 200.684 L 66.602 189.648 62.891 189.648 L 59.180 189.648 59.180 206.152 M74.507 258.446 C 72.303 263.916,70.080 269.355,65.418 280.678 C 64.243 283.533,63.281 285.960,63.281 286.071 C 63.281 286.183,64.929 287.437,66.943 288.858 C 68.958 290.279,71.309 291.956,72.168 292.585 C 73.358 293.456,73.782 293.673,73.947 293.495 C 74.067 293.367,76.565 289.482,79.498 284.863 C 82.432 280.244,86.694 273.564,88.968 270.020 C 96.016 259.034,95.480 259.746,96.136 260.498 C 96.462 260.872,103.945 272.513,112.205 285.497 L 117.453 293.749 117.955 293.423 C 118.231 293.243,119.248 292.513,120.215 291.799 C 121.498 290.853,127.393 286.671,128.086 286.217 C 128.117 286.196,127.402 284.389,126.495 282.201 C 123.211 274.275,117.221 259.592,114.873 253.711 L 114.522 252.832 95.665 252.782 L 76.809 252.732 74.507 258.446 " stroke="none" fill="#4d4d3d" fill-rule="evenodd"></path><path id="path1" d="M59.180 183.691 L 59.180 188.672 62.891 188.672 L 66.602 188.672 66.602 186.300 L 66.602 183.927 66.141 184.424 C 65.718 184.881,65.625 184.903,64.970 184.698 L 64.258 184.475 64.258 183.168 C 64.258 182.164,64.115 181.495,63.641 180.286 L 63.025 178.711 61.102 178.711 L 59.180 178.711 59.180 183.691 M127.962 180.771 C 127.304 182.437,127.148 183.074,127.148 184.092 C 127.148 185.305,127.131 185.352,126.660 185.352 C 126.392 185.352,126.172 185.268,126.172 185.166 C 126.172 184.897,125.287 183.984,125.026 183.984 C 124.873 183.984,124.805 184.710,124.805 186.328 L 124.805 188.672 128.516 188.672 L 132.227 188.672 132.227 183.691 L 132.227 178.711 130.501 178.711 L 128.776 178.711 127.962 180.771 M76.953 190.349 L 76.953 193.004 81.196 198.308 C 83.529 201.226,86.091 204.448,86.889 205.469 C 87.688 206.489,89.004 208.093,89.814 209.033 L 91.287 210.742 95.986 210.742 L 100.685 210.742 102.972 207.959 C 104.230 206.428,107.326 202.583,109.853 199.414 L 114.447 193.652 114.450 190.674 L 114.453 187.695 95.703 187.695 L 76.953 187.695 76.953 190.349 M90.487 194.144 C 91.801 195.178,91.866 198.850,90.595 200.297 C 89.065 202.040,87.498 200.164,87.769 196.914 C 87.987 194.284,89.154 193.095,90.487 194.144 M103.427 194.510 C 104.834 196.636,104.158 200.977,102.420 200.977 C 101.818 200.977,100.904 200.008,100.624 199.072 C 99.630 195.756,101.855 192.135,103.427 194.510 M76.953 202.593 L 76.953 210.742 83.502 210.742 L 90.050 210.742 88.807 209.229 C 88.124 208.396,85.340 204.902,82.621 201.465 C 79.902 198.027,77.515 195.042,77.315 194.830 C 76.962 194.454,76.953 194.649,76.953 202.593 M109.731 200.908 C 107.188 204.115,104.396 207.617,103.526 208.691 L 101.944 210.645 108.131 210.696 C 111.533 210.725,114.349 210.716,114.388 210.678 C 114.426 210.639,114.435 207.113,114.407 202.843 L 114.355 195.078 109.731 200.908 M90.820 214.355 L 90.820 216.992 95.801 216.992 L 100.781 216.992 100.781 214.355 L 100.781 211.719 95.801 211.719 L 90.820 211.719 90.820 214.355 " stroke="none" fill="#e3ab7b" fill-rule="evenodd"></path><path id="path2" d="M91.211 17.823 C 91.157 17.875,90.190 17.976,89.063 18.047 C 42.823 20.963,10.914 62.357,19.062 108.855 C 20.058 114.538,21.978 121.154,23.522 124.219 C 23.982 125.132,24.552 126.486,24.789 127.227 C 27.330 135.182,36.554 139.263,43.848 135.658 C 44.600 135.287,45.268 135.044,45.333 135.118 C 45.398 135.193,46.909 138.901,48.692 143.359 C 50.474 147.817,54.144 156.958,56.846 163.672 C 59.549 170.386,61.920 176.282,62.115 176.775 L 62.469 177.670 60.390 177.714 C 59.246 177.738,58.282 177.786,58.247 177.821 C 58.195 177.872,58.163 204.745,58.196 220.166 L 58.203 223.633 67.090 223.633 L 75.976 223.633 75.923 238.232 L 75.869 252.832 74.052 257.129 C 72.258 261.374,71.248 263.817,68.847 269.727 C 68.170 271.392,67.222 273.721,66.740 274.902 C 63.698 282.359,62.500 285.378,62.497 285.594 C 62.493 285.890,59.829 292.090,59.705 292.090 C 59.658 292.090,58.463 291.268,57.051 290.263 C 53.979 288.078,54.009 288.079,52.465 290.131 C 51.510 291.399,49.292 294.870,49.165 295.294 C 49.090 295.544,65.477 306.445,65.928 306.445 C 66.259 306.445,66.843 305.736,68.540 303.271 C 71.704 298.675,72.238 297.876,73.490 295.859 C 74.823 293.709,76.954 290.352,81.212 283.691 C 87.636 273.645,91.989 266.804,93.806 263.906 C 95.574 261.085,95.692 260.942,95.917 261.367 C 96.331 262.146,102.600 272.020,114.469 290.585 C 115.588 292.336,117.075 294.692,117.773 295.822 C 118.472 296.951,119.414 298.419,119.867 299.084 C 124.550 305.956,124.908 306.438,125.345 306.442 C 125.774 306.445,129.056 304.321,137.461 298.598 C 139.641 297.113,141.543 295.898,141.688 295.898 C 142.519 295.898,140.996 292.879,138.711 289.998 C 137.138 288.014,137.545 287.937,133.085 291.068 L 131.502 292.180 130.226 289.108 C 129.524 287.418,128.623 285.156,128.224 284.082 C 127.825 283.008,126.992 280.898,126.373 279.395 C 125.754 277.891,124.696 275.298,124.024 273.633 C 121.443 267.245,117.671 258.065,116.103 254.358 L 115.261 252.368 115.251 238.000 L 115.240 223.633 124.222 223.633 L 133.203 223.633 133.204 222.705 C 133.211 218.043,133.216 184.226,133.211 181.403 L 133.203 177.748 131.269 177.692 L 129.334 177.637 131.140 173.145 C 132.134 170.674,135.963 161.138,139.649 151.953 C 143.335 142.769,146.368 135.230,146.389 135.202 C 146.409 135.173,146.996 135.416,147.693 135.742 C 155.051 139.186,164.097 135.115,166.617 127.227 C 166.854 126.486,167.424 125.132,167.884 124.219 C 171.207 117.623,173.508 105.588,173.525 94.727 C 173.575 61.505,154.767 34.015,124.164 22.578 C 118.982 20.642,110.730 18.860,103.320 18.077 C 101.875 17.925,91.334 17.704,91.211 17.823 M102.246 19.931 C 152.671 24.252,182.951 71.001,167.698 120.983 L 167.046 123.118 166.911 121.960 C 166.160 115.521,161.135 111.024,154.764 111.089 L 152.984 111.107 153.640 109.588 C 161.732 90.872,141.019 70.247,125.749 81.815 L 124.446 82.801 124.326 81.293 C 122.344 56.526,94.261 46.200,76.645 63.762 C 71.602 68.790,68.391 75.419,67.839 81.940 C 67.711 83.454,67.613 83.619,67.163 83.075 C 64.285 79.606,56.837 77.675,51.702 79.067 C 39.428 82.397,32.539 97.498,37.771 109.601 L 38.434 111.133 36.453 111.135 C 30.112 111.143,25.243 115.550,24.495 121.960 L 24.360 123.118 23.708 120.983 C 9.968 75.958,32.689 33.243,76.312 22.089 C 80.696 20.968,84.098 20.414,90.039 19.854 C 91.711 19.696,100.122 19.749,102.246 19.931 M101.855 57.518 C 113.978 60.032,121.783 69.789,121.994 82.694 C 122.048 86.009,122.117 86.837,122.359 87.104 C 122.586 87.356,122.656 87.925,122.656 89.524 C 122.656 91.643,122.857 98.550,123.733 126.548 C 124.000 135.079,124.219 142.133,124.219 142.221 C 124.219 142.492,120.862 142.402,119.033 142.083 C 111.842 140.829,104.291 135.504,98.963 127.930 C 96.611 124.587,96.838 124.805,95.703 124.805 C 94.568 124.805,94.795 124.587,92.444 127.930 C 88.068 134.149,81.698 139.245,75.866 141.191 C 72.994 142.150,67.578 142.822,67.578 142.220 C 67.578 142.130,67.795 135.121,68.061 126.644 C 69.141 92.144,69.297 85.650,69.060 85.118 C 68.878 84.712,69.411 80.935,69.949 78.809 C 72.896 67.175,82.489 58.657,94.336 57.153 C 95.712 56.979,100.336 57.203,101.855 57.518 M58.666 80.555 C 61.713 81.138,64.173 82.523,66.737 85.098 L 68.337 86.705 68.152 90.960 C 67.987 94.764,66.974 125.380,66.700 134.863 C 66.641 136.904,66.541 139.398,66.479 140.405 L 66.366 142.237 65.319 142.114 C 60.531 141.551,55.191 138.293,49.994 132.764 C 49.009 131.716,48.059 130.858,47.881 130.857 C 47.638 130.856,47.202 129.853,46.118 126.804 C 43.244 118.726,40.973 112.798,40.037 110.934 C 32.664 96.241,44.003 77.750,58.666 80.555 M138.646 80.656 C 150.970 83.199,157.490 98.737,151.359 110.954 C 150.828 112.012,150.408 113.078,150.425 113.323 C 150.441 113.569,149.658 115.923,148.684 118.555 C 147.710 121.187,146.271 125.132,145.487 127.323 C 144.703 129.514,144.028 131.206,143.987 131.083 C 143.800 130.522,143.072 130.998,141.412 132.764 C 136.303 138.200,131.188 141.365,126.338 142.090 L 125.430 142.226 125.314 140.400 C 125.251 139.396,124.977 131.411,124.705 122.656 C 124.040 101.241,123.660 89.984,123.555 88.586 C 123.485 87.648,123.540 87.334,123.843 86.948 C 124.050 86.686,124.219 86.244,124.219 85.967 C 124.219 85.611,124.530 85.169,125.285 84.455 C 128.991 80.951,133.652 79.626,138.646 80.656 M39.768 113.086 C 40.242 113.476,40.539 114.103,41.254 116.211 C 41.745 117.661,43.125 121.595,44.321 124.953 L 46.495 131.057 45.775 131.691 C 40.866 136.013,34.583 135.994,30.015 131.645 C 22.360 124.357,27.096 112.292,37.508 112.555 C 38.965 112.592,39.252 112.660,39.768 113.086 M156.738 112.795 C 165.420 114.626,168.055 125.301,161.391 131.645 C 157.158 135.675,151.029 135.996,146.510 132.424 C 145.105 131.313,145.044 131.781,147.470 124.973 C 148.671 121.604,150.068 117.610,150.575 116.098 C 151.624 112.971,151.647 112.924,152.217 112.694 C 152.879 112.427,155.242 112.480,156.738 112.795 M96.918 129.248 C 97.507 130.188,99.289 133.506,100.879 136.621 C 104.406 143.535,114.989 164.064,120.540 174.763 C 124.330 182.067,124.828 183.208,124.101 182.930 C 123.880 182.844,123.828 183.164,123.825 184.625 C 123.824 185.616,123.821 191.845,123.819 198.468 C 123.816 209.160,123.782 210.523,123.513 210.626 C 123.346 210.690,121.460 210.742,119.320 210.742 L 115.430 210.742 115.430 202.270 C 115.430 195.006,115.471 193.763,115.720 193.557 C 115.880 193.424,116.908 192.132,118.004 190.686 L 119.996 188.057 120.068 186.362 C 120.579 174.266,108.400 161.952,95.898 161.924 C 84.072 161.898,72.248 173.263,71.916 184.975 L 71.830 188.016 73.323 189.955 C 74.145 191.022,75.073 192.213,75.386 192.602 L 75.956 193.309 75.966 202.020 L 75.976 210.731 71.777 210.734 L 67.578 210.736 67.578 196.886 C 67.578 185.116,67.537 183.027,67.302 182.973 C 67.108 182.929,68.180 180.688,70.930 175.391 C 77.518 162.700,88.146 142.074,91.939 134.619 C 93.920 130.725,95.610 127.539,95.694 127.539 C 95.779 127.539,96.329 128.308,96.918 129.248 M143.149 133.783 C 142.930 134.357,142.608 135.099,142.432 135.431 C 142.256 135.763,142.087 136.167,142.056 136.328 C 142.026 136.489,139.754 142.861,137.007 150.488 C 134.261 158.115,130.944 167.366,129.638 171.045 C 126.978 178.534,126.566 179.228,126.559 176.221 C 126.558 175.388,126.474 172.246,126.373 169.238 C 126.272 166.230,126.139 162.188,126.077 160.254 C 126.014 158.320,125.879 154.365,125.776 151.465 C 125.516 144.146,125.501 144.556,126.025 144.451 C 131.297 143.399,139.030 139.398,139.798 137.327 C 139.862 137.153,140.473 136.369,141.154 135.583 C 141.836 134.797,142.624 133.807,142.905 133.382 C 143.569 132.378,143.639 132.492,143.149 133.783 M52.557 148.327 C 54.369 153.369,55.819 157.527,55.780 157.567 C 55.740 157.607,54.106 153.620,52.150 148.706 C 50.193 143.793,48.065 138.508,47.420 136.962 L 46.249 134.150 46.697 133.673 L 47.145 133.196 48.203 136.178 C 48.785 137.818,50.744 143.285,52.557 148.327 M144.733 136.098 C 144.330 137.030,142.220 142.258,140.043 147.714 C 137.867 153.171,136.054 157.603,136.014 157.564 C 135.974 157.524,136.984 154.597,138.259 151.060 C 139.533 147.523,141.391 142.344,142.387 139.551 C 143.382 136.758,144.275 134.262,144.370 134.005 L 144.543 133.537 145.005 133.970 L 145.466 134.404 144.733 136.098 M89.487 136.572 C 88.315 138.784,84.095 146.939,74.606 165.332 C 71.779 170.811,68.823 176.523,68.037 178.027 L 66.608 180.762 66.605 178.892 C 66.602 177.152,67.044 162.493,67.273 156.738 C 67.329 155.342,67.433 152.068,67.505 149.463 L 67.636 144.727 69.511 144.726 C 76.454 144.723,83.477 141.516,89.155 135.756 C 89.904 134.997,90.547 134.375,90.584 134.375 C 90.621 134.375,90.127 135.364,89.487 136.572 M55.187 140.286 C 58.338 142.380,61.238 143.615,64.517 144.259 L 66.211 144.592 66.210 145.392 C 66.209 145.832,66.124 148.564,66.021 151.465 C 65.918 154.365,65.783 158.320,65.720 160.254 C 65.658 162.188,65.525 166.230,65.424 169.238 C 65.323 172.246,65.239 175.388,65.237 176.221 C 65.231 179.212,64.811 178.522,62.263 171.338 C 60.127 165.317,49.613 136.060,49.307 135.287 C 49.229 135.091,50.078 135.841,51.194 136.956 C 52.445 138.204,53.976 139.482,55.187 140.286 M105.666 138.804 C 107.343 140.121,110.174 141.832,110.482 141.714 C 110.617 141.662,111.455 141.969,112.346 142.395 C 113.236 142.822,113.745 143.121,113.477 143.060 C 112.849 142.919,113.356 143.252,114.063 143.446 C 114.452 143.553,114.492 143.536,114.258 143.359 C 114.024 143.183,114.064 143.165,114.453 143.272 C 114.722 143.345,115.073 143.520,115.234 143.659 C 115.763 144.115,118.405 144.554,121.310 144.667 L 124.162 144.778 124.292 149.489 C 124.364 152.079,124.468 155.342,124.524 156.738 C 124.753 162.493,125.195 177.152,125.192 178.892 L 125.189 180.762 123.760 178.027 C 122.974 176.523,120.018 170.811,117.191 165.332 C 106.403 144.422,103.249 138.326,102.391 136.719 L 101.505 135.059 102.950 136.432 C 103.744 137.187,104.967 138.255,105.666 138.804 M110.547 141.829 C 110.849 142.123,112.109 142.780,112.108 142.643 C 112.107 142.554,111.865 142.364,111.571 142.221 C 110.866 141.880,110.425 141.712,110.547 141.829 M101.226 163.941 C 110.630 166.367,118.945 176.590,118.945 185.724 L 118.945 186.719 95.876 186.719 L 72.806 186.719 72.941 185.400 C 74.437 170.802,87.984 160.524,101.226 163.941 M63.684 180.176 C 64.117 181.247,64.240 181.865,64.248 183.031 L 64.258 184.519 64.990 184.642 C 65.579 184.741,65.786 184.689,66.047 184.375 C 66.568 183.747,66.602 183.865,66.602 186.328 L 66.602 188.672 62.891 188.672 L 59.180 188.672 59.180 183.685 L 59.180 178.697 61.155 178.753 L 63.131 178.809 63.684 180.176 M132.227 183.691 L 132.227 188.672 128.516 188.672 L 124.805 188.672 124.805 186.328 C 124.805 184.316,124.849 183.984,125.115 183.984 C 125.460 183.984,126.155 184.727,126.165 185.107 C 126.169 185.242,126.392 185.352,126.660 185.352 C 127.136 185.352,127.148 185.316,127.148 183.930 C 127.148 182.760,127.264 182.231,127.799 180.951 C 128.156 180.095,128.505 179.241,128.574 179.053 C 128.680 178.762,128.960 178.711,130.463 178.711 L 132.227 178.711 132.227 183.691 M134.233 181.836 C 134.233 182.319,134.271 182.517,134.318 182.275 C 134.364 182.034,134.364 181.638,134.318 181.396 C 134.271 181.155,134.233 181.353,134.233 181.836 M75.977 189.551 C 75.977 191.789,76.119 191.780,74.435 189.649 C 72.751 187.516,72.744 187.695,74.512 187.695 L 75.977 187.695 75.977 189.551 M114.453 190.720 L 114.453 193.745 109.365 200.144 C 106.566 203.663,103.482 207.488,102.511 208.643 L 100.745 210.742 95.969 210.742 L 91.192 210.742 90.711 210.205 C 89.818 209.207,86.576 205.205,81.753 199.148 L 76.953 193.120 76.953 190.408 L 76.953 187.695 95.703 187.695 L 114.453 187.695 114.453 190.720 M118.664 187.994 C 118.455 188.152,118.348 188.281,118.426 188.281 C 118.504 188.281,117.896 189.116,117.075 190.137 C 116.254 191.157,115.548 191.992,115.506 191.992 C 115.464 191.992,115.430 191.025,115.430 189.844 L 115.430 187.695 117.236 187.702 C 118.867 187.707,119.006 187.736,118.664 187.994 M66.602 200.684 L 66.602 211.719 78.223 211.719 L 89.844 211.719 89.844 214.844 L 89.844 217.969 95.801 217.969 L 101.758 217.969 101.758 214.844 L 101.758 211.719 113.281 211.719 L 124.805 211.719 124.805 200.684 L 124.805 189.648 128.516 189.648 L 132.227 189.648 132.227 206.152 L 132.227 222.656 123.242 222.656 L 114.258 222.656 114.258 237.207 L 114.258 251.758 95.605 251.758 L 76.953 251.758 76.953 237.207 L 76.953 222.656 68.066 222.656 L 59.180 222.656 59.180 206.152 L 59.180 189.648 62.891 189.648 L 66.602 189.648 66.602 200.684 M88.659 194.350 C 87.353 195.748,87.494 199.603,88.890 200.636 C 91.017 202.209,92.495 196.006,90.411 194.253 C 89.639 193.603,89.341 193.619,88.659 194.350 M101.631 194.126 C 99.655 195.331,100.320 200.830,102.442 200.830 C 104.269 200.830,104.803 196.020,103.168 194.287 C 102.567 193.650,102.435 193.636,101.631 194.126 M83.398 202.327 C 86.675 206.441,89.517 210.018,89.714 210.275 L 90.072 210.742 83.512 210.742 L 76.953 210.742 76.959 202.490 C 76.964 195.967,77.015 194.302,77.203 194.542 C 77.334 194.709,80.122 198.212,83.398 202.327 M114.453 202.832 L 114.453 210.742 108.203 210.742 C 104.766 210.742,101.953 210.700,101.953 210.649 C 101.953 210.598,103.557 208.546,105.518 206.089 C 107.478 203.631,110.269 200.117,111.719 198.280 C 113.169 196.443,114.377 194.936,114.404 194.931 C 114.431 194.926,114.453 198.481,114.453 202.832 M67.840 208.887 C 67.841 209.746,67.875 210.073,67.917 209.614 C 67.958 209.155,67.957 208.451,67.915 208.051 C 67.873 207.651,67.840 208.027,67.840 208.887 M100.781 214.355 L 100.781 216.992 95.801 216.992 L 90.820 216.992 90.820 214.355 L 90.820 211.719 95.801 211.719 L 100.781 211.719 100.781 214.355 M116.442 257.474 C 117.481 260.077,120.551 267.606,123.262 274.205 L 128.191 286.204 127.728 286.510 C 127.474 286.679,125.072 288.382,122.392 290.296 C 118.459 293.105,117.475 293.726,117.287 293.519 C 117.159 293.377,114.738 289.614,111.906 285.156 C 106.708 276.971,99.597 265.849,97.199 262.152 C 95.640 259.749,95.665 259.748,94.022 262.256 C 92.609 264.414,78.019 287.243,75.676 290.962 C 74.713 292.490,73.868 293.742,73.796 293.745 C 73.725 293.748,72.670 293.024,71.453 292.136 C 69.840 290.961,63.733 286.627,63.140 286.236 C 63.115 286.221,64.286 283.312,65.741 279.774 C 68.744 272.469,76.240 254.084,76.546 253.271 L 76.748 252.734 95.649 252.738 L 114.551 252.741 116.442 257.474 " stroke="none" fill="#141c1c" fill-rule="evenodd"></path><path id="path3" d="M42.958 39.990 L 42.285 40.723 43.018 40.050 C 43.699 39.423,43.840 39.258,43.691 39.258 C 43.658 39.258,43.328 39.587,42.958 39.990 M148.242 39.941 C 148.607 40.317,148.949 40.625,149.002 40.625 C 149.056 40.625,148.802 40.317,148.438 39.941 C 148.073 39.565,147.731 39.258,147.677 39.258 C 147.624 39.258,147.878 39.565,148.242 39.941 M40.039 42.871 C 39.565 43.354,39.220 43.750,39.274 43.750 C 39.328 43.750,39.760 43.354,40.234 42.871 C 40.709 42.388,41.053 41.992,40.999 41.992 C 40.946 41.992,40.513 42.388,40.039 42.871 M151.164 42.822 C 151.643 43.333,152.060 43.750,152.091 43.750 C 152.238 43.750,152.083 43.575,151.221 42.765 L 150.293 41.895 151.164 42.822 M95.852 55.021 C 96.095 55.068,96.446 55.066,96.633 55.017 C 96.820 54.968,96.621 54.930,96.191 54.932 C 95.762 54.934,95.609 54.974,95.852 55.021 M97.412 55.021 C 97.654 55.067,98.049 55.067,98.291 55.021 C 98.533 54.974,98.335 54.936,97.852 54.936 C 97.368 54.936,97.170 54.974,97.412 55.021 M95.954 57.176 C 96.576 57.215,97.543 57.214,98.103 57.175 C 98.663 57.136,98.154 57.104,96.973 57.104 C 95.791 57.105,95.333 57.137,95.954 57.176 M116.007 62.744 C 116.486 63.254,116.904 63.672,116.935 63.672 C 117.082 63.672,116.927 63.497,116.064 62.687 L 115.137 61.816 116.007 62.744 M77.631 65.283 L 76.270 66.699 77.686 65.337 C 79.001 64.072,79.191 63.867,79.047 63.867 C 79.018 63.867,78.381 64.504,77.631 65.283 M54.739 80.414 C 55.036 80.458,55.475 80.457,55.716 80.411 C 55.956 80.365,55.713 80.328,55.176 80.329 C 54.639 80.331,54.442 80.369,54.739 80.414 M56.594 80.412 C 56.837 80.458,57.189 80.457,57.375 80.408 C 57.562 80.359,57.363 80.321,56.934 80.323 C 56.504 80.325,56.351 80.365,56.594 80.412 M134.133 80.412 C 134.376 80.458,134.728 80.457,134.914 80.408 C 135.101 80.359,134.902 80.321,134.473 80.323 C 134.043 80.325,133.890 80.365,134.133 80.412 M135.794 80.414 C 136.091 80.458,136.530 80.457,136.770 80.411 C 137.010 80.365,136.768 80.328,136.230 80.329 C 135.693 80.331,135.497 80.369,135.794 80.414 M67.163 83.057 C 67.310 83.245,67.508 83.398,67.602 83.398 C 67.696 83.398,67.766 83.245,67.758 83.057 C 67.748 82.839,67.706 82.807,67.641 82.967 C 67.559 83.173,67.481 83.173,67.217 82.967 C 66.929 82.742,66.923 82.751,67.163 83.057 M66.309 84.766 C 66.728 85.195,67.115 85.547,67.169 85.547 C 67.223 85.547,66.923 85.195,66.504 84.766 C 66.084 84.336,65.697 83.984,65.643 83.984 C 65.590 83.984,65.889 84.336,66.309 84.766 M68.991 84.570 C 68.991 84.946,69.031 85.100,69.080 84.912 C 69.129 84.724,69.129 84.417,69.080 84.229 C 69.031 84.041,68.991 84.194,68.991 84.570 M124.989 84.717 L 124.316 85.449 125.049 84.776 C 125.731 84.150,125.871 83.984,125.722 83.984 C 125.689 83.984,125.360 84.314,124.989 84.717 M121.924 85.059 C 121.926 85.488,121.966 85.641,122.013 85.398 C 122.060 85.155,122.058 84.804,122.009 84.617 C 121.960 84.430,121.922 84.629,121.924 85.059 M43.835 85.596 L 43.262 86.230 43.896 85.657 C 44.488 85.122,44.621 84.961,44.470 84.961 C 44.437 84.961,44.151 85.247,43.835 85.596 M146.875 85.022 C 146.875 85.056,147.161 85.341,147.510 85.657 L 148.145 86.230 147.571 85.596 C 147.036 85.004,146.875 84.871,146.875 85.022 M123.672 87.148 C 123.543 87.277,123.448 87.563,123.460 87.783 C 123.482 88.175,123.485 88.176,123.579 87.793 C 123.632 87.578,123.764 87.292,123.873 87.158 C 124.126 86.847,123.981 86.840,123.672 87.148 M68.018 92.285 C 68.020 92.715,68.060 92.868,68.107 92.625 C 68.154 92.382,68.152 92.030,68.103 91.843 C 68.054 91.657,68.016 91.855,68.018 92.285 M123.682 92.285 C 123.684 92.715,123.724 92.868,123.771 92.625 C 123.818 92.382,123.816 92.030,123.767 91.843 C 123.718 91.657,123.680 91.855,123.682 92.285 M69.001 95.215 C 69.003 95.752,69.041 95.948,69.085 95.652 C 69.130 95.355,69.129 94.915,69.083 94.675 C 69.036 94.435,69.000 94.678,69.001 95.215 M122.712 95.215 C 122.714 95.752,122.752 95.948,122.796 95.652 C 122.841 95.355,122.840 94.915,122.794 94.675 C 122.747 94.435,122.711 94.678,122.712 95.215 M67.827 97.656 C 67.827 98.140,67.865 98.337,67.911 98.096 C 67.958 97.854,67.958 97.458,67.911 97.217 C 67.865 96.975,67.827 97.173,67.827 97.656 M123.881 97.656 C 123.881 98.140,123.919 98.337,123.966 98.096 C 124.013 97.854,124.013 97.458,123.966 97.217 C 123.919 96.975,123.881 97.173,123.881 97.656 M19.776 99.121 C 19.778 99.551,19.818 99.704,19.865 99.461 C 19.911 99.218,19.910 98.866,19.861 98.679 C 19.812 98.493,19.774 98.691,19.776 99.121 M171.534 99.121 C 171.536 99.551,171.576 99.704,171.623 99.461 C 171.669 99.218,171.667 98.866,171.619 98.679 C 171.570 98.493,171.531 98.691,171.534 99.121 M68.806 102.051 C 68.807 102.588,68.845 102.784,68.890 102.488 C 68.935 102.191,68.934 101.751,68.887 101.511 C 68.841 101.271,68.804 101.514,68.806 102.051 M122.907 102.051 C 122.909 102.588,122.947 102.784,122.992 102.488 C 123.037 102.191,123.035 101.751,122.989 101.511 C 122.943 101.271,122.906 101.514,122.907 102.051 M67.631 103.516 C 67.631 103.999,67.669 104.197,67.716 103.955 C 67.763 103.713,67.763 103.318,67.716 103.076 C 67.669 102.834,67.631 103.032,67.631 103.516 M124.077 103.516 C 124.077 103.999,124.115 104.197,124.161 103.955 C 124.208 103.713,124.208 103.318,124.161 103.076 C 124.115 102.834,124.077 103.032,124.077 103.516 M68.611 108.496 C 68.612 109.033,68.650 109.230,68.695 108.933 C 68.740 108.636,68.739 108.197,68.692 107.956 C 68.646 107.716,68.609 107.959,68.611 108.496 M123.103 108.496 C 123.104 109.033,123.142 109.230,123.187 108.933 C 123.232 108.636,123.231 108.197,123.184 107.956 C 123.138 107.716,123.101 107.959,123.103 108.496 M67.436 109.375 C 67.436 109.858,67.474 110.056,67.521 109.814 C 67.567 109.573,67.567 109.177,67.521 108.936 C 67.474 108.694,67.436 108.892,67.436 109.375 M124.272 109.375 C 124.272 109.858,124.310 110.056,124.357 109.814 C 124.403 109.573,124.403 109.177,124.357 108.936 C 124.310 108.694,124.272 108.892,124.272 109.375 M35.791 111.077 C 36.086 111.122,36.570 111.122,36.865 111.077 C 37.161 111.033,36.919 110.996,36.328 110.996 C 35.737 110.996,35.496 111.033,35.791 111.077 M37.646 112.638 C 37.888 112.684,38.284 112.684,38.525 112.638 C 38.767 112.591,38.569 112.553,38.086 112.553 C 37.603 112.553,37.405 112.591,37.646 112.638 M152.881 112.638 C 153.123 112.684,153.518 112.684,153.760 112.638 C 154.001 112.591,153.804 112.553,153.320 112.553 C 152.837 112.553,152.639 112.591,152.881 112.638 M68.409 114.746 C 68.411 115.176,68.451 115.329,68.498 115.086 C 68.544 114.843,68.542 114.491,68.494 114.304 C 68.445 114.118,68.406 114.316,68.409 114.746 M123.291 114.746 C 123.294 115.176,123.334 115.329,123.380 115.086 C 123.427 114.843,123.425 114.491,123.376 114.304 C 123.327 114.118,123.289 114.316,123.291 114.746 M67.243 115.332 C 67.245 115.869,67.283 116.066,67.328 115.769 C 67.373 115.472,67.371 115.032,67.325 114.792 C 67.279 114.552,67.242 114.795,67.243 115.332 M124.470 115.332 C 124.471 115.869,124.509 116.066,124.554 115.769 C 124.599 115.472,124.598 115.032,124.552 114.792 C 124.505 114.552,124.468 114.795,124.470 115.332 M68.220 121.191 C 68.221 121.729,68.259 121.925,68.304 121.628 C 68.349 121.331,68.348 120.892,68.302 120.652 C 68.255 120.411,68.218 120.654,68.220 121.191 M123.493 121.191 C 123.495 121.729,123.533 121.925,123.578 121.628 C 123.623 121.331,123.621 120.892,123.575 120.652 C 123.529 120.411,123.492 120.654,123.493 121.191 M67.041 121.582 C 67.044 122.012,67.084 122.165,67.130 121.922 C 67.177 121.679,67.175 121.327,67.126 121.140 C 67.077 120.954,67.039 121.152,67.041 121.582 M124.659 121.582 C 124.661 122.012,124.701 122.165,124.748 121.922 C 124.794 121.679,124.792 121.327,124.744 121.140 C 124.695 120.954,124.656 121.152,124.659 121.582 M26.232 123.145 C 26.233 123.789,26.270 124.029,26.313 123.678 C 26.357 123.327,26.356 122.800,26.311 122.506 C 26.267 122.213,26.231 122.500,26.232 123.145 M165.098 123.242 C 165.098 123.833,165.134 124.075,165.179 123.779 C 165.224 123.484,165.224 123.000,165.179 122.705 C 165.134 122.410,165.098 122.651,165.098 123.242 M66.846 127.441 C 66.848 127.871,66.888 128.024,66.935 127.781 C 66.982 127.538,66.980 127.186,66.931 127.000 C 66.882 126.813,66.844 127.012,66.846 127.441 M68.025 127.637 C 68.026 128.174,68.064 128.370,68.109 128.073 C 68.154 127.777,68.153 127.337,68.106 127.097 C 68.060 126.857,68.023 127.100,68.025 127.637 M123.689 127.637 C 123.690 128.174,123.728 128.370,123.773 128.073 C 123.818 127.777,123.817 127.337,123.770 127.097 C 123.724 126.857,123.687 127.100,123.689 127.637 M124.854 127.441 C 124.856 127.871,124.896 128.024,124.943 127.781 C 124.990 127.538,124.988 127.186,124.939 127.000 C 124.890 126.813,124.852 127.012,124.854 127.441 M48.926 131.641 C 49.345 132.070,49.733 132.422,49.786 132.422 C 49.840 132.422,49.541 132.070,49.121 131.641 C 48.702 131.211,48.314 130.859,48.261 130.859 C 48.207 130.859,48.506 131.211,48.926 131.641 M142.276 131.689 L 141.504 132.520 142.334 131.747 C 142.791 131.323,143.164 130.949,143.164 130.917 C 143.164 130.770,142.994 130.917,142.276 131.689 M45.398 131.885 L 44.824 132.520 45.459 131.946 C 46.051 131.411,46.184 131.250,46.033 131.250 C 45.999 131.250,45.713 131.536,45.398 131.885 M145.313 131.311 C 145.313 131.345,145.598 131.630,145.947 131.946 L 146.582 132.520 146.008 131.885 C 145.474 131.293,145.313 131.160,145.313 131.311 M66.657 133.496 C 66.659 134.033,66.697 134.230,66.742 133.933 C 66.787 133.636,66.785 133.197,66.739 132.956 C 66.693 132.716,66.656 132.959,66.657 133.496 M125.056 133.496 C 125.057 134.033,125.095 134.230,125.140 133.933 C 125.185 133.636,125.184 133.197,125.137 132.956 C 125.091 132.716,125.054 132.959,125.056 133.496 M67.829 133.691 C 67.831 134.229,67.869 134.425,67.914 134.128 C 67.958 133.831,67.957 133.392,67.911 133.152 C 67.865 132.911,67.828 133.154,67.829 133.691 M123.884 133.691 C 123.885 134.229,123.923 134.425,123.968 134.128 C 124.013 133.831,124.012 133.392,123.966 133.152 C 123.919 132.911,123.883 133.154,123.884 133.691 M51.660 134.570 C 52.080 135.000,52.467 135.352,52.521 135.352 C 52.574 135.352,52.275 135.000,51.855 134.570 C 51.436 134.141,51.049 133.789,50.995 133.789 C 50.941 133.789,51.241 134.141,51.660 134.570 M139.542 134.619 L 138.770 135.449 139.600 134.677 C 140.372 133.959,140.519 133.789,140.372 133.789 C 140.340 133.789,139.966 134.163,139.542 134.619 M37.455 134.907 C 37.806 134.951,38.333 134.950,38.627 134.905 C 38.920 134.861,38.633 134.825,37.988 134.826 C 37.344 134.827,37.104 134.864,37.455 134.907 M152.884 134.907 C 153.235 134.951,153.763 134.950,154.056 134.905 C 154.350 134.861,154.063 134.825,153.418 134.826 C 152.773 134.827,152.533 134.864,152.884 134.907 M66.462 139.551 C 66.464 140.088,66.502 140.284,66.546 139.988 C 66.591 139.691,66.590 139.251,66.544 139.011 C 66.497 138.771,66.461 139.014,66.462 139.551 M125.251 139.551 C 125.253 140.088,125.291 140.284,125.335 139.988 C 125.380 139.691,125.379 139.251,125.333 139.011 C 125.286 138.771,125.250 139.014,125.251 139.551 M67.634 140.137 C 67.635 140.674,67.673 140.870,67.718 140.573 C 67.763 140.277,67.762 139.837,67.716 139.597 C 67.669 139.357,67.633 139.600,67.634 140.137 M124.079 140.137 C 124.081 140.674,124.119 140.870,124.164 140.573 C 124.208 140.277,124.207 139.837,124.161 139.597 C 124.115 139.357,124.078 139.600,124.079 140.137 M111.089 141.993 C 111.440 142.207,111.814 142.383,111.919 142.383 C 112.024 142.383,112.109 142.485,112.109 142.611 C 112.109 142.736,112.160 142.787,112.223 142.725 C 112.285 142.662,112.634 142.736,112.998 142.888 C 114.347 143.451,113.911 143.117,112.326 142.372 C 110.518 141.522,110.113 141.398,111.089 141.993 M114.063 143.229 C 114.063 143.280,114.346 143.420,114.693 143.541 C 115.039 143.662,115.237 143.680,115.132 143.582 C 114.910 143.374,114.063 143.095,114.063 143.229 " stroke="none" fill="#34342a" fill-rule="evenodd"></path><path id="path4" d="M91.846 19.861 C 92.034 19.910,92.341 19.910,92.529 19.861 C 92.717 19.812,92.563 19.772,92.188 19.772 C 91.812 19.772,91.658 19.812,91.846 19.861 M98.877 19.861 C 99.065 19.910,99.373 19.910,99.561 19.861 C 99.749 19.812,99.595 19.772,99.219 19.772 C 98.843 19.772,98.689 19.812,98.877 19.861 M41.591 41.357 L 40.918 42.090 41.650 41.417 C 42.332 40.790,42.473 40.625,42.323 40.625 C 42.291 40.625,41.961 40.955,41.591 41.357 M149.609 41.309 C 149.974 41.685,150.316 41.992,150.370 41.992 C 150.423 41.992,150.169 41.685,149.805 41.309 C 149.440 40.933,149.098 40.625,149.044 40.625 C 148.991 40.625,149.245 40.933,149.609 41.309 M93.555 57.353 C 81.553 59.156,72.297 68.062,69.733 80.276 C 69.369 82.009,69.290 83.122,69.224 87.500 C 69.154 92.155,68.748 107.100,68.441 116.309 C 67.938 131.442,67.645 142.118,67.730 142.264 C 67.786 142.361,68.690 142.381,69.773 142.311 C 78.238 141.756,86.066 136.747,92.396 127.836 C 94.756 124.514,94.500 124.753,95.703 124.753 C 96.906 124.753,96.650 124.514,99.010 127.836 C 104.349 135.351,111.014 140.271,117.936 141.806 C 119.843 142.228,123.911 142.533,124.067 142.264 C 124.152 142.118,123.835 130.579,123.358 116.406 C 123.236 112.771,122.695 93.696,122.602 89.720 C 122.562 87.988,122.469 87.257,122.260 87.004 C 122.031 86.729,121.970 85.917,121.958 83.026 C 121.892 67.011,108.692 55.080,93.555 57.353 M54.590 80.492 C 41.504 81.505,33.668 97.852,40.041 110.840 C 41.174 113.148,42.021 115.313,44.816 123.047 C 45.962 126.216,47.059 129.248,47.255 129.785 C 47.491 130.435,47.735 130.781,47.983 130.819 C 48.187 130.850,49.391 131.971,50.658 133.311 C 54.237 137.094,57.324 139.312,61.133 140.835 C 62.770 141.489,66.118 142.346,66.304 142.159 C 66.342 142.121,66.467 139.233,66.582 135.742 C 66.789 129.459,66.891 126.482,67.091 120.801 C 67.147 119.189,67.372 112.334,67.591 105.566 C 67.810 98.799,68.063 91.812,68.154 90.039 L 68.319 86.816 66.422 84.961 C 62.882 81.498,59.261 80.130,54.590 80.492 M133.789 80.528 C 130.138 80.918,124.416 84.141,124.413 85.808 C 124.413 86.041,124.225 86.538,123.996 86.914 C 123.598 87.566,123.585 87.751,123.707 90.918 C 123.819 93.809,124.377 110.540,124.702 120.703 C 124.762 122.583,124.854 125.264,124.907 126.660 C 124.960 128.057,125.098 132.100,125.214 135.645 C 125.329 139.189,125.441 142.108,125.463 142.129 C 125.618 142.285,128.754 141.440,130.273 140.833 C 134.092 139.309,137.183 137.085,140.756 133.293 C 142.756 131.169,143.137 130.849,143.591 130.911 C 144.107 130.982,144.137 130.922,145.522 127.064 C 146.296 124.908,147.708 121.039,148.660 118.466 C 149.612 115.893,150.391 113.548,150.391 113.255 C 150.391 112.961,150.811 111.903,151.325 110.902 C 158.534 96.862,148.213 78.985,133.789 80.528 M42.667 84.229 L 41.895 85.059 42.725 84.287 C 43.497 83.569,43.644 83.398,43.497 83.398 C 43.465 83.398,43.091 83.772,42.667 84.229 M148.535 84.180 C 148.955 84.609,149.342 84.961,149.396 84.961 C 149.449 84.961,149.150 84.609,148.730 84.180 C 148.311 83.750,147.924 83.398,147.870 83.398 C 147.816 83.398,148.116 83.750,148.535 84.180 M19.971 88.379 C 19.973 88.809,20.013 88.961,20.060 88.718 C 20.107 88.475,20.105 88.124,20.056 87.937 C 20.007 87.750,19.969 87.949,19.971 88.379 M171.338 88.379 C 171.340 88.809,171.380 88.961,171.427 88.718 C 171.474 88.475,171.472 88.124,171.423 87.937 C 171.374 87.750,171.336 87.949,171.338 88.379 M19.785 91.602 C 19.785 92.192,19.822 92.434,19.866 92.139 C 19.911 91.843,19.911 91.360,19.866 91.064 C 19.822 90.769,19.785 91.011,19.785 91.602 M171.543 91.602 C 171.543 92.192,171.580 92.434,171.624 92.139 C 171.669 91.843,171.669 91.360,171.624 91.064 C 171.580 90.769,171.543 91.011,171.543 91.602 M19.772 97.852 C 19.772 98.228,19.812 98.381,19.861 98.193 C 19.910 98.005,19.910 97.698,19.861 97.510 C 19.812 97.322,19.772 97.476,19.772 97.852 M171.530 97.852 C 171.530 98.228,171.570 98.381,171.619 98.193 C 171.668 98.005,171.668 97.698,171.619 97.510 C 171.570 97.322,171.530 97.476,171.530 97.852 M35.512 112.740 C 26.620 113.736,23.211 124.819,29.787 131.348 C 34.242 135.771,40.853 135.976,45.446 131.834 L 46.422 130.953 44.701 126.170 C 43.754 123.539,42.396 119.673,41.684 117.578 C 39.937 112.443,39.715 112.269,35.512 112.740 M153.092 112.656 C 151.695 112.729,151.827 112.528,150.384 116.797 C 149.712 118.784,148.292 122.827,147.228 125.781 L 145.293 131.152 146.364 132.157 C 153.078 138.456,165.039 132.828,165.039 123.370 C 165.039 116.690,160.129 112.286,153.092 112.656 M27.820 114.502 L 27.246 115.137 27.881 114.563 C 28.473 114.028,28.605 113.867,28.455 113.867 C 28.421 113.867,28.135 114.153,27.820 114.502 M162.891 113.928 C 162.891 113.962,163.176 114.248,163.525 114.563 L 164.160 115.137 163.587 114.502 C 163.052 113.910,162.891 113.777,162.891 113.928 M142.727 133.736 C 142.455 134.141,141.738 135.016,141.132 135.679 C 140.527 136.343,140.111 136.936,140.208 136.996 C 140.306 137.056,140.494 136.974,140.627 136.814 C 140.760 136.654,140.951 136.523,141.053 136.523 C 141.486 136.523,142.587 135.172,142.953 134.191 C 143.438 132.894,143.376 132.769,142.727 133.736 M95.557 163.416 C 95.745 163.465,96.052 163.465,96.240 163.416 C 96.428 163.367,96.274 163.327,95.898 163.327 C 95.522 163.327,95.369 163.367,95.557 163.416 " stroke="none" fill="#3b3d2e" fill-rule="evenodd"></path><path id="path5" d="" stroke="none" fill="#856850" fill-rule="evenodd"></path><path id="path6" d="" stroke="none" fill="#947458" fill-rule="evenodd"></path><path id="path7" d="" stroke="none" fill="#745c4c" fill-rule="evenodd"></path><path id="path8" d="M103.664 186.662 C 103.907 186.708,104.259 186.707,104.446 186.658 C 104.632 186.609,104.434 186.571,104.004 186.573 C 103.574 186.575,103.421 186.615,103.664 186.662 M108.154 211.862 C 108.611 211.903,109.358 211.903,109.814 211.862 C 110.271 211.821,109.897 211.787,108.984 211.787 C 108.071 211.787,107.698 211.821,108.154 211.862 " stroke="none" fill="#6c5c44" fill-rule="evenodd"></path></g></svg>